<svg width="139" height="68" viewBox="0 0 139 68" fill="none" xmlns="http://www.w3.org/2000/svg">
<path fill-rule="evenodd" clip-rule="evenodd" d="M10.0365 0.155579C9.69751 0.243255 8.58816 0.267619 7.57125 0.209821C6.35219 0.14064 5.54236 0.174786 5.19406 0.310479C3.45748 0.986454 2.83906 3.20431 3.99912 4.59646C4.50749 5.20681 4.96602 5.25447 5.58621 4.76167C6.18491 4.28612 6.73096 4.31351 7.36311 4.85059C7.93963 5.34054 8.44905 5.41097 8.98242 5.07449C9.26169 4.89843 9.4045 4.8995 9.691 5.08018C10.0078 5.28008 10.1011 5.24487 10.4896 4.77874C10.791 4.41684 11.4672 4.04141 12.6399 3.58472C14.7011 2.78212 15.4952 2.10045 15.4952 1.13371C15.4952 0.781581 15.4538 0.493477 15.4035 0.493477C15.3529 0.493477 14.9884 0.709555 14.5935 0.973471C13.8425 1.47534 12.6185 1.62099 11.5773 1.33236C11.1671 1.21871 11.093 1.1033 11.093 0.579019C11.093 -0.0852183 11.0442 -0.104781 10.0365 0.155579ZM6.08964 6.20414C5.67548 6.53315 5.47791 6.56463 4.4934 6.4581C3.39708 6.33948 3.36221 6.34873 3.05336 6.8385C2.60046 7.5568 2.45518 7.63114 1.71632 7.5223C0.980446 7.414 0.988722 7.40528 1.22855 8.04249C1.36009 8.39177 1.31801 8.71402 1.05247 9.39444C0.593932 10.5694 0.59675 11.9251 1.05916 12.6806C1.49392 13.3914 2.22011 13.8961 2.59729 13.75C2.83571 13.6577 2.82039 13.6007 2.4941 13.3699C1.96337 12.9945 1.58425 12.1903 1.58425 11.4401C1.58425 10.5435 2.54411 9.51413 3.83536 9.02631C5.26044 8.4878 7.3698 8.37576 9.03613 8.7503C10.8107 9.14902 11.9169 9.89115 12.4961 11.0718L12.9307 11.9578L13.093 11.3857C13.2189 10.9427 13.1664 10.5479 12.8608 9.63381C12.6283 8.93863 12.5065 8.25003 12.5644 7.95784C12.6609 7.47037 12.6489 7.46237 11.8608 7.49011C11.092 7.51697 11.0504 7.4926 10.8542 6.89577C10.6693 6.33361 10.5901 6.27599 10.0349 6.30071C9.69681 6.31583 9.19619 6.38643 8.92237 6.45757C8.54942 6.55431 8.29726 6.49171 7.91709 6.2077C7.27419 5.72771 6.69081 5.72664 6.08964 6.20414ZM5.34039 10.7971C4.54465 11.162 4.22557 11.5945 4.22557 12.3082C4.22557 12.8611 4.2784 12.8671 4.9183 12.3895C6.03558 11.555 8.03189 11.6162 9.40239 12.5264L10.089 12.9826L9.98066 12.2956C9.91516 11.8798 9.69593 11.4538 9.42581 11.2168C8.51561 10.4177 6.59713 10.2207 5.34039 10.7971ZM28.1056 12.2545C27.9961 12.7964 27.1107 23.5214 27.1144 24.263C27.1165 24.7213 27.1769 24.8087 27.4431 24.7382C27.6226 24.6909 28.2303 24.7382 28.7937 24.8433C29.357 24.9486 29.8464 25.0059 29.8811 24.9709C29.9681 24.883 28.3919 12.0366 28.2803 11.9239C28.231 11.8741 28.1524 12.0229 28.1056 12.2545ZM6.59079 13.0164C6.42597 13.6793 6.9 14.3219 7.65982 14.4659C8.00073 14.5305 8.33406 14.6726 8.4008 14.7816C8.46771 14.8908 8.56579 15.782 8.61897 16.7622L8.71582 18.5444L9.28054 18.7288C9.78732 18.8942 9.81267 18.9335 9.52882 19.1126C9.27455 19.2728 9.22401 19.4989 9.2712 20.262C9.3036 20.7845 9.45451 23.6529 9.60665 26.6362L9.88329 32.0603L11.2879 36.4174C12.0606 38.8138 12.7792 41.1199 12.8851 41.5419C13.0999 42.3982 13.2364 42.3511 13.5611 41.3081C13.9314 40.118 14.5998 38.9157 15.3448 38.0995C16.096 37.2762 17.5841 36.4174 18.2591 36.4174C18.4822 36.4174 18.6648 36.3865 18.6648 36.3484C18.6648 36.3106 18.422 35.7555 18.1253 35.1151C17.7939 34.4 17.4954 33.3456 17.3517 32.3829C17.161 31.1053 16.5581 29.3518 14.0909 22.9015C10.5834 13.7306 10.6479 13.8808 10.1516 13.7274C9.94298 13.663 9.66177 13.5205 9.52671 13.411C9.39165 13.3013 8.83697 13.1183 8.29409 13.0041C7.75121 12.8901 7.1717 12.7421 7.00636 12.6754C6.78097 12.5847 6.67672 12.6703 6.59079 13.0164ZM4.69978 13.4709C3.64836 13.8858 3.30041 14.1688 3.42825 14.5051C3.48266 14.6486 3.40148 14.859 3.2474 14.9726C2.79486 15.307 3.08893 16.1435 3.6591 16.1435H4.11094L3.70629 16.5785C3.3034 17.0116 3.30305 17.016 3.63321 17.5869C4.0604 18.3256 4.29337 18.3923 4.53972 17.8462C4.64907 17.6038 4.97976 17.2796 5.27453 17.1256C5.65259 16.9282 5.81037 16.7162 5.81037 16.4057C5.81037 16.1636 5.88397 15.9657 5.97395 15.9657C6.25112 15.9657 6.69081 15.4243 6.69081 15.0831C6.69081 14.8896 6.52053 14.7162 6.26732 14.652C5.88609 14.5554 5.85316 14.4732 5.93821 13.8325C6.04879 13.0005 5.95846 12.9742 4.69978 13.4709ZM21.0173 16.2196C19.528 16.5028 18.647 16.7779 17.7178 17.2499L17.0349 17.5967L17.8939 18.4852C18.3663 18.9739 20.155 20.7327 21.8687 22.3939C24.7921 25.2277 25.0098 25.4011 25.3905 25.2008C25.6138 25.0834 25.8349 24.9525 25.8821 24.91C25.9969 24.8065 26.7314 16.2568 26.6351 16.1435C26.4615 15.939 22.1883 15.997 21.0173 16.2196ZM67.6802 16.4885C67.089 16.7437 66.7369 17.3982 66.7369 18.2419C66.7369 20.4421 69.8962 20.7749 70.3229 18.6198C70.4412 18.0222 70.1229 17.0793 69.6765 16.7055C69.3132 16.4012 68.1702 16.2771 67.6802 16.4885ZM74.8369 16.4204C74.6916 16.4523 73.9586 16.5298 73.2081 16.5927C72.0206 16.6925 71.8434 16.7516 71.8434 17.0478C71.8434 17.2725 71.9662 17.3884 72.2035 17.3884C72.4016 17.3884 72.7582 17.5849 72.9959 17.825L73.4282 18.2614V25.9849V33.7084L73.9125 33.8128C74.1787 33.8702 75.4671 33.9712 76.7755 34.037C80.4334 34.2215 82.4596 33.7436 83.8764 32.3628C84.7544 31.5071 85.1712 30.6676 85.3855 29.3235C85.8069 26.6808 84.7068 24.2582 82.6237 23.2413C81.987 22.9305 81.4834 22.835 80.4717 22.8334C79.0533 22.8311 78.2514 23.1282 77.1497 24.0648L76.5978 24.5337V20.4275V16.3214L75.8494 16.342C75.4379 16.3534 74.9822 16.3886 74.8369 16.4204ZM6.69081 16.7324C6.69081 16.8737 6.45573 17.0879 6.16835 17.2081C5.32031 17.5629 5.23086 17.7934 5.26854 19.5277C5.29566 20.7742 5.24284 21.1882 5.02854 21.4044C4.87745 21.5572 4.75384 21.9545 4.75384 22.2876C4.75384 23.0139 5.34585 23.4973 6.10708 23.3929C6.55328 23.3317 6.56772 23.3098 6.25059 23.1745C5.60206 22.8976 5.43688 22.6972 5.64643 22.4419C5.97254 22.0452 7.25429 21.9481 8.00196 22.2636C8.36981 22.4188 8.73185 22.5458 8.80651 22.5458C9.06817 22.5458 9.15287 21.9828 8.94861 21.5993C8.83521 21.3863 8.73202 20.6385 8.71917 19.9374C8.69927 18.8455 8.62355 18.5574 8.19073 17.9266C7.58763 17.0477 6.69081 16.3336 6.69081 16.7324ZM30.0154 17.4329C30.0688 17.7507 30.3139 19.6491 30.5603 21.6514C30.8269 23.8193 31.0936 25.3488 31.2197 25.4322C31.9077 25.8878 32.2111 25.7895 33.0722 24.8316C35.6224 21.9947 36.4497 21.0155 36.4497 20.8339C36.4497 20.2954 33.293 18.0519 31.3986 17.2442C30.1065 16.6932 29.8962 16.722 30.0154 17.4329ZM52.3293 17.7617C52.3674 18.0141 52.6083 18.212 53.0719 18.3722C54.3887 18.8273 54.3227 18.4482 54.3227 25.5568C54.3227 32.7206 54.3765 32.4236 52.9992 32.8405C52.4913 32.9942 52.2976 33.1489 52.2976 33.4012C52.2976 33.7407 52.457 33.7498 58.4574 33.7498H64.6171L64.6978 33.3497C64.7895 32.8944 65.1521 29.8336 65.1521 29.514C65.1521 29.0642 64.503 29.3244 64.2352 29.8818C63.7501 30.8908 62.8892 31.9483 62.2942 32.2661C61.4245 32.7302 59.332 32.7002 58.6872 32.2142L58.1966 31.8442L58.1503 25.6169C58.1068 19.7416 58.1228 19.3662 58.4361 18.9755C58.6187 18.7478 59.0358 18.4708 59.3628 18.3601C59.7569 18.2268 59.9765 18.0288 60.0138 17.7736C60.07 17.3884 60.0695 17.3884 56.1716 17.3884C52.3112 17.3884 52.2737 17.392 52.3293 17.7617ZM36.978 22.0431C34.8957 24.3086 33.1921 26.2305 33.1921 26.3143C33.1921 26.4686 35.3722 28.2387 35.5569 28.2344C35.6612 28.2321 41.028 18.2228 41.028 18.0308C41.028 17.6959 40.4205 18.2979 36.978 22.0431ZM14.9229 18.7681C14.6565 18.9349 14.4387 19.1688 14.4387 19.2879C14.4387 19.4071 15.3186 21.7756 16.3941 24.5515L18.3494 29.5986L19.8303 30.3404C20.6449 30.7484 21.3894 31.0822 21.4849 31.0822C21.5803 31.0822 21.6583 30.7905 21.6583 30.4341C21.6583 29.9324 20.9724 28.5081 18.6208 24.1265C16.9502 21.0137 15.5436 18.4663 15.4952 18.4659C15.4468 18.4654 15.1893 18.6013 14.9229 18.7681ZM16.9648 19.2486C17.0966 19.5952 21.8286 27.75 22.011 27.9445C22.0897 28.0285 22.25 27.9084 22.3672 27.6778C22.4845 27.4473 22.8603 26.9627 23.2026 26.6011L23.8247 25.9436L20.516 22.4663C17.456 19.2506 16.7081 18.5728 16.9648 19.2486ZM112.872 19.3185C112.872 19.5799 110.127 22.4466 109.369 22.9774C108.96 23.2636 108.646 23.6274 108.646 23.8149C108.646 24.0978 108.787 24.1464 109.605 24.1464H110.564L110.618 28.2241C110.668 32.0464 110.694 32.3335 111.042 32.8035C111.589 33.5455 112.397 33.9502 113.533 34.0534C115.195 34.204 116.713 33.5638 117.294 32.4667C117.618 31.8569 117.208 31.6899 116.551 32.1629C115.9 32.631 114.991 32.7009 114.534 32.3182C113.871 31.7626 113.752 31.0386 113.752 27.5311V24.1464H115.415C116.891 24.1464 117.129 24.1916 117.524 24.5465C117.982 24.9577 118.527 26.0167 120.874 31.0609L122.231 33.9739L121.859 34.9734C121.342 36.3643 120.58 37.5391 119.811 38.1316C119.267 38.5508 118.994 38.6324 118.172 38.622C117.63 38.615 117.076 38.5763 116.942 38.5359C116.764 38.4827 116.61 38.8517 116.38 39.8853C115.934 41.8782 115.883 41.7532 117.142 41.7488C118.534 41.7438 119.472 41.3248 120.313 40.3326C120.953 39.5766 121.272 38.888 125.115 29.9545C126.16 27.5247 127.182 25.2839 127.386 24.9749C127.589 24.666 128.052 24.2664 128.414 24.0873C128.776 23.9081 129.072 23.6479 129.072 23.5094C129.072 23.3052 128.653 23.2572 126.871 23.2572C125.078 23.2572 124.67 23.3045 124.67 23.512C124.67 23.6522 124.83 23.8183 125.027 23.881C125.615 24.0697 125.958 24.7672 125.823 25.498C125.69 26.2106 124.153 29.8384 123.984 29.8355C123.926 29.8345 123.337 28.6767 122.675 27.2625C121.443 24.628 121.342 24.0984 122.034 23.9155C122.225 23.8652 122.381 23.6964 122.381 23.5407C122.381 23.289 121.897 23.2572 118.067 23.2572H113.752V21.212V19.1668H113.312C113.07 19.1668 112.872 19.2351 112.872 19.3185ZM67.1771 22.9993C66.0149 23.1266 65.0441 23.2365 65.02 23.2438C64.9959 23.2511 64.976 23.3705 64.976 23.5092C64.976 23.6477 65.3128 23.8741 65.7244 24.0123C66.1781 24.1645 66.5583 24.4329 66.6902 24.694C66.96 25.228 66.9982 31.366 66.7362 32.0623C66.6243 32.3591 66.301 32.6415 65.8575 32.8297C65.4206 33.015 65.1551 33.2449 65.1538 33.4386C65.1522 33.7238 65.424 33.7498 68.4097 33.7498C71.4423 33.7498 71.6673 33.7274 71.6673 33.4261C71.6673 33.2323 71.4388 33.0007 71.0972 32.8482C70.1368 32.4197 70.088 32.1484 70.0852 27.2141L70.0825 22.7237L69.6863 22.7459C69.4683 22.7582 68.3393 22.8721 67.1771 22.9993ZM91.0763 22.9026C89.3508 23.2689 87.946 24.4055 87.1282 26.0971C86.55 27.2931 86.5584 29.7623 87.145 30.968C87.7035 32.1167 88.5906 32.983 89.7893 33.5506C90.6274 33.9478 91.0073 34.0155 92.3577 34.01C94.0724 34.0027 95.009 33.7014 96.2232 32.7662C96.7986 32.3228 97.9045 30.8442 97.9045 30.5183C97.9045 30.1252 97.1987 30.4466 96.7085 31.0628C95.2413 32.9067 92.4771 32.9773 91.1388 31.2051C90.5674 30.4485 90.1566 29.2719 90.1566 28.3922V27.7032H94.0501H97.9437L97.8289 27.0852C97.5218 25.432 96.3579 23.9027 94.9368 23.2854C93.9446 22.8544 92.1444 22.6758 91.0763 22.9026ZM100.282 22.9993C99.1195 23.1266 98.1489 23.2365 98.1246 23.2438C98.1003 23.2511 98.0805 23.3646 98.0805 23.4958C98.0805 23.6271 98.4037 23.8321 98.7986 23.9516C99.89 24.2819 100.018 24.756 100.018 28.4862C100.018 30.1948 99.9377 31.8046 99.8402 32.0635C99.7249 32.3698 99.4171 32.6321 98.9598 32.8135C98.4929 32.9986 98.2566 33.2028 98.2566 33.4212C98.2566 33.7294 98.4655 33.7498 101.602 33.7498C104.739 33.7498 104.948 33.7294 104.948 33.4212C104.948 33.2028 104.712 32.9986 104.245 32.8135C103.306 32.4409 103.187 32.05 103.187 29.3283V27.064L103.851 26.4092C104.702 25.5698 105.385 25.424 106.287 25.8889C106.664 26.0834 107.124 26.4112 107.308 26.6173C107.493 26.8232 107.696 26.9918 107.76 26.9918C107.824 26.9918 108.021 26.22 108.197 25.2766L108.517 23.5613L108.099 23.2433C106.719 22.1919 104.855 22.9045 103.71 24.9211L103.19 25.8359L103.189 24.2798C103.187 22.7784 103.173 22.7244 102.791 22.7459C102.573 22.7582 101.444 22.8721 100.282 22.9993ZM93.3744 24.2853C93.778 24.6731 94.3827 26.1021 94.3827 26.6685C94.3827 26.7486 93.4214 26.814 92.2466 26.814H90.1105L90.205 26.2261C90.3732 25.1798 90.8255 24.3408 91.4227 23.9685C92.1237 23.5314 92.6845 23.6225 93.3744 24.2853ZM37.7852 26.5229C36.9892 28.0721 36.608 29.0002 36.6846 29.2022C36.7492 29.3721 36.8686 29.4845 36.9501 29.4519C38.8632 28.6863 40.8489 27.7514 40.8501 27.6157C40.8528 27.3505 39.2516 24.1458 39.1185 24.1496C39.0549 24.1512 38.455 25.2193 37.7852 26.5229ZM79.8302 24.5689C80.6413 24.9111 81.4677 25.9952 81.7167 27.0438C82.0011 28.2412 81.8317 30.3107 81.3753 31.2145C80.339 33.2657 77.3618 33.954 76.7827 32.276C76.6809 31.9815 76.5978 30.3561 76.5978 28.6639V25.5873L77.1754 25.1423C78.2472 24.3166 78.8987 24.1759 79.8302 24.5689ZM25.6081 26.0703C23.6742 26.7455 22.5421 28.2446 22.5349 30.1396C22.532 30.8887 22.4366 31.2928 22.1866 31.6157C21.9902 31.8693 21.8406 32.3406 21.8383 32.7126C21.831 33.9157 22.2315 34.3676 22.4276 33.3776C22.5303 32.8592 23.4468 31.7936 23.79 31.7936C24.0957 31.7936 23.942 32.3164 23.5072 32.7555C23.142 33.1243 23.067 33.3705 23.067 34.2008V35.2015L23.709 34.8009L24.351 34.4L24.225 35.6936C24.1554 36.4052 24.0603 37.0881 24.0137 37.2111C23.9568 37.3607 24.1705 37.4679 24.6569 37.5337C25.6259 37.665 25.7129 37.7973 25.136 38.2629C24.3989 38.858 24.5037 39.1731 25.4405 39.1786C25.8737 39.1811 26.325 39.281 26.4437 39.4009C26.6136 39.5725 26.4446 39.6186 25.6426 39.6186C24.7687 39.6186 24.6345 39.6623 24.6867 39.9298C24.736 40.1822 24.8966 40.2296 25.5361 40.1806C26.1889 40.1304 26.2855 40.1606 26.0978 40.3563C25.973 40.4863 25.7353 40.5935 25.5696 40.5946C25.1551 40.5974 25.0688 41.6435 25.4361 42.2099C25.7668 42.7194 26.4488 42.7744 27.7043 42.3929L28.5236 42.1438L27.8203 43.1564C27.4335 43.7134 27.1183 44.2855 27.1197 44.4279C27.1243 44.8848 27.7714 46.8043 27.9399 46.861C28.0293 46.8912 29.0547 46.6001 30.2183 46.2142C31.3819 45.8283 33.1861 45.3319 34.2276 45.1112C35.7608 44.7863 36.1051 44.657 36.0354 44.4317C35.9878 44.2787 35.3882 42.8935 34.7026 41.3536C34.017 39.8137 33.4562 38.4021 33.4562 38.2168C33.4562 37.9714 33.6265 37.8475 34.0822 37.7612C34.7371 37.6371 36.0975 36.4155 36.0975 35.9513C36.0975 35.63 35.5679 35.638 35.1033 35.9666C34.6585 36.2812 34.5127 36.1658 34.5127 35.4985C34.5127 35.1183 34.4289 34.9947 34.1709 34.9947C33.9829 34.9947 33.7802 35.0747 33.7203 35.1725C33.5034 35.527 33.1236 35.3269 31.4995 34.0029C29.1947 32.1242 28.7448 31.912 27.029 31.8958C26.2542 31.8885 25.4495 31.9454 25.2408 32.0224C24.9397 32.1336 24.7893 32.06 24.5141 31.6668L24.1669 31.1711L25.2457 31.093C27.4402 30.9341 28.8154 31.0004 29.9658 31.3207C30.9804 31.6033 31.2037 31.7431 31.5948 32.3399C32.4911 33.7077 34.8714 34.5713 35.8183 33.872C36.1099 33.6566 36.0634 33.5739 35.222 32.8099C34.297 31.97 34.2733 31.8711 34.8362 31.2097C35.0901 30.9113 35.1614 30.9477 36.0421 31.8261L36.978 32.7596V32.2271C36.978 30.5248 32.4314 26.8387 29.3252 26.0226C27.9658 25.6655 26.7215 25.6815 25.6081 26.0703ZM41.9084 28.4151C39.2416 29.5412 37.7829 30.2469 37.8054 30.4C37.8649 30.8035 38.6453 32.8606 38.7388 32.8599C38.8325 32.859 46.2522 27.122 46.5549 26.8163C47.0067 26.36 45.7602 26.7889 41.9084 28.4151ZM28.7987 27.3683L29.5798 27.567L29.4685 28.302C29.4072 28.7062 29.3255 29.0733 29.287 29.1178C29.2484 29.1622 28.4888 29.1866 27.5988 29.1718L25.9806 29.1451L25.7698 28.5576C25.4556 27.682 25.4812 27.5933 26.1045 27.3915C26.8841 27.1387 27.8633 27.1304 28.7987 27.3683ZM7.94526 28.6813C7.57847 29.546 6.89859 32.2867 6.59959 34.1055C6.21361 36.4541 6.06975 41.5546 6.31768 44.1034C6.81689 49.2348 8.28282 53.7468 10.6246 57.36C11.0215 57.9725 11.4248 58.447 11.5209 58.4146C11.7817 58.3268 12.2929 56.4493 12.5228 54.7351C12.9159 51.805 12.3195 45.2124 11.358 41.862C11.1189 41.0287 10.3543 38.6024 9.65877 36.4703C8.44007 32.7342 8.39023 32.5135 8.28282 30.3708C8.18157 28.3489 8.15093 28.196 7.94526 28.6813ZM32.6157 29.0724C33.3685 29.532 33.9841 29.9522 33.9836 30.0061C33.9831 30.06 33.8049 30.3262 33.5874 30.5976L33.1921 31.0909L31.8593 30.4121L30.5264 29.7331L30.7733 28.9849C30.9093 28.5734 31.0713 28.2367 31.1336 28.2367C31.1959 28.2367 31.863 28.6129 32.6157 29.0724ZM24.8217 29.4087C24.8284 29.6191 23.5734 30.5858 23.4523 30.4635C23.3459 30.3562 23.7291 29.3064 24.0615 28.7939L24.3449 28.3573L24.5801 28.7861C24.7096 29.0219 24.8182 29.3022 24.8217 29.4087ZM18.5488 30.8057C18.6125 30.9737 18.6657 31.4048 18.6669 31.7637C18.6689 32.3513 18.7634 32.4823 19.6203 33.0829C20.1434 33.4498 20.6377 33.7493 20.7187 33.7487C20.7997 33.7482 20.8717 33.323 20.8788 32.8039L20.8916 31.8599L19.8222 31.2488C18.431 30.4537 18.4125 30.4473 18.5488 30.8057ZM40.415 32.9319C38.4437 34.5832 38.1401 35.2698 38.3064 37.7014L38.4122 39.2522L39.931 41.7918C40.7662 43.1886 41.533 44.3902 41.635 44.4621C41.7369 44.5339 41.9951 44.5939 42.2087 44.5955C42.7861 44.5994 42.8428 43.9611 42.7339 38.6798C42.6475 34.4855 42.4638 32.4848 42.1062 31.8391C42.0222 31.6874 41.4913 32.0304 40.415 32.9319ZM28.9883 33.6444C29.4851 33.8779 29.9434 34.1542 30.0072 34.2583C30.1889 34.5554 29.0653 34.7704 28.3454 34.5764C27.5856 34.3715 26.7649 34.5444 26.7649 34.9092C26.7649 35.2753 26.5794 35.2312 26.0165 34.7308C25.3632 34.1501 25.4069 33.8499 26.1926 33.5245C27.1501 33.1277 27.964 33.1626 28.9883 33.6444ZM36.2146 37.591C35.5869 38.2159 35.3921 38.541 35.3884 38.9693C35.3854 39.31 35.8512 40.4868 36.577 41.9725L37.7704 44.4151L38.8665 44.4178L39.9627 44.4203L39.7882 43.9567C39.6922 43.7018 39.1352 42.5453 38.5504 41.3869C37.6415 39.586 37.4721 39.0988 37.3831 38.0269C37.3259 37.3372 37.2243 36.7731 37.1576 36.7731C37.0907 36.7731 36.6663 37.1411 36.2146 37.591ZM17.8229 37.943C16.8474 38.434 15.4959 39.8163 14.9662 40.8649C14.0881 42.6035 13.7916 45.1743 14.0626 48.6995C14.2739 51.4472 14.1098 53.7159 13.5501 55.7813C13.3543 56.5036 13.2214 57.1217 13.2545 57.1552C13.3767 57.2786 15.8828 53.765 16.3748 52.7804C16.9742 51.5814 17.5012 49.5603 17.7734 47.4173C18.1526 44.4324 18.9402 42.8163 20.4829 41.8574C21.1644 41.4338 21.5386 41.3273 22.3748 41.3187C22.9481 41.3129 23.4176 41.2752 23.4181 41.2352C23.4208 41.0477 21.5824 37.7356 21.4118 37.6205C21.3052 37.5487 20.6592 37.4888 19.976 37.4872C18.9904 37.485 18.5458 37.5791 17.8229 37.943ZM51.9455 38.9961V39.6186H83.025H114.105V38.9961V38.3737H83.025H51.9455V38.9961ZM123.261 38.9961V39.6186H129.776H136.292V38.9961V38.3737H129.776H123.261V38.9961ZM21.3854 42.5364C20.758 42.8124 19.945 43.7326 19.6053 44.551C19.4741 44.8674 19.1337 46.3079 18.8488 47.7522C18.5641 49.1964 18.208 50.7282 18.0576 51.1562C17.9073 51.5841 17.7844 52.0061 17.7844 52.0938C17.7844 52.1815 18.3984 51.8217 19.149 51.2942C20.8897 50.071 22.8103 49.0159 25.0316 48.0627C26.7597 47.3211 26.7795 47.3058 26.2553 47.1212C25.8029 46.9618 25.5486 46.5832 24.5696 44.6099L23.4167 42.2862L22.6696 42.2931C22.2586 42.297 21.6808 42.4064 21.3854 42.5364ZM55.115 44.5158C54.1041 44.8327 53.099 45.6734 52.6037 46.6161C52.2969 47.2 52.2158 47.6529 52.2158 48.7774C52.2158 51.1011 52.8801 51.9896 56.1223 54.0019C58.1383 55.253 58.6574 55.6942 59.0756 56.5107C59.8155 57.956 58.5836 59.4098 56.6187 59.4098C54.9599 59.4098 53.4829 58.2437 52.9011 56.4747C52.6967 55.8528 52.5306 55.6243 52.2836 55.6243C51.9669 55.6243 51.9455 55.7764 51.9455 58.0252C51.9455 60.15 51.9793 60.426 52.2397 60.426C52.4015 60.426 52.6808 60.2918 52.8604 60.1278C53.1658 59.8486 53.2682 59.8487 54.4589 60.1301C56.0749 60.5117 57.9735 60.5116 59.0835 60.1296C60.1822 59.7515 61.4725 58.4733 61.7673 57.471C62.2891 55.6965 61.7946 53.8263 60.4489 52.4829C60.073 52.1077 58.8455 51.2185 57.7208 50.5067C55.457 49.0742 54.6583 48.3552 54.4947 47.6029C54.2596 46.5217 55.4426 45.3095 56.7329 45.3095C58.0194 45.3095 59.7912 46.6193 60.2544 47.9127C60.3894 48.2898 60.5856 48.5106 60.7853 48.5106C61.0726 48.5106 61.102 48.3127 61.102 46.3766C61.102 44.0984 61.0341 43.9492 60.2274 44.458C59.9599 44.6266 59.6159 44.6266 58.6417 44.458C57.0695 44.1855 56.1179 44.2012 55.115 44.5158ZM39.9134 46.0422C36.6843 46.3563 32.7969 47.5076 29.7404 49.0552C26.2708 50.8121 22.353 54.0584 19.9886 57.136C18.3258 59.3003 16.6762 61.8681 16.843 62.0325C16.9249 62.1132 17.1976 62.2306 17.4489 62.2932C17.8654 62.3969 17.9691 62.2998 18.6217 61.1941C20.5866 57.8655 23.9027 54.2149 26.9485 52.0276C30.9499 49.1544 36.252 47.1537 40.8963 46.765C42.2256 46.6536 42.3534 46.6093 42.405 46.2432C42.4689 45.7879 42.5022 45.7906 39.9134 46.0422ZM27.7992 48.1519C23.7876 49.501 19.6435 52.251 17.2012 55.1843C16.0679 56.5455 13.5558 60.2267 13.5574 60.524C13.5579 60.6268 13.9148 60.8857 14.3506 61.0997C14.7865 61.3134 15.143 61.4218 15.143 61.3403C15.143 60.8712 17.843 57.1843 19.3685 55.5708C22.1926 52.5836 25.0806 50.3582 28.2616 48.7185C29.0364 48.3191 29.7892 47.9101 29.9344 47.8096C30.4513 47.4521 29.3599 47.627 27.7992 48.1519ZM66.5085 50.012C64.2287 50.8334 63.0168 52.6245 63.0054 55.1897C62.998 56.8544 63.4979 58.036 64.653 59.0849C65.8217 60.1463 66.902 60.4909 68.7385 60.3887C70.7929 60.2741 72.1794 59.4787 73.3136 57.7632C73.976 56.7614 73.3648 56.5105 72.6304 57.4829C72.0549 58.245 70.5877 59.0033 69.6888 59.0033C68.9549 59.0033 67.8848 58.5302 67.4039 57.9932C66.938 57.4728 66.4321 56.1662 66.2975 55.1352L66.1755 54.2016H69.9094H73.6436L73.5228 53.5347C73.2491 52.0234 71.9549 50.5427 70.4573 50.0273C69.4898 49.6944 67.4125 49.6864 66.5085 50.012ZM77.5598 50.0385C75.8677 50.6453 74.7822 52.1457 74.7797 53.8813C74.7778 55.278 75.3389 56.1169 76.7526 56.8304L77.8077 57.3629L77.2509 57.4753C75.1715 57.8953 74.2993 59.2665 75.1819 60.7284C75.4523 61.1765 75.7596 61.37 76.6293 61.6396L77.733 61.982L77.0299 62.1018C74.735 62.4934 73.4742 64.5265 74.5288 66.1351C75.7734 68.0334 80.6307 68.6231 83.6711 67.2452C85.6542 66.3462 86.8234 64.3039 86.2897 62.6707C85.7009 60.8685 84.024 59.9763 80.5598 59.6218C77.7741 59.3369 76.8889 58.9026 77.6589 58.1987C77.9151 57.9647 78.5622 57.8272 80.1625 57.6675C81.3495 57.5489 82.598 57.3328 82.937 57.1875C85.0678 56.2734 85.8803 53.8228 84.6102 52.1411L84.1268 51.5011L85.2927 51.6271L86.4587 51.7532V50.7543V49.7555L82.3647 49.7696C79.2872 49.7801 78.094 49.8469 77.5598 50.0385ZM88.542 49.9168C87.8961 49.9748 87.3119 50.0789 87.2436 50.148C87.0314 50.3632 87.3115 50.8226 87.6551 50.8226C87.835 50.8226 88.1495 51.0026 88.3542 51.2227C88.7025 51.5973 88.7297 51.8462 88.7812 55.1228C88.8313 58.3318 88.866 58.6634 89.199 59.1132C89.8868 60.0426 90.4374 60.3214 91.731 60.3953C93.2908 60.4842 94.0691 60.2146 95.1212 59.2204L95.9675 58.421V59.4481V60.4749L97.5083 60.3572C100.082 60.1605 100.546 60.0646 100.546 59.7301C100.546 59.5496 100.303 59.3417 99.9351 59.2075C99.0622 58.8886 98.9631 58.3262 98.962 53.6896L98.961 49.7098L96.98 49.832C95.8905 49.8991 94.8602 49.9949 94.6909 50.0447C94.1895 50.192 94.338 50.6211 94.9849 50.8941C95.316 51.0339 95.6725 51.3097 95.7773 51.5073C95.8877 51.7159 95.9675 52.9193 95.9675 54.3796C95.9675 56.8276 95.9553 56.909 95.4984 57.514C94.7166 58.5493 93.6259 58.916 92.7423 58.4408C91.9567 58.0181 91.9289 57.858 91.9231 53.7125L91.9175 49.7555L90.8169 49.7835C90.2117 49.7989 89.1879 49.8589 88.542 49.9168ZM103.099 49.8786C101.733 49.9698 101.426 50.0783 101.426 50.4703C101.426 50.7154 101.547 50.8244 101.822 50.8283C102.939 50.8441 103.187 51.6172 103.187 55.0758C103.187 58.3479 103.056 58.8996 102.203 59.2108C101.823 59.3499 101.602 59.5477 101.602 59.7504C101.602 60.0467 101.838 60.0703 104.785 60.0703C107.676 60.0703 107.962 60.0428 107.91 59.7703C107.879 59.6053 107.606 59.4056 107.303 59.3264C106.366 59.0814 106.274 58.8192 106.207 56.2021L106.145 53.8109L106.724 53.2078C107.325 52.5811 108.165 52.3015 108.818 52.5108C109.027 52.5777 109.472 52.8761 109.808 53.1738C110.144 53.4717 110.468 53.6654 110.529 53.604C110.589 53.5429 110.784 52.832 110.96 52.0243L111.282 50.5558L110.834 50.1557C110.488 49.8457 110.172 49.7555 109.435 49.7555C108.611 49.7555 108.393 49.834 107.829 50.3335C107.469 50.6515 106.952 51.2674 106.678 51.7022L106.181 52.4929V51.1242V49.7555L105.08 49.7875C104.475 49.8052 103.583 49.8461 103.099 49.8786ZM115.043 50.0751C112.792 50.8847 111.463 52.7426 111.463 55.0815C111.463 57.1671 112.546 58.9089 114.419 59.8381C115.352 60.3006 115.579 60.3371 117.538 60.3371C119.448 60.3371 119.746 60.2925 120.632 59.8728C121.792 59.3229 122.75 58.3801 123.288 57.2571C123.587 56.6332 123.677 56.1308 123.673 55.1004C123.665 52.863 122.645 51.2563 120.635 50.3161C119.308 49.6954 116.443 49.5718 115.043 50.0751ZM126.343 50.0328C125.134 50.6762 124.67 51.4488 124.671 52.8144C124.672 54.4539 125.388 55.1804 128.062 56.2533C130.155 57.0931 130.822 58.1415 129.872 59.1002C129.367 59.6104 128.296 59.6926 127.509 59.2816C126.922 58.9748 125.853 57.8105 125.468 57.0577C125.315 56.7584 125.072 56.5135 124.929 56.5135C124.716 56.5135 124.67 56.8672 124.67 58.492V60.4705L125.242 60.3378C125.923 60.1799 125.928 60.1799 127.852 60.3449C128.889 60.4338 129.566 60.4065 130.014 60.2571C132.019 59.5889 132.963 57.3236 132.022 55.4409C131.562 54.522 130.75 53.9298 128.984 53.2265C127.377 52.5862 126.783 52.1528 126.783 51.6209C126.783 50.6558 128.384 50.3316 129.638 51.0429C130.04 51.2713 130.527 51.7646 130.779 52.1989C131.484 53.4146 131.713 53.2188 131.713 51.4006L131.713 49.8445L129.292 49.798C127.36 49.7611 126.764 49.8085 126.343 50.0328ZM69.3078 51.0911C69.7982 51.5862 70.2586 52.5731 70.2586 53.1288C70.2586 53.471 70.1517 53.4902 68.2523 53.4902H66.2461L66.4085 52.7602C66.6166 51.8244 67.0059 51.0669 67.3972 50.8368C67.9691 50.5005 68.8374 50.6159 69.3078 51.0911ZM81.0856 51.0303C81.7507 51.5585 82.0565 52.3897 82.0565 53.668C82.0565 55.6149 81.3175 56.6914 79.981 56.6914C79.3467 56.6914 79.1146 56.5944 78.7156 56.163C77.5703 54.9249 77.5695 52.3037 78.7139 51.1479C79.3472 50.5083 80.365 50.4578 81.0856 51.0303ZM119.051 51.1038C119.948 51.9227 120.18 52.7241 120.18 55.0019C120.18 56.8201 120.123 57.2603 119.795 57.9759C119.068 59.5667 117.337 60.0501 116.147 58.9949C115.244 58.1941 114.897 57.1103 114.897 55.0908C114.897 53.0582 115.244 51.9873 116.169 51.1669C116.747 50.6551 116.885 50.6124 117.74 50.6839C118.329 50.7333 118.816 50.8891 119.051 51.1038ZM134.97 57.1207C134.452 57.6442 134.279 58.2729 134.43 59.0856C134.682 60.444 136.524 60.9302 137.538 59.9062C137.959 59.4806 138.053 59.2363 138.053 58.5587C138.053 57.8811 137.959 57.6368 137.538 57.2112C136.847 56.5135 135.614 56.4701 134.97 57.1207ZM137.092 57.6615C137.521 58.0947 137.623 58.5373 137.417 59.0776C137.359 59.2323 137.248 59.359 137.172 59.359C136.915 59.359 136.824 58.8137 137.027 58.4863C137.384 57.9081 137.089 57.5806 136.209 57.5806H135.411L135.397 58.6031C135.383 59.6008 135.377 59.6129 135.152 59.0972C134.557 57.7324 136.06 56.6195 137.092 57.6615ZM136.556 58.1141C136.616 58.2119 136.501 58.2919 136.302 58.2919C136.103 58.2919 135.939 58.2119 135.939 58.1141C135.939 58.0163 136.054 57.9362 136.193 57.9362C136.333 57.9362 136.496 58.0163 136.556 58.1141ZM136.38 59.359C136.646 59.8788 136.642 59.8925 136.239 59.8925C135.879 59.8925 135.835 59.8228 135.902 59.359C135.945 59.0655 136.008 58.8254 136.043 58.8254C136.078 58.8254 136.23 59.0655 136.38 59.359ZM81.3592 62.5615C82.7082 62.8198 84.13 63.5228 84.3672 64.0485C84.6549 64.6862 84.4209 65.3627 83.7686 65.7785C83.2696 66.0967 82.9886 66.1308 81.4402 66.0622C78.1387 65.916 76.0142 64.6421 76.8706 63.3222C77.4395 62.4452 79.197 62.1473 81.3592 62.5615Z" fill="#141E30"/>
</svg>
