<?xml version="1.0" encoding="UTF-8" standalone="no"?>
<!DOCTYPE svg PUBLIC "-//W3C//DTD SVG 1.1//EN" "http://www.w3.org/Graphics/SVG/1.1/DTD/svg11.dtd">
<svg width="100%" height="100%" viewBox="0 0 89 118" version="1.1" xmlns="http://www.w3.org/2000/svg" xmlns:xlink="http://www.w3.org/1999/xlink" xml:space="preserve" xmlns:serif="http://www.serif.com/" style="fill-rule:evenodd;clip-rule:evenodd;stroke-linecap:square;stroke-linejoin:round;stroke-miterlimit:1.5;">
    <g transform="matrix(0.465195,0,0,0.69707,-456.852,-440.248)">
        <g id="Artboard4">
            <rect x="981.602" y="632.952" width="190.265" height="168.131" style="fill:none;"/>
            <g transform="matrix(2.71458,0,0,1.93389,-1844.77,-668.658)">
                <g transform="matrix(0.894787,0,0,0.842438,-1374.4,120.266)">
                    <path d="M2700.8,678.097L2738.91,656.523L2777.3,679.176L2738.78,700.905L2700.8,678.097Z" style="stroke:rgb(153,153,153);stroke-width:1.25px;"/>
                </g>
                <g transform="matrix(0.894787,0,0,0.86981,-1374.4,101.609)">
                    <path d="M2700.6,732.688L2700.65,678.239L2738.51,700.255L2738.1,756.126" style="stroke:rgb(153,153,153);stroke-width:1.25px;"/>
                </g>
                <g transform="matrix(0.894787,0,0,0.878965,-1374.4,95.3596)">
                    <path d="M2738.05,755.701L2738.51,700.172L2777.34,679.24L2777.22,732.833" style="stroke:rgb(153,153,153);stroke-width:1.25px;"/>
                </g>
            </g>
        </g>
    </g>
</svg>
