<?xml version="1.0" encoding="UTF-8" standalone="no"?>
<!DOCTYPE svg PUBLIC "-//W3C//DTD SVG 1.1//EN" "http://www.w3.org/Graphics/SVG/1.1/DTD/svg11.dtd">
<svg width="100%" height="100%" viewBox="0 0 41 43" version="1.1" xmlns="http://www.w3.org/2000/svg" xmlns:xlink="http://www.w3.org/1999/xlink" xml:space="preserve" xmlns:serif="http://www.serif.com/" style="fill-rule:evenodd;clip-rule:evenodd;stroke-linejoin:round;stroke-miterlimit:2;">
    <g transform="matrix(1,0,0,1,-2738,-544)">
        <g id="Artboard7" transform="matrix(0.878747,0,0,0.872286,333.96,72.3655)">
            <rect x="2735.76" y="540.825" width="46.305" height="48.57" style="fill:none;"/>
            <clipPath id="_clip1">
                <rect x="2735.76" y="540.825" width="46.305" height="48.57"/>
            </clipPath>
            <g clip-path="url(#_clip1)">
                <g transform="matrix(1.00449,0,0,0.824972,996.645,9.59265)">
                    <ellipse cx="1755.29" cy="672.496" rx="22.658" ry="27.793"/>
                </g>
                <g transform="matrix(2.68312,-2.00879e-16,-4.41596e-16,2.44107,-986.64,-896.33)">
                    <g transform="matrix(1,0,0,1,1384.13,587.039)">
                        <path d="M19.326,5.778L18.91,6.056L19.326,5.778ZM19.326,16.222L18.91,15.945L19.326,16.222ZM18.222,17.326L17.945,16.91L18.222,17.326ZM14,17.999L13.998,17.499C13.723,17.5 13.5,17.723 13.5,17.999L14,17.999ZM14,18L14.447,18.224C14.482,18.154 14.5,18.078 14.5,18L14,18ZM10,18L9.5,18C9.5,18.078 9.518,18.154 9.553,18.224L10,18ZM10,17.999L10.5,17.999C10.5,17.723 10.278,17.5 10.002,17.499L10,17.999ZM5.778,17.326L6.056,16.91L5.778,17.326ZM4.674,16.222L5.09,15.945L4.674,16.222ZM4.674,5.778L5.09,6.056L4.674,5.778ZM5.778,4.674L6.056,5.09L5.778,4.674ZM18.222,4.674L17.945,5.09L18.222,4.674ZM20.5,11C20.5,9.606 20.501,8.523 20.413,7.663C20.325,6.795 20.143,6.1 19.742,5.5L18.91,6.056C19.183,6.464 19.338,6.976 19.418,7.764C19.499,8.562 19.5,9.585 19.5,11L20.5,11ZM19.742,16.5C20.143,15.9 20.325,15.205 20.413,14.337C20.501,13.477 20.5,12.394 20.5,11L19.5,11C19.5,12.415 19.499,13.438 19.418,14.236C19.338,15.024 19.183,15.536 18.91,15.945L19.742,16.5ZM18.5,17.742C18.991,17.413 19.413,16.991 19.742,16.5L18.91,15.945C18.655,16.327 18.327,16.655 17.945,16.91L18.5,17.742ZM14.002,18.499C15.079,18.494 15.945,18.473 16.658,18.375C17.379,18.275 17.976,18.092 18.5,17.742L17.945,16.91C17.588,17.149 17.152,17.297 16.521,17.384C15.883,17.473 15.079,17.494 13.998,17.499L14.002,18.499ZM14.5,18L14.5,17.999L13.5,17.999L13.5,18L14.5,18ZM13.342,20.435L14.447,18.224L13.553,17.776L12.447,19.988L13.342,20.435ZM10.658,20.435C11.211,21.54 12.789,21.54 13.342,20.435L12.447,19.988C12.263,20.356 11.737,20.356 11.553,19.988L10.658,20.435ZM9.553,18.224L10.658,20.435L11.553,19.988L10.447,17.776L9.553,18.224ZM9.5,17.999L9.5,18L10.5,18L10.5,17.999L9.5,17.999ZM5.5,17.742C6.024,18.092 6.621,18.275 7.342,18.375C8.055,18.473 8.921,18.494 9.998,18.499L10.002,17.499C8.921,17.494 8.117,17.473 7.479,17.384C6.848,17.297 6.413,17.149 6.056,16.91L5.5,17.742ZM4.258,16.5C4.587,16.991 5.009,17.413 5.5,17.742L6.056,16.91C5.673,16.655 5.345,16.327 5.09,15.945L4.258,16.5ZM3.5,11C3.5,12.394 3.499,13.477 3.587,14.337C3.675,15.205 3.857,15.9 4.258,16.5L5.09,15.945C4.817,15.536 4.662,15.024 4.582,14.236C4.501,13.438 4.5,12.415 4.5,11L3.5,11ZM4.258,5.5C3.857,6.1 3.675,6.795 3.587,7.663C3.499,8.523 3.5,9.606 3.5,11L4.5,11C4.5,9.585 4.501,8.562 4.582,7.764C4.662,6.976 4.817,6.464 5.09,6.056L4.258,5.5ZM5.5,4.258C5.009,4.587 4.587,5.009 4.258,5.5L5.09,6.056C5.345,5.673 5.673,5.345 6.056,5.09L5.5,4.258ZM11,3.5C9.606,3.5 8.523,3.499 7.663,3.587C6.795,3.675 6.1,3.857 5.5,4.258L6.056,5.09C6.464,4.817 6.976,4.662 7.764,4.582C8.562,4.501 9.585,4.5 11,4.5L11,3.5ZM13,3.5L11,3.5L11,4.5L13,4.5L13,3.5ZM18.5,4.258C17.9,3.857 17.205,3.675 16.337,3.587C15.477,3.499 14.394,3.5 13,3.5L13,4.5C14.415,4.5 15.438,4.501 16.235,4.582C17.024,4.662 17.536,4.817 17.945,5.09L18.5,4.258ZM19.742,5.5C19.413,5.009 18.991,4.587 18.5,4.258L17.945,5.09C18.327,5.345 18.655,5.673 18.91,6.056L19.742,5.5Z" style="fill:rgb(3,111,255);fill-rule:nonzero;"/>
                    </g>
                    <g transform="matrix(1,0,0,1,1384.13,587.039)">
                        <circle cx="16" cy="11" r="1" style="fill:rgb(3,111,255);"/>
                    </g>
                    <g transform="matrix(1,0,0,1,1384.13,587.039)">
                        <circle cx="12" cy="11" r="1" style="fill:rgb(3,111,255);"/>
                    </g>
                    <g transform="matrix(1,0,0,1,1384.13,587.039)">
                        <circle cx="8" cy="11" r="1" style="fill:rgb(3,111,255);"/>
                    </g>
                </g>
            </g>
        </g>
    </g>
</svg>
