<svg width="137" height="32" viewBox="0 0 137 32" fill="none" xmlns="http://www.w3.org/2000/svg">
<path d="M12.028 31.42C10.656 31.42 9.396 31.14 8.248 30.58C7.1 29.992 6.162 29.222 5.434 28.27C4.706 27.29 4.286 26.198 4.174 24.994V16.384C4.286 15.18 4.706 14.116 5.434 13.192C6.162 12.24 7.1 11.498 8.248 10.966C9.396 10.434 10.656 10.168 12.028 10.168C13.96 10.168 15.668 10.63 17.152 11.554C18.664 12.478 19.84 13.738 20.68 15.334C21.548 16.93 21.982 18.75 21.982 20.794C21.982 22.838 21.548 24.658 20.68 26.254C19.84 27.85 18.664 29.11 17.152 30.034C15.668 30.958 13.96 31.42 12.028 31.42ZM10.894 25.624C11.79 25.624 12.574 25.414 13.246 24.994C13.946 24.574 14.492 24 14.884 23.272C15.276 22.544 15.472 21.718 15.472 20.794C15.472 19.842 15.276 19.002 14.884 18.274C14.492 17.546 13.946 16.986 13.246 16.594C12.574 16.174 11.79 15.964 10.894 15.964C9.998 15.964 9.2 16.174 8.5 16.594C7.8 16.986 7.254 17.546 6.862 18.274C6.498 19.002 6.316 19.842 6.316 20.794C6.316 21.746 6.512 22.586 6.904 23.314C7.296 24.042 7.828 24.616 8.5 25.036C9.2 25.428 9.998 25.624 10.894 25.624ZM0.268 31V0.508H6.694V15.586L5.644 20.542L6.61 25.498V31H0.268ZM35.0745 31.462C32.9745 31.462 31.0705 31 29.3625 30.076C27.6825 29.124 26.3525 27.836 25.3725 26.212C24.3925 24.588 23.9025 22.768 23.9025 20.752C23.9025 18.736 24.3925 16.93 25.3725 15.334C26.3525 13.738 27.6825 12.478 29.3625 11.554C31.0425 10.602 32.9465 10.126 35.0745 10.126C37.2025 10.126 39.1065 10.588 40.7865 11.512C42.4665 12.436 43.7965 13.71 44.7765 15.334C45.7565 16.93 46.2465 18.736 46.2465 20.752C46.2465 22.768 45.7565 24.588 44.7765 26.212C43.7965 27.836 42.4665 29.124 40.7865 30.076C39.1065 31 37.2025 31.462 35.0745 31.462ZM35.0745 25.624C35.9985 25.624 36.8105 25.428 37.5105 25.036C38.2105 24.616 38.7425 24.042 39.1065 23.314C39.4985 22.558 39.6945 21.704 39.6945 20.752C39.6945 19.8 39.4985 18.974 39.1065 18.274C38.7145 17.546 38.1685 16.986 37.4685 16.594C36.7965 16.174 35.9985 15.964 35.0745 15.964C34.1785 15.964 33.3805 16.174 32.6805 16.594C31.9805 16.986 31.4345 17.546 31.0425 18.274C30.6505 19.002 30.4545 19.842 30.4545 20.794C30.4545 21.718 30.6505 22.558 31.0425 23.314C31.4345 24.042 31.9805 24.616 32.6805 25.036C33.3805 25.428 34.1785 25.624 35.0745 25.624ZM62.9277 31V19.366C62.9277 18.302 62.5917 17.448 61.9197 16.804C61.2757 16.132 60.4497 15.796 59.4417 15.796C58.7417 15.796 58.1257 15.95 57.5937 16.258C57.0617 16.538 56.6417 16.958 56.3337 17.518C56.0257 18.05 55.8717 18.666 55.8717 19.366L53.3937 18.148C53.3937 16.552 53.7437 15.152 54.4437 13.948C55.1437 12.744 56.1097 11.82 57.3417 11.176C58.6017 10.504 60.0157 10.168 61.5837 10.168C63.0957 10.168 64.4257 10.532 65.5737 11.26C66.7497 11.96 67.6737 12.898 68.3457 14.074C69.0177 15.25 69.3537 16.538 69.3537 17.938V31H62.9277ZM49.4457 31V10.588H55.8717V31H49.4457ZM80.9149 31.504C79.7109 31.504 78.5209 31.35 77.3449 31.042C76.1969 30.734 75.1189 30.3 74.1109 29.74C73.1309 29.152 72.2909 28.48 71.5909 27.724L75.2449 24.028C75.9169 24.756 76.7149 25.33 77.6389 25.75C78.5629 26.142 79.5709 26.338 80.6629 26.338C81.4189 26.338 81.9929 26.226 82.3849 26.002C82.8049 25.778 83.0149 25.47 83.0149 25.078C83.0149 24.574 82.7629 24.196 82.2589 23.944C81.7829 23.664 81.1669 23.426 80.4109 23.23C79.6549 23.006 78.8569 22.768 78.0169 22.516C77.1769 22.264 76.3789 21.914 75.6229 21.466C74.8669 21.018 74.2509 20.402 73.7749 19.618C73.2989 18.806 73.0609 17.784 73.0609 16.552C73.0609 15.236 73.3969 14.102 74.0689 13.15C74.7409 12.17 75.6929 11.4 76.9249 10.84C78.1569 10.28 79.5989 10 81.2509 10C82.9869 10 84.5829 10.308 86.0389 10.924C87.5229 11.512 88.7269 12.394 89.6509 13.57L85.9969 17.266C85.3529 16.51 84.6249 15.978 83.8129 15.67C83.0289 15.362 82.2589 15.208 81.5029 15.208C80.7749 15.208 80.2289 15.32 79.8649 15.544C79.5009 15.74 79.3189 16.034 79.3189 16.426C79.3189 16.846 79.5569 17.182 80.0329 17.434C80.5089 17.686 81.1249 17.91 81.8809 18.106C82.6369 18.302 83.4349 18.54 84.2749 18.82C85.1149 19.1 85.9129 19.478 86.6689 19.954C87.4249 20.43 88.0409 21.074 88.5169 21.886C88.9929 22.67 89.2309 23.706 89.2309 24.994C89.2309 26.982 88.4749 28.564 86.9629 29.74C85.4789 30.916 83.4629 31.504 80.9149 31.504ZM101.243 31.42C99.3672 31.42 97.6872 30.958 96.2032 30.034C94.7472 29.11 93.5852 27.85 92.7172 26.254C91.8772 24.658 91.4572 22.838 91.4572 20.794C91.4572 18.75 91.8772 16.93 92.7172 15.334C93.5852 13.738 94.7472 12.478 96.2032 11.554C97.6872 10.63 99.3672 10.168 101.243 10.168C102.615 10.168 103.847 10.434 104.939 10.966C106.059 11.498 106.969 12.24 107.669 13.192C108.369 14.116 108.761 15.18 108.845 16.384V25.204C108.761 26.408 108.369 27.486 107.669 28.438C106.997 29.362 106.101 30.09 104.981 30.622C103.861 31.154 102.615 31.42 101.243 31.42ZM102.545 25.624C103.917 25.624 105.023 25.176 105.863 24.28C106.703 23.356 107.123 22.194 107.123 20.794C107.123 19.842 106.927 19.002 106.535 18.274C106.171 17.546 105.639 16.986 104.939 16.594C104.267 16.174 103.483 15.964 102.587 15.964C101.691 15.964 100.893 16.174 100.193 16.594C99.5212 16.986 98.9752 17.546 98.5552 18.274C98.1632 19.002 97.9672 19.842 97.9672 20.794C97.9672 21.718 98.1632 22.544 98.5552 23.272C98.9472 24 99.4932 24.574 100.193 24.994C100.893 25.414 101.677 25.624 102.545 25.624ZM106.871 31V25.498L107.837 20.542L106.871 15.586V10.588H113.171V31H106.871ZM117.696 31V10.588H124.122V31H117.696ZM120.93 7.774C119.922 7.774 119.082 7.438 118.41 6.766C117.766 6.066 117.444 5.226 117.444 4.246C117.444 3.238 117.766 2.398 118.41 1.726C119.082 1.054 119.922 0.717999 120.93 0.717999C121.938 0.717999 122.764 1.054 123.408 1.726C124.052 2.398 124.374 3.238 124.374 4.246C124.374 5.226 124.052 6.066 123.408 6.766C122.764 7.438 121.938 7.774 120.93 7.774ZM132.679 31.462C131.587 31.462 130.677 31.084 129.949 30.328C129.221 29.572 128.857 28.662 128.857 27.598C128.857 26.478 129.221 25.554 129.949 24.826C130.677 24.07 131.587 23.692 132.679 23.692C133.799 23.692 134.709 24.07 135.409 24.826C136.137 25.554 136.501 26.478 136.501 27.598C136.501 28.662 136.137 29.572 135.409 30.328C134.709 31.084 133.799 31.462 132.679 31.462Z" fill="#141E30"/>
</svg>
