<svg width="134" height="33" viewBox="0 0 134 33" fill="none" xmlns="http://www.w3.org/2000/svg">
<path d="M22.215 22.0401C22.215 15.9601 18.135 11.5201 12.615 11.5201C10.495 11.5201 8.81499 12.1201 7.49499 13.3601V2.00009H0.61499V32.0001H6.89499V29.9201C8.13499 31.6401 10.055 32.4801 12.615 32.4801C18.215 32.4801 22.215 28.1201 22.215 22.0401ZM15.175 22.0001C15.175 24.6801 13.455 26.2401 11.255 26.2401C9.13499 26.2401 7.37499 24.7601 7.37499 22.0401C7.37499 19.3201 9.13499 17.7601 11.255 17.7601C13.375 17.7601 15.175 19.3201 15.175 22.0001Z" fill="black"/>
<path d="M24.6931 22.0001C24.5731 27.7201 29.6131 32.6001 35.5731 32.4801C41.5331 32.6001 46.6131 27.7201 46.4931 22.0001C46.6131 16.2801 41.5331 11.4001 35.5731 11.5201C29.6131 11.4001 24.5731 16.2801 24.6931 22.0001ZM39.4531 22.0001C39.4531 24.4001 37.8531 26.1601 35.6131 26.1601C33.3331 26.1601 31.7331 24.5201 31.7331 22.0001C31.7331 19.5601 33.3331 17.8401 35.6131 17.8401C37.8131 17.8401 39.4531 19.6001 39.4531 22.0001Z" fill="black"/>
<path d="M69.55 19.6801C69.55 14.7201 66.55 11.5201 61.91 11.5201C59.63 11.5201 57.75 12.2401 56.27 13.6401V12.0001H49.99V32.0001H56.87V20.6801C56.87 18.9201 58.03 17.7201 59.75 17.7201C61.47 17.7201 62.67 18.9201 62.67 20.6801V32.0001H69.55V19.6801Z" fill="black"/>
<path d="M72.0572 28.6401C73.9372 31.0801 77.0972 32.4801 80.6572 32.4801C83.0972 32.4801 85.0572 31.8801 86.6172 30.7201C88.1772 29.5201 88.9372 27.8801 88.9372 25.8401C88.9372 22.6801 87.0972 21.1601 83.0972 19.5601L81.0972 18.7601C80.1372 18.4001 79.7372 18.1201 79.7372 17.6801C79.7372 17.1601 80.2172 16.9201 81.1372 16.9201C82.6172 16.9201 84.0172 17.4801 85.3772 18.6401L88.6172 14.4401C86.7372 12.4801 84.2572 11.5201 81.0972 11.5201C76.4172 11.5201 73.3372 13.8401 73.3372 17.8001C73.3372 20.9601 75.1772 22.6401 79.1372 24.2401L81.3772 25.1601C82.2172 25.5201 82.5372 25.7201 82.5372 26.1601C82.5372 26.7601 81.9372 27.0401 80.7772 27.0401C78.8172 27.0401 76.9772 26.2001 75.2572 24.5601L72.0572 28.6401Z" fill="black"/>
<path d="M109.979 20.4001C109.979 14.6401 106.499 11.5201 100.899 11.5201C97.2594 11.5201 94.5394 12.8001 91.8594 15.5201L95.0594 19.8801C96.9794 18.1601 98.2594 17.4401 100.059 17.4401C102.139 17.4401 103.099 18.4401 103.099 20.0001V20.3201H98.8994C94.0594 20.3201 91.0594 22.5601 91.0594 26.2801C91.0594 29.6401 93.5794 32.4801 97.9394 32.4801C100.299 32.4801 102.219 31.7601 103.699 30.3601V32.0001H109.979V20.4001ZM103.099 24.6801C103.099 26.4801 101.819 27.6001 100.059 27.6001C98.7794 27.6001 98.0194 27.0001 98.0194 26.0401C98.0194 25.0801 98.6994 24.5201 99.8594 24.5201H103.099V24.6801Z" fill="black"/>
<path d="M114.287 32.0001H121.167V12.0001H114.287V32.0001ZM113.487 4.92009C113.487 7.20009 115.327 8.96009 117.687 8.96009C120.047 8.96009 121.927 7.16009 121.927 4.92009C121.927 2.64009 120.047 0.840088 117.687 0.840088C115.327 0.840088 113.487 2.64009 113.487 4.92009Z" fill="black"/>
<path d="M124.534 28.0001C124.534 30.5601 126.414 32.4801 129.094 32.4801C131.654 32.4801 133.534 30.5601 133.534 28.0001C133.534 25.4801 131.654 23.5201 129.094 23.5201C126.414 23.5201 124.534 25.4801 124.534 28.0001Z" fill="black"/>
</svg>
