<svg width="310" height="249" viewBox="0 0 310 249" fill="none" xmlns="http://www.w3.org/2000/svg">
<path d="M172 219.2L228 114.4L260.8 104.8C257.6 112.267 253.6 118.4 248.8 123.2C244 127.467 238.4 129.6 232 129.6C218.133 129.6 205.333 124 193.6 112.8C181.867 101.067 176 86.4 176 68.8C176 49.6 182.4 33.3334 195.2 20C208.533 6.66668 224.533 0 243.2 0C260.8 0 276.267 6.66668 289.6 20C302.933 33.3334 309.6 49.6 309.6 68.8C309.6 76.2667 308 85.3333 304.8 96C302.133 106.133 296.533 119.2 288 135.2L225.6 248.8L172 219.2ZM0 219.2L56 114.4L89.6 104.8C85.8667 112.267 81.6 118.4 76.8 123.2C72 127.467 66.4 129.6 60 129.6C46.1333 129.6 33.3333 124 21.6 112.8C10.4 101.067 4.8 86.4 4.8 68.8C4.8 49.6 11.2 33.3334 24 20C36.8 6.66668 52.5333 0 71.2 0C89.3333 0 105.067 6.66668 118.4 20C131.733 33.3334 138.4 49.6 138.4 68.8C138.4 76.2667 136.8 85.3333 133.6 96C130.4 106.133 124.533 119.2 116 135.2L54.4 248.8L0 219.2Z" fill="#F2F4F8"/>
</svg>
