<svg width="173" height="120" viewBox="0 0 173 120" fill="none" xmlns="http://www.w3.org/2000/svg">
<path fill-rule="evenodd" clip-rule="evenodd" d="M172.76 66.3785C172.911 67.8674 172.98 69.3779 172.98 70.9046C172.98 97.4747 152.256 119.049 126.721 119.068V94.9851C139.481 94.9653 149.832 84.1829 149.832 70.9046C149.832 69.9372 149.777 68.9834 149.667 68.0476H103.174V0.117676H172.76V66.3785Z" fill="black" fill-opacity="0.1"/>
<path fill-rule="evenodd" clip-rule="evenodd" d="M70.2312 66.3785C70.3823 67.8674 70.4512 69.3779 70.4512 70.9046C70.4512 97.4747 49.7276 119.049 24.1925 119.068V94.9851C36.9518 94.9653 47.3035 84.1829 47.3035 70.9046C47.3035 69.9372 47.2485 68.9834 47.1385 68.0476H0.64502V0.117676H70.2312V66.3785Z" fill="black" fill-opacity="0.1"/>
</svg>
