<svg width="283" height="32" viewBox="0 0 283 32" fill="none" xmlns="http://www.w3.org/2000/svg">
<path fill-rule="evenodd" clip-rule="evenodd" d="M25.2459 1.35227V2.70455H26.6965H28.1471V15.7765V28.8485H26.6965H25.2459V30.0881V31.3277H31.2714H37.2968V30.0881V28.8485H35.9578H34.6188V14.4243V0H29.9324H25.2459V1.35227ZM129.808 0.224027C129.2 0.335364 128.15 0.711972 127.475 1.06086C126.743 1.43859 125.953 2.08363 125.521 2.65632C125.121 3.18483 124.685 3.99529 124.55 4.45687C124.415 4.91867 124.246 6.33585 124.174 7.60654L124.043 9.91667H122.736H121.429V11.2689V12.6212H122.768H124.107V20.7349V28.8485H122.768H121.429V30.0881V31.3277H127.901H134.373V30.0881V28.8485H132.588H130.802V20.7349V12.6212H133.146H135.489V11.2689V9.91667H133.146H130.802V7.63268C130.802 6.37642 130.917 4.96014 131.059 4.48549C131.199 4.01062 131.559 3.39038 131.857 3.10707C132.251 2.73385 132.667 2.59186 133.369 2.59186C134.09 2.59186 134.486 2.73317 134.921 3.14652C135.243 3.45145 135.614 4.13593 135.747 4.66782L135.988 5.63447H137.077H138.167V3.18641V0.738341L136.884 0.475775C136.178 0.331307 134.546 0.169936 133.257 0.117422C131.968 0.0646837 130.416 0.11269 129.808 0.224027ZM140.655 0.382243C140.243 0.586887 139.641 1.16048 139.316 1.65676C138.839 2.38473 138.725 2.82332 138.726 3.92768C138.727 4.88757 138.86 5.52494 139.172 6.06157C139.417 6.48257 139.901 7.04039 140.247 7.30115C140.715 7.65297 141.205 7.77557 142.144 7.77557C143.097 7.77557 143.584 7.65116 144.109 7.27298C144.493 6.99644 144.983 6.39558 145.198 5.93761C145.426 5.45124 145.585 4.60246 145.578 3.8977C145.572 3.16838 145.399 2.3622 145.141 1.86118C144.873 1.33965 144.357 0.840663 143.749 0.516118C143.218 0.23214 142.472 0.00225374 142.093 0.00518366C141.713 0.00788821 141.066 0.177599 140.655 0.382243ZM160.26 1.35227V2.70455H161.599H162.938V7.48889V12.2732L162.228 11.4039C161.838 10.9259 161.01 10.2951 160.387 10.0025C159.489 9.57996 158.878 9.46997 157.422 9.46817C156.314 9.46682 155.167 9.61038 154.521 9.83148C153.934 10.0323 153.021 10.5103 152.492 10.8932C151.963 11.2764 151.133 12.1898 150.648 12.9237C150.163 13.6573 149.545 14.9796 149.273 15.8622C148.866 17.186 148.781 17.9992 148.783 20.5095C148.785 22.7281 148.894 23.9445 149.183 25.0011C149.402 25.7978 149.816 26.9134 150.103 27.4802C150.389 28.0468 150.989 28.9373 151.434 29.4588C151.92 30.0275 152.842 30.7045 153.737 31.1492C155.108 31.8309 155.401 31.8911 157.354 31.8902C159.291 31.8893 159.585 31.8303 160.676 31.2206C161.334 30.8528 162.113 30.1958 162.405 29.7606L162.938 28.9693V30.1485V31.3277H167.513H172.088V30.0881V28.8485H170.749H169.41V14.4243V0H164.835H160.26V1.35227ZM241.157 0.303811C240.789 0.474648 240.315 0.809561 240.105 1.04801C239.895 1.28646 239.569 1.85487 239.38 2.31104C239.191 2.76743 239.037 3.52831 239.037 4.00183C239.037 4.47535 239.263 5.30948 239.539 5.85534C239.815 6.40099 240.31 7.04535 240.638 7.28673C240.966 7.52833 241.72 7.77152 242.312 7.82719C243.18 7.90877 243.535 7.82651 244.149 7.40122C244.567 7.11138 245.119 6.58783 245.376 6.23781C245.751 5.72755 245.843 5.27274 245.843 3.94413C245.843 2.62183 245.75 2.16116 245.383 1.66442C245.13 1.32207 244.664 0.847199 244.348 0.608974C244.033 0.370748 243.336 0.134777 242.8 0.0845171C242.25 0.0329053 241.535 0.128241 241.157 0.303811ZM270.949 1.35227V2.70455H272.4H273.85V15.7765V28.8485H272.4H270.949V30.0881V31.3277H276.975H283V30.0881V28.8485H281.661H280.322V14.4243V0H275.636H270.949V1.35227ZM59.2784 0.993245C58.4192 1.16296 57.1639 1.52311 56.4888 1.79379C55.8138 2.06447 54.7828 2.59479 54.1976 2.97185C53.6125 3.34913 52.5473 4.30429 51.8305 5.09447C51.1137 5.88442 50.2099 7.18193 49.8218 7.97774C49.434 8.77333 48.9028 10.2198 48.6413 11.1919C48.255 12.6275 48.166 13.5937 48.166 16.34C48.166 19.081 48.2554 20.0533 48.6388 21.4786C48.899 22.4457 49.4913 23.967 49.9548 24.8593C50.4612 25.8341 51.3771 27.0754 52.2485 27.968C53.2722 29.0164 54.192 29.6959 55.373 30.2758C56.2936 30.7279 57.6995 31.2641 58.4973 31.4676C59.367 31.6896 60.9307 31.8458 62.4027 31.8582C63.7939 31.8697 65.3893 31.7458 66.0849 31.572C66.7599 31.4034 67.8688 30.9844 68.5488 30.6409C69.229 30.2975 70.2147 29.583 70.7392 29.0532C71.2636 28.5235 71.9545 27.6391 72.2745 27.0876C72.5946 26.5363 73.0902 25.4345 73.3759 24.6393C73.6617 23.8442 73.8956 23.0459 73.8956 22.8658C73.8956 22.6051 73.5149 22.5379 72.0396 22.5379H70.1833L69.7867 23.8338C69.5687 24.5465 69.1572 25.5354 68.8722 26.0313C68.5874 26.5271 68.0195 27.2573 67.6102 27.6538C67.2009 28.0504 66.5145 28.5226 66.0849 28.7029C65.6553 28.8834 64.8387 29.1012 64.2703 29.1866C63.695 29.2733 62.6935 29.2285 62.0108 29.0854C61.3364 28.9438 60.3188 28.5298 59.7495 28.1652C59.1722 27.7955 58.4163 27.0274 58.0403 26.4286C57.6694 25.8383 57.1242 24.5823 56.8285 23.6377C56.5069 22.6093 56.1903 20.7917 56.0396 19.1085C55.8542 17.0384 55.8531 15.5895 56.0352 13.614C56.1711 12.1385 56.4377 10.3226 56.6274 9.57861C56.8173 8.83486 57.2835 7.63539 57.6636 6.91327C58.0436 6.19116 58.7604 5.2493 59.2567 4.82018C59.7577 4.387 60.7002 3.88125 61.3757 3.68292C62.1838 3.44582 63.0927 3.36198 64.082 3.43342C65.1518 3.51073 65.9003 3.72191 66.7392 4.18303C67.3817 4.53598 68.1547 5.12196 68.4573 5.48505C68.7597 5.84836 69.2217 6.56281 69.4834 7.07329C69.7452 7.58355 70.127 8.60948 70.3315 9.35323L70.7035 10.7055L71.9648 10.7731L73.2261 10.8407V7.0449V3.24929L70.9387 2.41381C69.6807 1.95449 67.9985 1.42507 67.2007 1.23756C66.4029 1.05004 64.6455 0.849002 63.2953 0.790855C61.7091 0.722565 60.2878 0.794235 59.2784 0.993245ZM0.0284424 2.59186V3.83144H1.70217H3.3759V16.34V28.8485H1.70217H0.0284424V30.2008V31.5531H12.3024H24.5764V27.8343V24.1155H23.2375H21.8985V26.3693V28.6231H16.2078H10.5171V22.6506V16.678H13.8646H17.212V18.5938V20.5095H18.551H19.89V15.2131V9.91667H18.551H17.212V11.8324V13.7481H13.8646H10.5171V9.01516V4.2822H15.9846H21.4522V6.4233V8.5644H22.7911H24.1301V4.95834V1.35227H12.0793H0.0284424V2.59186ZM179.922 9.4844C179.383 9.59123 178.307 9.97933 177.529 10.3467C176.729 10.7247 175.679 11.4686 175.109 12.0607C174.556 12.6359 173.81 13.7328 173.453 14.498C173.096 15.2631 172.693 16.4267 172.557 17.0835C172.422 17.7405 172.312 19.3632 172.314 20.6896C172.316 22.0173 172.466 23.7365 172.647 24.5142C172.829 25.2913 173.229 26.4286 173.536 27.0414C173.844 27.6542 174.4 28.5057 174.771 28.9335C175.143 29.361 175.922 30.0157 176.501 30.3883C177.081 30.7608 178.158 31.2445 178.894 31.4634C179.799 31.7322 180.992 31.8611 182.576 31.8611C184.157 31.8611 185.346 31.7331 186.229 31.4676C186.95 31.2513 187.914 30.835 188.373 30.5427C188.831 30.2504 189.571 29.5803 190.018 29.0534C190.464 28.5264 191.019 27.5803 191.25 26.9506C191.48 26.3211 191.739 25.5776 191.824 25.2988C191.975 24.8043 191.938 24.7917 190.319 24.7917H188.659L188.522 25.6544C188.447 26.1291 188.08 26.9438 187.706 27.4649C187.332 27.9862 186.718 28.6022 186.34 28.8339C185.963 29.0655 185.218 29.3211 184.685 29.4018C184.152 29.4825 183.308 29.4374 182.809 29.3017C182.309 29.1661 181.559 28.7518 181.142 28.3815C180.713 28.0015 180.22 27.2443 180.01 26.6443C179.805 26.0592 179.582 24.6932 179.514 23.6084L179.39 21.6364H185.904H192.418L192.273 20.2278C192.193 19.4531 191.99 18.1187 191.82 17.2627C191.651 16.4067 191.22 15.0756 190.863 14.305C190.506 13.5342 189.834 12.4795 189.371 11.9611C188.907 11.4427 188.116 10.7751 187.613 10.4774C187.11 10.1799 186.047 9.78122 185.251 9.59168C184.455 9.40236 183.151 9.25676 182.353 9.26848C181.555 9.2802 180.462 9.37734 179.922 9.4844ZM225.318 9.46749C224.708 9.57793 223.754 9.84117 223.198 10.0526C222.643 10.264 221.777 10.7197 221.274 11.0652C220.771 11.4107 220.043 12.058 219.656 12.5036C219.268 12.9494 218.699 13.8157 218.392 14.4288C218.084 15.042 217.683 16.1245 217.5 16.8342C217.304 17.5906 217.167 19.127 217.167 20.5458C217.167 21.8771 217.278 23.5039 217.413 24.1608C217.549 24.8176 217.947 25.9711 218.299 26.7241C218.7 27.5841 219.396 28.5312 220.172 29.2722C220.851 29.9206 221.861 30.6542 222.416 30.9024C222.971 31.1505 224.101 31.4981 224.927 31.6748C225.752 31.8515 227.035 31.9977 227.776 32C228.517 32.002 229.722 31.8483 230.454 31.6581C231.185 31.4679 232.232 31.0347 232.78 30.6953C233.328 30.3561 234.098 29.6529 234.491 29.1327C234.884 28.6125 235.401 27.6513 235.639 26.9963C235.878 26.3416 236.139 25.5271 236.22 25.1861L236.367 24.5663H234.794C233.725 24.5663 233.196 24.6565 233.145 24.848C233.103 25.0031 232.903 25.7029 232.701 26.4036C232.432 27.3337 232.097 27.8927 231.458 28.4755C230.966 28.924 230.229 29.341 229.775 29.4271C229.33 29.5111 228.575 29.5273 228.098 29.4627C227.621 29.398 226.911 29.1156 226.521 28.8354C226.13 28.5539 225.582 27.8122 225.298 27.1787C225.015 26.5476 224.677 25.2379 224.546 24.2684C224.415 23.2985 224.311 21.5744 224.316 20.4369C224.32 19.2992 224.462 17.5847 224.631 16.6267C224.8 15.6688 225.173 14.4608 225.46 13.9422C225.747 13.4236 226.233 12.8135 226.54 12.5863C226.846 12.3591 227.549 12.092 228.102 11.9926C228.654 11.8932 229.489 11.8777 229.957 11.9582C230.425 12.0384 231.078 12.3059 231.408 12.5525C231.737 12.799 232.232 13.3341 232.506 13.7416C232.781 14.1491 233.128 15.0781 233.276 15.8056L233.547 17.1288H234.618H235.689V14.0747V11.0206L234.906 10.6902C234.475 10.5083 233.312 10.1639 232.321 9.92501C231.33 9.68589 229.599 9.44 228.474 9.37847C227.348 9.31717 225.929 9.35706 225.318 9.46749ZM254.728 9.45239C254.092 9.55472 252.862 9.85605 251.995 10.1222L250.418 10.6059V12.9658V15.3258H251.618C252.746 15.3258 252.825 15.2888 252.948 14.706C253.02 14.365 253.285 13.7506 253.538 13.3406C253.799 12.9169 254.405 12.4082 254.942 12.1623C255.461 11.9243 256.326 11.7274 256.864 11.7247C257.402 11.722 258.235 11.8387 258.716 11.9841C259.196 12.1294 259.876 12.5777 260.226 12.9805C260.601 13.4123 260.963 14.1867 261.108 14.8682C261.243 15.504 261.353 16.4247 261.353 16.9145V17.8049L258.842 17.8088C257.462 17.811 255.641 17.9604 254.798 18.141C253.954 18.3215 252.751 18.7614 252.126 19.1184C251.44 19.5097 250.705 20.1825 250.276 20.811C249.884 21.3851 249.455 22.3682 249.321 22.9961C249.188 23.624 249.079 24.6799 249.079 25.3425C249.079 26.0051 249.277 27.1917 249.518 27.9797C249.76 28.7674 250.248 29.7322 250.603 30.1237C250.958 30.5152 251.689 31.0696 252.228 31.3561C253.04 31.7877 253.55 31.8765 255.216 31.8771C256.791 31.8776 257.449 31.7742 258.268 31.3973C258.842 31.1332 259.771 30.4895 260.332 29.9668L261.353 29.0164V30.1722V31.3277H265.928H270.503V30.0881V28.8485H269.164H267.825V22.9174C267.825 19.6017 267.718 16.4006 267.582 15.658C267.448 14.9273 267.101 13.8567 266.811 13.2787C266.521 12.7006 265.812 11.8085 265.236 11.2964C264.537 10.6746 263.699 10.2097 262.715 9.89707C261.667 9.56418 260.468 9.40529 258.564 9.34759C257.091 9.30297 255.365 9.35007 254.728 9.45239ZM82.158 9.8272C81.4861 10.0095 80.5028 10.4152 79.9735 10.7287C79.4439 11.042 78.6718 11.5989 78.2578 11.966C77.8436 12.3332 77.1844 13.1382 76.7925 13.7547C76.4006 14.3713 75.8744 15.5095 75.6229 16.2841C75.2663 17.383 75.1623 18.3111 75.1498 20.5095C75.1377 22.6211 75.235 23.6655 75.5385 24.679C75.7613 25.4227 76.2065 26.5221 76.528 27.1219C76.8494 27.7218 77.6403 28.6998 78.2855 29.2954C78.9306 29.8909 79.9005 30.5941 80.4408 30.8582C80.9811 31.1224 82.1145 31.4866 82.9594 31.6673C83.8045 31.8481 85.0984 31.9959 85.8349 31.9959C86.5713 31.9959 87.8398 31.8535 88.6536 31.6793C89.4675 31.505 90.6605 31.0926 91.305 30.7629C91.9493 30.4331 92.9578 29.6775 93.5458 29.0834C94.1341 28.4895 94.9105 27.4077 95.2713 26.6792C95.632 25.951 96.0622 24.7973 96.2271 24.1155C96.3921 23.4338 96.5271 21.8618 96.5271 20.6222C96.5271 19.3826 96.3932 17.8106 96.2294 17.1288C96.0656 16.447 95.6683 15.3364 95.3465 14.6604C95.0247 13.9845 94.2593 12.9129 93.6456 12.2786C93.0319 11.6444 91.9663 10.8572 91.2774 10.5293C90.5887 10.2013 89.5845 9.83035 89.0457 9.70504C88.5072 9.57951 87.012 9.48124 85.7233 9.4862C84.3934 9.49161 82.8516 9.63901 82.158 9.8272ZM108.931 9.67642C108.623 9.77108 108.063 10.0093 107.687 10.2061C107.31 10.4026 106.633 10.9762 106.182 11.4804L105.362 12.3972V11.1569V9.91667H100.675H95.9888V11.2689V12.6212H97.4394H98.8899V20.7349V28.8485H97.4394H95.9888V30.0881V31.3277H101.791H107.593V29.9754V28.6231H106.462H105.331L105.402 22.2562C105.469 16.271 105.502 15.8254 105.96 14.8248C106.256 14.1772 106.737 13.5816 107.188 13.3041C107.613 13.0422 108.319 12.848 108.846 12.8475C109.435 12.8468 109.973 13.0123 110.345 13.3075C110.664 13.5613 111.029 14.1443 111.155 14.6034C111.288 15.0891 111.385 18.2435 111.386 22.1435L111.387 28.8485H110.271H109.155V30.2008V31.5531H114.958H120.76V30.2008V28.8485H119.443H118.126L118.03 22.0308C117.943 15.8268 117.891 15.0812 117.457 13.7481C117.194 12.9424 116.657 11.8896 116.263 11.4089C115.87 10.9282 115.038 10.2951 114.416 10.0025C113.492 9.56801 112.936 9.47358 111.387 9.48755C110.344 9.49702 109.238 9.58199 108.931 9.67642ZM205.063 9.69039C204.727 9.79249 204.101 10.0956 203.671 10.3638C203.241 10.6323 202.587 11.2223 202.217 11.6751L201.545 12.4986V11.2076V9.91667H196.97H192.395V11.2689V12.6212H193.734H195.073V20.7349V28.8485H193.734H192.395V30.0881V31.3277H198.086H203.777V29.9754V28.6231H202.643H201.508L201.584 22.3689C201.653 16.5658 201.692 16.0413 202.129 15.1004C202.389 14.5426 202.859 13.8462 203.175 13.5529C203.535 13.2187 204.127 12.9766 204.763 12.9043C205.494 12.8211 205.939 12.8962 206.358 13.1734C206.677 13.3848 207.1 13.9302 207.298 14.3855C207.594 15.0686 207.673 16.404 207.749 22.0308L207.842 28.8485H206.59H205.339V30.2008V31.5531H211.141H216.943V30.2008V28.8485H215.621H214.299L214.219 21.8054C214.142 15.0382 214.119 14.71 213.614 13.4283C213.326 12.6947 212.695 11.6627 212.214 11.1348C211.668 10.5371 210.949 10.0415 210.307 9.82066C209.677 9.60362 208.577 9.47335 207.475 9.4853C206.484 9.49589 205.399 9.5883 205.063 9.69039ZM136.605 11.2689V12.6212H137.944H139.283V20.7349V28.8485H137.944H136.605V30.0881V31.3277H142.518H148.432V30.0881V28.8485H147.093H145.754V19.3826V9.91667H141.179H136.605V11.2689ZM237.028 11.2689V12.6212H238.367H239.706V20.7349V28.8485H238.367H237.028V30.0881V31.3277H242.942H248.856V30.0881V28.8485H247.517H246.178V19.3826V9.91667H241.603H237.028V11.2689ZM87.7148 12.6052C88.0846 12.9541 88.5193 13.7353 88.7351 14.4385C88.9929 15.2782 89.1491 16.8345 89.2318 19.3835C89.3044 21.6229 89.2517 23.8586 89.0995 25.0015C88.9603 26.0459 88.6711 27.2612 88.4564 27.7022C88.2419 28.1435 87.715 28.743 87.2854 29.0344C86.6711 29.4514 86.2984 29.5415 85.5389 29.4577C84.8806 29.3847 84.3642 29.1483 83.9156 28.7144C83.5539 28.3644 83.0978 27.5668 82.9018 26.9418C82.6543 26.153 82.5117 24.5668 82.4347 21.7491C82.3665 19.2519 82.4216 17.0569 82.578 16.0395C82.7177 15.1306 83.0232 14.0082 83.2571 13.5453C83.491 13.0826 83.8407 12.5707 84.0346 12.4085C84.2285 12.246 84.7126 12.0458 85.1105 11.9636C85.5081 11.8813 86.112 11.8554 86.4521 11.9059C86.7922 11.9561 87.3606 12.271 87.7148 12.6052ZM183.255 12.0625C183.616 12.2509 184.108 12.7952 184.349 13.2719C184.589 13.7486 184.892 14.9861 185.02 16.0222C185.149 17.0583 185.254 18.1874 185.254 18.5316V19.1572H182.242C179.265 19.1572 179.229 19.1511 179.231 18.6501C179.232 18.3713 179.335 17.2395 179.46 16.1349C179.586 15.0305 179.853 13.7761 180.054 13.3474C180.256 12.9187 180.73 12.3776 181.108 12.1448C181.486 11.912 181.976 11.7211 182.197 11.7206C182.418 11.7202 182.894 11.8739 183.255 12.0625ZM160.929 13.2554C161.236 13.4772 161.738 14.1608 162.045 14.774C162.588 15.8581 162.603 16.0213 162.603 20.6222C162.603 24.6612 162.544 25.5111 162.197 26.4194C161.973 27.0045 161.488 27.7399 161.119 28.0534C160.602 28.4929 160.199 28.6231 159.358 28.6231C158.468 28.6231 158.129 28.5005 157.517 27.9578C157.076 27.5675 156.648 26.8938 156.48 26.3279C156.323 25.7976 156.105 24.329 155.996 23.0648C155.877 21.6781 155.883 19.7234 156.011 18.1378C156.161 16.2757 156.359 15.2255 156.69 14.5349C156.947 13.9987 157.383 13.4109 157.658 13.2288C157.933 13.0467 158.355 12.8437 158.596 12.7776C158.836 12.7116 159.334 12.7015 159.702 12.7546C160.07 12.8081 160.623 13.0334 160.929 13.2554ZM261.32 23.2704C261.251 25.6943 261.178 26.1349 260.718 26.8818C260.43 27.3497 259.908 27.8823 259.557 28.0651C259.207 28.2481 258.609 28.3977 258.229 28.3977C257.848 28.3977 257.254 28.2501 256.909 28.0696C256.563 27.8891 256.116 27.3921 255.916 26.965C255.688 26.4809 255.551 25.6073 255.551 24.645C255.551 23.6253 255.684 22.8352 255.942 22.317C256.156 21.8856 256.673 21.3024 257.09 21.0211C257.72 20.5963 258.15 20.5095 259.624 20.5095H261.399L261.32 23.2704Z" fill="#DDE1E6"/>
</svg>
