<?xml version="1.0" encoding="UTF-8" standalone="no"?>
<!DOCTYPE svg PUBLIC "-//W3C//DTD SVG 1.1//EN" "http://www.w3.org/Graphics/SVG/1.1/DTD/svg11.dtd">
<svg width="100%" height="100%" viewBox="0 0 183 40" version="1.1" xmlns="http://www.w3.org/2000/svg" xmlns:xlink="http://www.w3.org/1999/xlink" xml:space="preserve" xmlns:serif="http://www.serif.com/" style="fill-rule:evenodd;clip-rule:evenodd;stroke-linejoin:round;stroke-miterlimit:2;">
    <path d="M62.018,34.847L64.56,27.503L75.847,27.503L78.389,34.847L83.128,34.847L72.573,4.429L67.834,4.429L57.28,34.847L62.018,34.847ZM74.382,23.201L66.025,23.201L70.204,11.121L74.382,23.201ZM96.799,35.282C103.261,35.282 107.612,31.11 107.612,24.548L107.612,4.429L103.002,4.429L103.002,24.548C103.002,28.807 99.815,30.675 96.799,30.675C93.783,30.675 90.595,28.807 90.595,24.548L90.595,4.429L85.986,4.429L85.986,24.548C85.986,31.11 90.337,35.282 96.799,35.282ZM123.696,35.282C129.856,35.282 134.078,31.458 134.466,25.417L129.856,25.417C129.468,29.068 126.496,30.675 123.696,30.675C120.68,30.675 117.492,28.807 117.492,24.548L117.492,14.728C117.492,10.469 120.68,8.601 123.696,8.601C126.496,8.601 129.468,10.209 129.856,13.859L134.466,13.859C134.121,7.775 129.856,3.995 123.696,3.995C117.234,3.995 112.883,8.166 112.883,14.728L112.883,24.548C112.883,31.11 117.234,35.282 123.696,35.282ZM149.86,34.847L149.86,9.035L158.347,9.035L158.347,4.429L136.764,4.429L136.764,9.035L145.251,9.035L145.251,34.847L149.86,34.847ZM161.679,34.847L164.221,27.503L175.508,27.503L178.05,34.847L182.788,34.847L172.234,4.429L167.495,4.429L156.94,34.847L161.679,34.847ZM174.043,23.201L165.686,23.201L169.864,11.121L174.043,23.201Z" style="fill-rule:nonzero;"/>
    <path d="M35.71,0.215L35.254,0L23.906,0.011L13.647,0.006L11.095,0L0.976,20.22L11.095,40L35.255,40L35.708,39.789C38.949,38.276 41.712,35.645 43.675,32.259C45.725,28.721 46.828,24.493 46.828,20C46.828,15.433 45.759,11.213 43.728,7.708C41.793,4.371 39.036,1.78 35.71,0.215ZM34.23,4.566L34.565,4.746C36.701,5.933 38.498,7.73 39.82,10.012C41.435,12.797 42.302,16.221 42.302,20C42.302,23.694 41.407,27.126 39.768,29.954L39.537,30.34C38.206,32.501 36.474,34.2 34.509,35.288L34.231,35.434L13.851,35.433L6.057,20.197L13.877,4.57L18.053,4.576L34.23,4.566Z" style="fill-rule:nonzero;"/>
</svg>
