<svg width="109" height="40" viewBox="0 0 109 40" fill="none" xmlns="http://www.w3.org/2000/svg">
<path d="M2.3046 33.8066H3.15608V36.3849H6.42024V33.8066H7.24342V39.8225H6.42024V37.0724H3.15608V39.8225H2.3046V33.8066Z" fill="#DDE1E6"/>
<path d="M20.4422 37.6453C20.4422 39.1636 19.5338 39.9657 17.9727 39.9657C16.3832 39.9657 15.4182 39.2496 15.4182 37.6453V33.8066H16.2697V37.6453C16.2697 38.7053 16.8941 39.3069 17.9727 39.3069C19.0229 39.3069 19.619 38.7053 19.619 37.6453V33.8066H20.4422V37.6453Z" fill="#DDE1E6"/>
<path d="M30.7455 39.9946C28.8722 40.1092 27.7369 38.5049 27.7369 36.9293C27.7369 35.1819 28.7303 33.6636 30.7172 33.6636C32.0796 33.6636 33.1581 34.2365 33.3852 35.6689H32.5621C32.3918 34.7522 31.6254 34.3225 30.7172 34.3225C29.1844 34.3225 28.56 35.6116 28.56 36.9007C28.56 38.1612 29.3548 39.3643 30.8591 39.3357C31.6254 39.307 32.2499 39.1638 32.5621 38.6482C32.7892 38.333 32.7324 37.7601 32.704 37.3304H30.7172V36.6429H33.442C33.442 36.6429 33.442 38.2185 33.442 38.906C32.7324 39.794 31.8809 39.9373 30.7455 39.9946Z" fill="#DDE1E6"/>
<path d="M43.6321 39.307C45.1364 39.307 45.7893 38.0179 45.7893 36.8147C45.7893 35.6116 45.1364 34.3225 43.6321 34.3225C42.0994 34.3225 41.4749 35.6116 41.4749 36.8147C41.4749 38.0179 42.0994 39.307 43.6321 39.307ZM43.6321 33.6636C45.619 33.6636 46.6124 35.1819 46.6124 36.8147C46.6124 38.4476 45.619 39.9659 43.6321 39.9659C41.6452 39.9659 40.6517 38.4476 40.6517 36.8147C40.6517 35.1819 41.6452 33.6636 43.6321 33.6636Z" fill="#DDE1E6"/>
<path d="M63.3308 36.3849H64.9771C65.9138 36.3849 66.3112 36.0697 66.3112 35.4395C66.3112 34.6088 65.7151 34.4655 64.9771 34.4655H63.3308V36.3849ZM63.3308 39.1636H65.4028C66.1125 39.1636 66.5666 38.7339 66.5666 38.075C66.5666 37.3016 65.9138 37.0724 65.2042 37.0724H63.3308V39.1636ZM62.5077 33.8066H64.7501C65.3178 33.8066 66.0273 33.8066 66.3964 34.0072C66.8221 34.265 67.1343 34.6947 67.1343 35.2676C67.1343 35.9265 66.7937 36.4135 66.226 36.6427C66.9923 36.7859 67.4182 37.3589 67.4182 38.1037C67.4182 38.9918 66.7369 39.8225 65.5164 39.8225H62.5077V33.8066Z" fill="#DDE1E6"/>
<path d="M77.834 39.307C79.3668 39.307 79.9912 38.0179 79.9912 36.8147C79.9912 35.6116 79.3668 34.3225 77.834 34.3225C76.3297 34.3225 75.6769 35.6116 75.6769 36.8147C75.6769 38.0179 76.3297 39.307 77.834 39.307ZM77.834 33.6636C79.8209 33.6636 80.8427 35.1819 80.8427 36.8147C80.8427 38.4476 79.8209 39.9659 77.834 39.9659C75.8472 39.9659 74.8538 38.4476 74.8538 36.8147C74.8538 35.1819 75.8472 33.6636 77.834 33.6636Z" fill="#DDE1E6"/>
<path d="M92.2816 35.5829C92.1964 34.6949 91.6003 34.3225 90.7488 34.3225C90.0392 34.3225 89.358 34.5803 89.358 35.3538C89.358 36.0986 90.3514 36.2132 91.3448 36.4423C92.3383 36.6429 93.3318 36.9866 93.3318 38.1898C93.3318 39.4503 92.0261 39.9659 90.8907 39.9659C89.4999 39.9659 88.3362 39.307 88.3362 37.846H89.1026C89.1026 38.8487 89.9824 39.307 90.9191 39.307C91.6855 39.307 92.5086 39.0779 92.5086 38.1898C92.5086 37.359 91.5152 37.2445 90.5217 37.0153C89.5283 36.8147 88.5065 36.5283 88.5065 35.4111C88.5065 34.2079 89.6419 33.6636 90.7771 33.6636C92.0545 33.6636 93.0195 34.2365 93.0763 35.5829H92.2816Z" fill="#DDE1E6"/>
<path d="M105.736 35.5829C105.622 34.6949 105.026 34.3225 104.175 34.3225C103.494 34.3225 102.784 34.5803 102.784 35.3538C102.784 36.0986 103.777 36.2132 104.799 36.4423C105.793 36.6429 106.786 36.9866 106.786 38.1898C106.786 39.4503 105.48 39.9659 104.345 39.9659C102.954 39.9659 101.762 39.307 101.762 37.846H102.557C102.557 38.8487 103.437 39.307 104.373 39.307C105.111 39.307 105.963 39.0779 105.963 38.1898C105.963 37.359 104.941 37.2445 103.948 37.0153C102.954 36.8147 101.961 36.5283 101.961 35.4111C101.961 34.2079 103.068 33.6636 104.232 33.6636C105.48 33.6636 106.474 34.2365 106.502 35.5829H105.736Z" fill="#DDE1E6"/>
<path d="M9.62792 2.00852V12.8371H13.5165C13.5165 12.8371 13.8571 12.8085 14.0558 12.7512C16.3265 12.5506 17.7741 9.80052 17.916 7.79522C18.1431 5.6467 16.8374 2.09446 13.5733 2.00852C12.6082 1.97987 9.62792 2.00852 9.62792 2.00852ZM9.62792 14.0976V27.0747H13.1475C13.1475 27.0747 15.1344 27.2179 16.9226 25.7569C18.6824 24.3246 19.5907 22.2047 19.392 19.7697C19.2501 17.5925 17.6038 14.4986 13.9139 14.0976C11.9554 14.0976 9.62792 14.0976 9.62792 14.0976ZM17.916 0.748047C20.8396 0.919931 22.7413 2.49552 22.9116 2.69605C24.4159 4.09976 24.8701 6.21964 24.5011 8.25358C24.0186 11.6626 19.8178 13.0949 19.8178 13.0949C23.3373 13.5246 25.977 16.1888 26.3744 19.0535C26.715 21.8609 25.6932 24.3532 23.3941 26.1007C21.0666 27.8481 17.6606 28.4211 15.8156 28.4211C15.8156 28.4211 1.56687 28.4211 0.77217 28.4211C0.77217 27.9627 0.77217 27.619 0.77217 27.2179C2.70224 27.2466 2.92935 27.2466 2.92935 26.4731C2.90097 23.5511 2.92935 3.1544 2.92935 2.61011C2.92935 1.97987 2.61708 1.95123 0.77217 1.95123C0.743782 1.46423 0.800559 0.748047 0.800559 0.748047H17.916Z" fill="#DDE1E6"/>
<path d="M41.1343 2.23744C39.261 3.49792 37.9553 6.39128 37.3309 8.79763C36.3374 12.4358 36.5361 16.7329 37.5295 21.1445C38.5513 25.5561 41.3614 27.1031 43.036 27.4755C46.1583 28.1917 48.2019 26.3583 49.3089 24.6681C51.466 21.3737 52.0053 14.5843 51.3241 10.6883C50.6996 7.0788 49.7346 4.55786 47.8613 2.86769C45.7609 1.00563 42.7522 1.14886 41.1343 2.23744ZM57.966 19.3684C56.6603 23.293 54.049 25.7567 51.0403 27.3609C47.0949 29.5094 41.4465 29.8532 37.5011 27.4755C35.0602 26.0145 28.8441 22.1185 29.6672 12.9228C29.8375 10.9462 30.831 5.99022 36.3091 2.2661C40.0557 -0.197547 45.4486 -0.913723 50.4726 1.43534C58.3066 5.04486 59.9528 13.9541 57.966 19.3684Z" fill="#DDE1E6"/>
<path d="M80.9845 2.03673C81.0129 4.09933 80.9845 8.36773 80.9845 8.36773L79.9911 8.39638C79.395 5.73221 78.1177 3.44044 75.9322 2.3805C73.8318 1.3492 70.6528 0.833564 68.5807 2.66697C67.3603 3.75556 67.1899 4.87279 67.6157 6.13326C68.3537 7.99532 70.3973 8.56827 71.9868 9.28444C73.2925 9.80009 76.0741 10.7168 76.0741 10.7168C79.1679 11.8054 82.6024 13.9253 83.539 17.4488C83.9648 18.9671 83.9648 20.686 83.6242 22.2329C82.8578 25.6705 80.6723 26.5013 79.4234 27.3607C78.7989 27.7904 72.9518 30.0535 65.9127 27.7331C64.4651 27.2461 62.7904 26.6732 62.7904 26.6732V18.9671C62.7904 18.9671 63.5568 18.9958 63.869 18.9958C64.3515 20.2276 64.7773 21.7173 65.7992 23.2069C68.1834 26.7018 71.5611 27.7618 75.2794 26.9597C76.7553 26.6159 78.3732 25.5846 78.7989 24.0377C79.3382 22.2902 79.1679 19.3968 73.9453 17.4488C70.1702 15.7014 65.4301 14.9852 63.1878 10.7454C62.3079 8.36774 62.5634 4.24256 65.4585 2.23726C68.3821 0.231968 71.2204 -0.226381 74.6549 0.231968C78.061 0.718969 78.9693 1.17732 80.9845 2.03673Z" fill="#DDE1E6"/>
<path d="M105.849 2.03673C105.878 4.09933 105.849 8.36773 105.849 8.36773L104.856 8.39638C104.26 5.73221 102.982 3.44044 100.797 2.3805C98.6964 1.3492 95.5175 0.833564 93.4454 2.66697C92.2249 3.75556 92.0546 4.87279 92.4803 6.13326C93.2184 7.99532 95.262 8.56827 96.8515 9.28444C98.1572 9.80009 100.939 10.7168 100.939 10.7168C104.033 11.8054 107.467 13.9253 108.404 17.4488C108.829 18.9671 108.829 20.686 108.489 22.2329C107.722 25.6705 105.537 26.5013 104.288 27.3607C103.664 27.7904 97.8165 30.0535 90.7773 27.7331C89.3297 27.2461 87.6551 26.6732 87.6551 26.6732V18.9671C87.6551 18.9671 88.4215 18.9958 88.7336 18.9958C89.2162 20.2276 89.642 21.7173 90.6638 23.2069C93.048 26.7018 96.4257 27.7618 100.144 26.9597C101.62 26.6159 103.238 25.5846 103.664 24.0377C104.203 22.2902 104.033 19.3968 98.8099 17.4488C95.0349 15.7014 90.2948 14.9852 88.0525 10.7454C87.1725 8.36774 87.428 4.24256 90.3515 2.23726C93.2467 0.231968 96.0851 -0.226381 99.4912 0.231968C102.926 0.718969 103.834 1.17732 105.849 2.03673Z" fill="#DDE1E6"/>
</svg>
