<svg width="210" height="40" viewBox="0 0 210 40" fill="none" xmlns="http://www.w3.org/2000/svg">
<path fill-rule="evenodd" clip-rule="evenodd" d="M5.67568 2.85714V5.71429H8.51351H11.3514V2.85714V0H8.51351H5.67568V2.85714ZM34.0541 5.71429V11.4286H28.3784H22.7027V14.2857V17.1429H19.8649H17.027V25.7143V34.2857H19.8649H22.7027V37.1429V40H31.2162H39.7297V20V0H36.8919H34.0541V5.71429ZM102.162 2.85714V5.71429H105H107.838V22.8571V40H110.676H113.514V20V0H107.838H102.162V2.85714ZM124.865 2.85714V5.71429H127.703H130.541V2.85714V0H127.703H124.865V2.85714ZM170.27 5.71429V11.4286H167.432H164.595V14.2857V17.1429H167.432H170.27V25.7143V34.2857H173.108H175.946V37.1429V40H178.784H181.622V37.1429V34.2857H178.784H175.946V25.7143V17.1429H178.784H181.622V14.2857V11.4286H178.784H175.946V5.71429V0H173.108H170.27V5.71429ZM0 14.2857V17.1429H2.83784H5.67568V28.5714V40H8.51351H11.3514V25.7143V11.4286H5.67568H0V14.2857ZM51.0811 14.2857V17.1429H48.2432H45.4054V25.7143V34.2857H48.2432H51.0811V37.1429V40H56.7568H62.4324V37.1429V34.2857H56.7568H51.0811V31.4286V28.5714H59.5946H68.1081V22.8571V17.1429H65.2703H62.4324V14.2857V11.4286H56.7568H51.0811V14.2857ZM79.4595 14.2857V17.1429H85.1351H90.8108V20V22.8571H85.1351H79.4595V25.7143V28.5714H76.6216H73.7838V31.4286V34.2857H76.6216H79.4595V37.1429V40H87.973H96.4865V28.5714V17.1429H93.6487H90.8108V14.2857V11.4286H85.1351H79.4595V14.2857ZM119.189 14.2857V17.1429H122.027H124.865V28.5714V40H127.703H130.541V25.7143V11.4286H124.865H119.189V14.2857ZM141.892 14.2857V17.1429H139.054H136.216V20V22.8571H139.054H141.892V25.7143V28.5714H147.568H153.243V31.4286V34.2857H144.73H136.216V37.1429V40H144.73H153.243V37.1429V34.2857H156.081H158.919V31.4286V28.5714H156.081H153.243V25.7143V22.8571H147.568H141.892V20V17.1429H150.405H158.919V14.2857V11.4286H150.405H141.892V14.2857ZM192.973 14.2857V17.1429H198.649H204.324V20V22.8571H198.649H192.973V25.7143V28.5714H190.135H187.297V31.4286V34.2857H190.135H192.973V37.1429V40H201.486H210V28.5714V17.1429H207.162H204.324V14.2857V11.4286H198.649H192.973V14.2857ZM34.0541 25.7143V34.2857H28.3784H22.7027V25.7143V17.1429H28.3784H34.0541V25.7143ZM62.4324 20V22.8571H56.7568H51.0811V20V17.1429H56.7568H62.4324V20ZM90.8108 31.4286V34.2857H85.1351H79.4595V31.4286V28.5714H85.1351H90.8108V31.4286ZM204.324 31.4286V34.2857H198.649H192.973V31.4286V28.5714H198.649H204.324V31.4286Z" fill="#DDE1E6"/>
</svg>
