<?xml version="1.0" encoding="UTF-8" standalone="no"?>
<!DOCTYPE svg PUBLIC "-//W3C//DTD SVG 1.1//EN" "http://www.w3.org/Graphics/SVG/1.1/DTD/svg11.dtd">
<svg width="100%" height="100%" viewBox="0 0 37 39" version="1.1" xmlns="http://www.w3.org/2000/svg" xmlns:xlink="http://www.w3.org/1999/xlink" xml:space="preserve" xmlns:serif="http://www.serif.com/" style="fill-rule:evenodd;clip-rule:evenodd;stroke-linejoin:round;stroke-miterlimit:2;">
    <g transform="matrix(1,0,0,1,-190,-52)">
        <g id="icon-clock" transform="matrix(4.25974,0,0,2.77919,35.1921,44.0839)">
            <rect x="36.359" y="3.051" width="8.463" height="13.547" style="fill:none;"/>
            <g transform="matrix(0.234756,0,0,0.359817,-67.7315,30.7267)">
                <path d="M478.841,-58.091C478.841,-67.705 471.038,-75.507 461.424,-75.507C451.81,-75.507 444.007,-67.705 444.007,-58.091C444.007,-48.477 451.81,-40.674 461.424,-40.674C471.038,-40.674 478.841,-48.477 478.841,-58.091ZM477.341,-58.091C477.341,-49.305 470.21,-42.174 461.424,-42.174C452.638,-42.174 445.507,-49.305 445.507,-58.091C445.507,-66.877 452.638,-74.007 461.424,-74.007C470.21,-74.007 477.341,-66.877 477.341,-58.091ZM467.991,-53.435L462.823,-56.519C462.125,-56.933 461.557,-57.927 461.557,-58.741L461.557,-65.574C461.557,-65.988 461.221,-66.324 460.807,-66.324C460.393,-66.324 460.057,-65.988 460.057,-65.574L460.057,-58.741C460.057,-57.454 460.956,-55.882 462.058,-55.229C462.056,-55.23 467.223,-52.147 467.223,-52.147C467.578,-51.934 468.039,-52.051 468.251,-52.406C468.463,-52.762 468.347,-53.223 467.991,-53.435Z" />
            </g>
        </g>
    </g>
</svg>
