<svg xmlns="http://www.w3.org/2000/svg" xml:space="preserve" style="fill-rule:evenodd;clip-rule:evenodd;stroke-linejoin:round;stroke-miterlimit:2" viewBox="0 0 37 39"><path d="M36.359 3.051h8.463v13.547h-8.463z" style="fill:none" transform="matrix(4.25974 0 0 2.77919 -154.087 -7.849)"/><path d="M8.97 23.746h4.4v11.25c0 1.005.186 1.765.475 2.275.26.458.607.75 1.001.898.394.148.847.157 1.345-.016.553-.194 1.195-.641 1.858-1.394l12.617-14.334c1.037-1.171 1.21-2.282.858-3.06-.35-.778-1.299-1.385-2.87-1.385h-4.4V6.73c0-1.005-.187-1.765-.475-2.275-.26-.46-.607-.75-1.002-.898-.393-.148-.847-.158-1.345.016-.553.193-1.195.64-1.858 1.394L6.954 19.305c-1.026 1.18-1.193 2.289-.842 3.063.352.776 1.295 1.378 2.858 1.378Zm0-1.5c-.458 0-.836-.06-1.122-.187-.174-.077-.308-.172-.37-.31-.063-.138-.046-.303.01-.486.093-.301.296-.627.597-.974L20.7 5.959c.384-.435.743-.741 1.076-.905.181-.09.338-.145.475-.093.137.05.218.195.294.38.142.343.21.809.21 1.389v12c0 .414.335.75.75.75h5.15c.461 0 .842.06 1.13.189.176.078.311.174.373.313.063.138.046.302-.01.484-.096.3-.3.623-.605.966L16.924 35.767c-.383.435-.742.74-1.076.905-.18.089-.338.144-.475.093-.136-.051-.217-.196-.294-.381-.142-.343-.209-.808-.209-1.388v-12a.75.75 0 0 0-.75-.75H8.97Z"/></svg>