<?xml version="1.0" encoding="UTF-8" standalone="no"?>
<!DOCTYPE svg PUBLIC "-//W3C//DTD SVG 1.1//EN" "http://www.w3.org/Graphics/SVG/1.1/DTD/svg11.dtd">
<svg width="100%" height="100%" viewBox="0 0 37 38" version="1.1" xmlns="http://www.w3.org/2000/svg" xmlns:xlink="http://www.w3.org/1999/xlink" xml:space="preserve" xmlns:serif="http://www.serif.com/" style="fill-rule:evenodd;clip-rule:evenodd;stroke-linejoin:round;stroke-miterlimit:2;">
    <g transform="matrix(1,0,0,1,-95,-1)">
        <g id="icon-people" transform="matrix(4.25974,0,0,2.77919,-59.2855,-7.43852)">
            <rect x="36.359" y="3.051" width="8.463" height="13.547" style="fill:none;"/>
            <g transform="matrix(0.234756,0,0,0.359817,14.603,2.67705)">
                <path d="M105.944,27.913C105.943,27.914 105.943,27.914 105.942,27.915C104.637,28.785 104.022,29.956 104.022,31.104C104.022,32.251 104.637,33.422 105.941,34.292C108.571,36.05 112.875,36.05 115.504,34.292C116.809,33.422 117.424,32.251 117.424,31.104C117.424,29.956 116.809,28.785 115.504,27.915C112.892,26.173 108.572,26.172 105.944,27.913ZM106.773,29.163C108.945,27.725 112.514,27.724 114.672,29.163C115.482,29.703 115.924,30.391 115.924,31.104C115.924,31.816 115.482,32.505 114.672,33.045C114.672,33.045 114.671,33.045 114.671,33.045C112.5,34.497 108.946,34.497 106.775,33.045C106.775,33.045 106.774,33.045 106.774,33.045C105.964,32.505 105.522,31.816 105.522,31.104C105.522,30.391 105.964,29.703 106.773,29.163L106.773,29.163ZM110.6,24.553C110.648,24.561 110.696,24.565 110.745,24.563C113.215,24.492 115.19,22.456 115.208,19.949C115.208,19.947 115.208,19.945 115.208,19.944C115.208,17.401 113.149,15.324 110.588,15.324C108.027,15.324 105.968,17.383 105.968,19.944C105.968,22.451 107.939,24.474 110.411,24.563C110.461,24.565 110.512,24.562 110.561,24.553C110.573,24.551 110.588,24.551 110.6,24.553ZM118.054,24.268C120.298,24.645 122.768,24.235 124.505,23.072C125.81,22.202 126.424,21.031 126.424,19.884C126.424,18.736 125.809,17.565 124.504,16.695C124.504,16.694 124.503,16.694 124.503,16.694C122.75,15.531 120.247,15.122 118.004,15.515C117.596,15.586 117.323,15.975 117.394,16.383C117.466,16.791 117.855,17.064 118.262,16.993C120.128,16.666 122.215,16.976 123.673,17.943C124.482,18.483 124.924,19.172 124.924,19.884C124.924,20.596 124.482,21.285 123.672,21.825C123.671,21.825 123.671,21.825 123.671,21.826C122.227,22.792 120.168,23.102 118.302,22.789C117.894,22.721 117.507,22.996 117.438,23.405C117.37,23.813 117.646,24.2 118.054,24.268ZM103.099,22.789C101.233,23.102 99.174,22.792 97.73,21.826C97.73,21.825 97.729,21.825 97.729,21.825C96.919,21.285 96.477,20.596 96.477,19.884C96.477,19.172 96.919,18.483 97.728,17.943C99.186,16.976 101.273,16.666 103.139,16.993C103.546,17.064 103.935,16.791 104.007,16.383C104.078,15.975 103.805,15.586 103.397,15.515C101.154,15.122 98.651,15.531 96.898,16.694C96.898,16.694 96.897,16.694 96.897,16.695C95.592,17.565 94.977,18.736 94.977,19.884C94.977,21.031 95.591,22.202 96.896,23.072C98.633,24.235 101.103,24.645 103.347,24.268C103.755,24.2 104.031,23.813 103.963,23.405C103.894,22.996 103.507,22.721 103.099,22.789ZM110.761,23.062C110.645,23.05 110.522,23.05 110.406,23.062C108.766,22.972 107.468,21.616 107.468,19.944C107.468,18.214 108.859,16.824 110.588,16.824C112.316,16.824 113.707,18.225 113.708,19.941C113.695,21.612 112.402,22.982 110.762,23.062L110.761,23.062ZM119.6,13.348C119.649,13.357 119.7,13.36 119.75,13.358C122.219,13.269 124.19,11.249 124.208,8.744C124.208,8.742 124.208,8.74 124.208,8.739C124.208,6.196 122.149,4.119 119.588,4.119C117.027,4.119 114.968,6.178 114.968,8.739C114.968,11.246 116.939,13.269 119.411,13.358C119.461,13.36 119.512,13.357 119.561,13.348C119.573,13.346 119.588,13.346 119.6,13.348ZM101.651,13.358C101.701,13.36 101.752,13.357 101.801,13.348C101.813,13.346 101.828,13.346 101.84,13.348C101.889,13.357 101.94,13.36 101.99,13.358C104.462,13.269 106.433,11.246 106.433,8.739C106.433,6.178 104.374,4.119 101.813,4.119C99.252,4.119 97.193,6.196 97.193,8.739C97.193,8.74 97.193,8.742 97.193,8.744C97.211,11.249 99.182,13.269 101.651,13.358ZM119.758,11.857C119.643,11.845 119.521,11.845 119.406,11.857C117.766,11.766 116.468,10.411 116.468,8.739C116.468,7.009 117.859,5.619 119.588,5.619C121.316,5.619 122.707,7.02 122.708,8.736C122.695,10.408 121.399,11.764 119.759,11.856L119.758,11.857ZM101.646,11.856C100.004,11.766 98.706,10.41 98.693,8.736C98.694,7.02 100.085,5.619 101.813,5.619C103.542,5.619 104.933,7.009 104.933,8.739C104.933,10.41 103.637,11.764 101.998,11.856C101.882,11.845 101.759,11.845 101.643,11.857L101.646,11.856Z" />
            </g>
        </g>
    </g>
</svg>
