<svg xmlns="http://www.w3.org/2000/svg" xml:space="preserve" style="fill-rule:evenodd;clip-rule:evenodd;stroke-linejoin:round;stroke-miterlimit:2" viewBox="0 0 37 39"><g transform="matrix(4.25974 0 0 2.77919 -154.609 -7.808)"><path d="M36.359 3.051h8.463v13.547h-8.463z" style="fill:none"/><clipPath id="a"><path d="M36.359 3.051h8.463v13.547h-8.463z"/></clipPath><g clip-path="url(#a)"><path d="M36.295 11.969v1.2c0 .979.217 1.792.59 2.364.373.571.904.904 1.543.904h3.912c.64 0 1.17-.333 1.543-.904.373-.572.59-1.385.59-2.365v-1.2c0-.148-.08-.269-.176-.269-.097 0-.176.12-.176.27v1.2c0 .819-.175 1.504-.487 1.982-.312.479-.759.746-1.294.746h-3.912c-.535 0-.982-.267-1.294-.746-.312-.478-.487-1.163-.487-1.983v-1.2c0-.148-.078-.269-.176-.269-.097 0-.176.12-.176.27Zm3.518-5.459-1.252 1.067c-.33.282-.607.994-.607 1.58v2.032c0 .586.272 1.298.608 1.58l1.251 1.067a.916.916 0 0 0 1.145 0l1.253-1.068c.331-.281.607-.993.607-1.579V9.156c0-.585-.272-1.297-.608-1.58L40.959 6.51a.901.901 0 0 0-1.146 0Zm2.623 2.346c.02.102.03.203.03.3v2.033c0 .41-.194.91-.426 1.108l-1.252 1.067a.595.595 0 0 1-.228.117v-2.958l1.876-1.667Zm-4.1.005 1.872 1.662v2.958a.582.582 0 0 1-.223-.116l-1.253-1.07c-.236-.197-.426-.696-.426-1.106V9.156c0-.095.011-.195.03-.295Zm3.94-.487a1.016 1.016 0 0 0-.235-.324l-1.255-1.07a.627.627 0 0 0-.8 0l-.001.001-1.253 1.068a1.04 1.04 0 0 0-.237.33l1.89 1.677 1.891-1.682Zm-5.629-.003v-1.2c0-.82.175-1.505.487-1.983.312-.478.76-.745 1.294-.745h3.912c.535 0 .982.267 1.294.745.312.478.487 1.164.487 1.983v1.2c0 .149.079.27.176.27.097 0 .176-.121.176-.27v-1.2c0-.979-.217-1.793-.59-2.364-.372-.572-.904-.904-1.543-.904h-3.912c-.64 0-1.17.332-1.543.904-.373.57-.59 1.385-.59 2.364v1.2c0 .149.08.27.176.27.098 0 .176-.121.176-.27Z"/></g></g></svg>