<svg xmlns="http://www.w3.org/2000/svg" xml:space="preserve" style="fill-rule:evenodd;clip-rule:evenodd;stroke-linejoin:round;stroke-miterlimit:2" viewBox="0 0 37 39"><path d="M36.359 3.051h8.463v13.547h-8.463z" style="fill:none" transform="matrix(4.25974 0 0 2.77919 -154.609 -7.563)"/><path d="M28.05 32.986c3.184 0 5.75-2.572 5.75-5.716V9.086c0-3.145-2.565-5.7-5.75-5.7h-20c-3.183 0-5.75 2.555-5.75 5.7v18.2c0 3.146 2.567 5.7 5.75 5.7H9.3c1.12 0 2.21.438 3.004 1.23l2.853 2.82a4.124 4.124 0 0 0 5.77 0l2.854-2.82a4.232 4.232 0 0 1 3.003-1.23h1.267Zm0-1.5h-1.266c-1.534 0-2.99.596-4.064 1.67l-2.846 2.813a2.617 2.617 0 0 1-3.663 0l-2.85-2.816a5.756 5.756 0 0 0-4.06-1.667H8.05c-2.35 0-4.25-1.878-4.25-4.2v-18.2c0-2.321 1.9-4.2 4.25-4.2h20c2.349 0 4.25 1.879 4.25 4.2V27.27c0 2.322-1.9 4.216-4.25 4.216ZM13.056 20.11a.022.022 0 0 1-.005.003c-1.355.907-1.995 2.123-1.995 3.315 0 1.192.64 2.408 1.995 3.315 2.746 1.837 7.256 1.837 10 0 1.357-.907 1.997-2.123 1.997-3.315 0-1.192-.64-2.408-1.996-3.315l-.003-.002c-2.743-1.817-7.231-1.818-9.993-.001Zm.828 1.25c2.304-1.513 6.046-1.514 8.335 0 .86.577 1.329 1.31 1.329 2.068s-.47 1.492-1.33 2.068c-2.288 1.53-6.045 1.53-8.332 0-.862-.576-1.33-1.31-1.33-2.068 0-.757.467-1.491 1.328-2.067Zm4.285-4.89.02-.001a3.953 3.953 0 0 0 3.846-4.003 4.005 4.005 0 0 0-4-3.996c-2.215 0-4 1.784-4 4a3.99 3.99 0 0 0 3.855 3.999h.279Zm-.013-1.5h-.221a2.496 2.496 0 0 1-2.4-2.5c0-1.385 1.115-2.5 2.5-2.5s2.5 1.128 2.5 2.5v.007a2.458 2.458 0 0 1-2.373 2.493h-.006Z"/></svg>