<svg xmlns="http://www.w3.org/2000/svg" xml:space="preserve" style="fill-rule:evenodd;clip-rule:evenodd;stroke-linejoin:round;stroke-miterlimit:2" viewBox="0 0 37 38"><path d="M36.359 3.051h8.463v13.547h-8.463z" style="fill:none" transform="matrix(4.25974 0 0 2.77919 -154.517 -8.438)"/><path d="M18.459 15.067v3.517h-7.916a3.655 3.655 0 0 0-3.667 3.65v5.833a3.658 3.658 0 0 0 3.667 3.667h7.916v3.516h-4.25a.75.75 0 0 0 0 1.5h10a.75.75 0 0 0 0-1.5h-4.25v-3.516h4.35c.819 0 1.637-.275 2.288-.8l3.647-2.915a3.65 3.65 0 0 0-.001-5.722l-3.65-2.916-.008-.007a3.717 3.717 0 0 0-2.276-.79h-4.35v-3.517h7.95a3.657 3.657 0 0 0 3.667-3.667V5.567a3.655 3.655 0 0 0-3.667-3.65H14.143c-.835 0-1.63.289-2.276.79L8.207 5.63a3.651 3.651 0 0 0 .002 5.723l3.649 2.916a3.657 3.657 0 0 0 2.285.797h4.316Zm-7.916 5.017h13.766c.495 0 .965.174 1.35.47l3.65 2.916a2.155 2.155 0 0 1 0 3.377l-3.654 2.919a2.146 2.146 0 0 1-1.346.468H10.543a2.162 2.162 0 0 1-2.167-2.167v-5.833c0-1.188.967-2.15 2.167-2.15ZM27.909 3.417c1.2 0 2.167.963 2.167 2.15V11.4a2.162 2.162 0 0 1-2.167 2.167H14.143c-.482 0-.963-.16-1.346-.467l-3.654-2.92a2.154 2.154 0 0 1 0-3.376l3.646-2.913a2.215 2.215 0 0 1 1.354-.474h13.766Z"/></svg>