<svg width="100%" height="100%" viewBox="0 0 41 41" version="1.1" xmlns="http://www.w3.org/2000/svg" xmlns:xlink="http://www.w3.org/1999/xlink" xml:space="preserve" xmlns:serif="http://www.serif.com/" style="fill-rule:evenodd;clip-rule:evenodd;stroke-linejoin:round;stroke-miterlimit:2;">
    <g transform="matrix(1,0,0,1,-1480,-50)">
        <g id="icon-clock" transform="matrix(0.293498,0,0,0.339301,1073.01,74.5765)">
            <rect x="1388.4" y="-71.724" width="136.287" height="117.889" style="fill:none;"/>
            <g transform="matrix(5.8206,0,0,5.03486,1454.77,-9.98848)">
                <g transform="matrix(1,0,0,1,-12,-12)">
                    <path d="M12,2.8C6.922,2.8 2.8,6.922 2.8,12C2.8,17.078 6.922,21.2 12,21.2C17.078,21.2 21.2,17.078 21.2,12C21.2,6.922 17.078,2.8 12,2.8ZM12,4.2C16.305,4.2 19.8,7.695 19.8,12C19.8,16.305 16.305,19.8 12,19.8C7.695,19.8 4.2,16.305 4.2,12C4.2,7.695 7.695,4.2 12,4.2ZM12.7,11.3L12.7,6.5C12.7,6.114 12.386,5.8 12,5.8C11.614,5.8 11.3,6.114 11.3,6.5L11.3,11.75C11.3,12.275 11.725,12.7 12.25,12.7C12.25,12.7 16.5,12.7 16.5,12.7C16.886,12.7 17.2,12.386 17.2,12C17.2,11.614 16.886,11.3 16.5,11.3L12.7,11.3ZM4.65,2.198C3.631,2.786 2.786,3.631 2.198,4.65C2.004,4.985 2.119,5.413 2.454,5.606C2.788,5.799 3.217,5.685 3.41,5.35C3.875,4.544 4.544,3.875 5.35,3.41C5.685,3.217 5.799,2.788 5.606,2.454C5.413,2.119 4.985,2.004 4.65,2.198ZM18.65,3.41C19.456,3.875 20.125,4.544 20.59,5.35C20.783,5.685 21.212,5.799 21.546,5.606C21.881,5.413 21.996,4.985 21.802,4.65C21.214,3.631 20.368,2.786 19.35,2.198C19.015,2.004 18.587,2.119 18.394,2.454C18.201,2.788 18.315,3.217 18.65,3.41Z" />
                </g>
            </g>
        </g>
    </g>
</svg>
