<?xml version="1.0" encoding="UTF-8" standalone="no"?>
<!DOCTYPE svg PUBLIC "-//W3C//DTD SVG 1.1//EN" "http://www.w3.org/Graphics/SVG/1.1/DTD/svg11.dtd">
<svg width="100%" height="100%" viewBox="0 0 41 41" version="1.1" xmlns="http://www.w3.org/2000/svg" xmlns:xlink="http://www.w3.org/1999/xlink" xml:space="preserve" xmlns:serif="http://www.serif.com/" style="fill-rule:evenodd;clip-rule:evenodd;stroke-linejoin:round;stroke-miterlimit:2;">
    <g transform="matrix(1,0,0,1,-1525,0)">
        <g id="icon-code" transform="matrix(0.293498,0,0,0.339301,1118.15,24.5072)">
            <rect x="1388.4" y="-71.724" width="136.287" height="117.889" style="fill:none;"/>
            <g transform="matrix(6.10453,0,0,5.28046,1456.31,-16.0199)">
                <g transform="matrix(1,0,0,1,-12,-12)">
                    <path d="M20.7,7C20.7,5.51 19.49,4.3 18,4.3C18,4.3 5,4.3 5,4.3C3.51,4.3 2.3,5.51 2.3,7L2.3,17C2.3,18.49 3.51,19.7 5,19.7L18,19.7C19.49,19.7 20.7,18.49 20.7,17L20.7,7ZM19.3,7L19.3,17C19.3,17.717 18.717,18.3 18,18.3C18,18.3 5,18.3 5,18.3C4.283,18.3 3.7,17.717 3.7,17C3.7,17 3.7,7 3.7,7C3.7,6.283 4.283,5.7 5,5.7L18,5.7C18.717,5.7 19.3,6.282 19.3,7ZM6.568,10.188L8.314,11.999C8.314,11.999 6.563,13.779 6.563,13.779C6.292,14.055 6.296,14.498 6.571,14.769C6.847,15.04 7.29,15.036 7.561,14.761L9.79,12.494C10.057,12.224 10.059,11.79 9.795,11.517L7.575,9.216C7.307,8.938 6.864,8.93 6.586,9.198C6.307,9.466 6.299,9.91 6.568,10.188ZM12,14.7L16,14.7C16.386,14.7 16.7,14.386 16.7,14C16.7,13.614 16.386,13.3 16,13.3L12,13.3C11.614,13.3 11.3,13.614 11.3,14C11.3,14.386 11.614,14.7 12,14.7Z"/>
                </g>
            </g>
        </g>
    </g>
</svg>
