<?xml version="1.0" encoding="UTF-8" standalone="no"?>
<!DOCTYPE svg PUBLIC "-//W3C//DTD SVG 1.1//EN" "http://www.w3.org/Graphics/SVG/1.1/DTD/svg11.dtd">
<svg width="100%" height="100%" viewBox="0 0 40 41" version="1.1" xmlns="http://www.w3.org/2000/svg" xmlns:xlink="http://www.w3.org/1999/xlink" xml:space="preserve" xmlns:serif="http://www.serif.com/" style="fill-rule:evenodd;clip-rule:evenodd;stroke-linejoin:round;stroke-miterlimit:2;">
    <g transform="matrix(1,0,0,1,-1388,0)">
        <g id="icon-calendar" transform="matrix(0.293498,0,0,0.339301,980.506,24.3743)">
            <rect x="1388.4" y="-71.724" width="136.287" height="117.889" style="fill:none;"/>
            <g transform="matrix(5.8206,0,0,5.03486,1459.83,-13.8946)">
                <g transform="matrix(1,0,0,1,-12,-12)">
                    <g transform="matrix(1.125,0,0,1.125,-1.98203,-1.27743)">
                        <path d="M15,5L9,5L9,3.5C9,3.224 8.776,3 8.5,3C8.224,3 8,3.224 8,3.5L8,5L7.7,5C6.458,5 5.84,5.031 5.365,5.272C4.895,5.512 4.512,5.895 4.273,6.365C4.031,6.84 4,7.458 4,8.7L4,16.3C4,17.542 4.031,18.16 4.272,18.635C4.512,19.105 4.895,19.488 5.365,19.728C5.84,19.969 6.458,20 7.7,20L16.3,20C17.542,20 18.16,19.969 18.635,19.728C19.105,19.488 19.488,19.105 19.728,18.635C19.969,18.16 20,17.542 20,16.3L20,9.5L19.5,9.5C19.5,9.5 20,9.5 20,9.5L20,8.7C20,7.458 19.969,6.84 19.728,6.365C19.488,5.895 19.105,5.512 18.635,5.273C18.16,5.031 17.542,5 16.3,5L16,5L16,3.5C16,3.224 15.776,3 15.5,3C15.224,3 15,3.224 15,3.5L15,5ZM19,10L5,10L5,16.3C5,17.298 4.969,17.8 5.163,18.181L5.163,18.181C5.307,18.463 5.537,18.693 5.819,18.836L5.819,18.837C6.2,19.031 6.702,19 7.7,19C7.7,19 16.3,19 16.3,19C17.298,19 17.8,19.031 18.181,18.836L18.181,18.836C18.463,18.693 18.693,18.463 18.836,18.181L18.837,18.181C19.031,17.8 19,17.298 19,16.3L19,10ZM11.5,14L9.5,14C9.224,14 9,14.224 9,14.5C9,14.776 9.224,15 9.5,15L11.5,15L11.5,17C11.5,17.276 11.724,17.5 12,17.5C12.276,17.5 12.5,17.276 12.5,17L12.5,15L14.5,15C14.776,15 15,14.776 15,14.5C15,14.224 14.776,14 14.5,14L12.5,14L12.5,12C12.5,11.724 12.276,11.5 12,11.5C11.724,11.5 11.5,11.724 11.5,12L11.5,14ZM4.105,9.5L4.5,9.5C4.5,9.5 4.105,9.5 4.105,9.5ZM8,6L7.7,6C6.702,6 6.2,5.969 5.819,6.163L5.819,6.163C5.537,6.307 5.307,6.537 5.163,6.819L5.163,6.819C4.969,7.2 5,7.702 5,8.7L5,9L19,9L19,8.7C19,7.702 19.031,7.2 18.836,6.819L18.836,6.819C18.693,6.537 18.463,6.307 18.181,6.163L18.181,6.163C17.8,5.969 17.298,6 16.3,6L16,6L16,7.5C16,7.776 15.776,8 15.5,8C15.224,8 15,7.776 15,7.5L15,6L9,6L9,7.5C9,7.776 8.776,8 8.5,8C8.224,8 8,7.776 8,7.5L8,6Z" />
                    </g>
                </g>
            </g>
        </g>
    </g>
</svg>
