<svg width="100%" height="100%" viewBox="0 0 22 20" fill="none" xmlns="http://www.w3.org/2000/svg">
<path d="M19.8603 0.00141215C19.6266 0.0116686 19.399 0.0767345 19.1938 0.158912C18.9907 0.24054 17.8213 0.739658 16.0944 1.47797C14.3675 2.21629 12.1227 3.17774 9.89753 4.1311C5.4471 6.03783 1.07378 7.91391 1.07378 7.91391L1.10566 7.90172C1.10566 7.90172 0.841705 7.98995 0.574095 8.17641C0.44029 8.26964 0.296337 8.39 0.17847 8.56547C0.0606032 8.74095 -0.0255652 8.98963 0.00690748 9.25266C0.120966 10.1765 1.07847 10.4386 1.07847 10.4386L1.08222 10.4405L5.35535 11.903C5.46429 12.2664 6.6514 16.2286 6.91253 17.0677C7.05675 17.5316 7.19173 17.7992 7.33253 17.9817C7.40299 18.0731 7.47683 18.1438 7.55847 18.1955C7.59091 18.216 7.62502 18.2314 7.65878 18.2452C7.6595 18.2455 7.65994 18.2448 7.66066 18.2452C7.66481 18.247 7.66871 18.2472 7.67284 18.2489L7.66159 18.2461C7.66944 18.2493 7.67718 18.2546 7.68503 18.2573C7.70027 18.2627 7.7096 18.2625 7.72909 18.2667C8.21848 18.4376 8.62347 18.1205 8.62347 18.1205L8.64034 18.1073L11.2653 15.6727L15.5253 18.9942L15.5788 19.0186C16.3244 19.3497 16.9988 19.165 17.3722 18.8611C17.7457 18.5572 17.8925 18.1655 17.8925 18.1655L17.9085 18.1242L21.0388 1.80891C21.1189 1.4439 21.1303 1.12839 21.0547 0.843287C20.9792 0.558183 20.7956 0.310344 20.5653 0.172975C20.335 0.0356053 20.0941 -0.00884429 19.8603 0.00141215ZM19.8857 0.97735C19.9806 0.972953 20.051 0.983807 20.0732 0.997037C20.0953 1.01027 20.1053 1.00853 20.1266 1.08891C20.1479 1.1693 20.1594 1.33861 20.1013 1.6036L20.0994 1.60922L16.9869 17.8298C16.9795 17.8462 16.9147 17.9962 16.7666 18.1167C16.6155 18.2396 16.4475 18.3356 16.0016 18.1486L11.3432 14.5158L11.2119 14.4127L11.2091 14.4155L9.81597 13.3702L17.645 4.15923C17.7052 4.08863 17.7436 4.00212 17.7556 3.91016C17.7677 3.81819 17.7528 3.72471 17.7129 3.64101C17.6729 3.55732 17.6095 3.48699 17.5304 3.43853C17.4514 3.39008 17.3599 3.36557 17.2672 3.36797C17.1766 3.37033 17.0885 3.39828 17.0132 3.4486L5.68441 11.0011L1.40472 9.53579C1.40472 9.53579 0.979748 9.2993 0.959407 9.13454C0.958279 9.12541 0.953262 9.13367 0.975345 9.10079C0.997428 9.06791 1.05294 9.0124 1.12253 8.96391C1.26172 8.86693 1.42066 8.80829 1.42066 8.80829L1.43659 8.80266L1.45253 8.7961C1.45253 8.7961 5.82608 6.91992 10.2763 5.01329C12.5014 4.05997 14.7458 3.09923 16.4722 2.3611C18.1982 1.62316 19.4454 1.09199 19.551 1.04954C19.6712 1.00139 19.7907 0.981747 19.8857 0.97735ZM14.6938 6.1486L8.75659 13.1339L8.75378 13.1367C8.74451 13.1479 8.73575 13.1595 8.72753 13.1714C8.71811 13.1844 8.70935 13.1979 8.70128 13.2117C8.66793 13.2683 8.64655 13.3312 8.63847 13.3964C8.63847 13.3977 8.63847 13.3989 8.63847 13.4002L7.86503 16.8783C7.85217 16.8407 7.84317 16.827 7.82941 16.7827V16.7817C7.58375 15.9924 6.46374 12.2557 6.30878 11.7389L14.6938 6.1486ZM9.42691 14.2786L10.4938 15.0792L8.92628 16.5323L9.42691 14.2786Z" fill="black"/>
</svg>
