<svg xmlns="http://www.w3.org/2000/svg" xml:space="preserve" style="fill-rule:evenodd;clip-rule:evenodd;stroke-linejoin:round;stroke-miterlimit:2" viewBox="0 0 37 38"><path d="M36.359 3.051h8.463v13.547h-8.463z" style="fill:none" transform="matrix(4.25974 0 0 2.77919 -154.359 -8.48)"/><path d="M18.546 36.242c9.58 0 17.417-7.838 17.417-17.417 0-9.58-7.838-17.416-17.417-17.416S1.13 9.246 1.13 18.825s7.838 17.417 17.417 17.417Zm0-1.5c-8.754 0-15.917-7.163-15.917-15.917S9.792 2.909 18.546 2.909s15.917 7.162 15.917 15.916c0 8.754-7.163 15.917-15.917 15.917Zm-7.614-15.386 4.717 4.716a.75.75 0 0 0 1.06 0l9.45-9.433a.75.75 0 0 0-1.06-1.061l-8.919 8.904-4.187-4.187a.75.75 0 1 0-1.06 1.06Z"/></svg>