<svg width="40" height="40" viewBox="0 0 40 40" fill="none" xmlns="http://www.w3.org/2000/svg">
<g clip-path="url(#clip0_36_429)">
<path d="M33.9014 3.18912C33.5117 3.20622 33.1324 3.31466 32.7904 3.45162C32.4519 3.58767 30.5029 4.41953 27.6248 5.65006C24.7467 6.88059 21.0054 8.48299 17.2967 10.0719C9.87928 13.2498 2.59042 16.3766 2.59042 16.3766L2.64354 16.3563C2.64354 16.3563 2.20362 16.5034 1.75761 16.8141C1.5346 16.9695 1.29468 17.1701 1.09823 17.4626C0.901787 17.755 0.758173 18.1695 0.812294 18.6079C1.00239 20.1477 2.59823 20.5844 2.59823 20.5844L2.60448 20.5876L9.72636 23.0251C9.90794 23.6308 11.8864 30.2344 12.3217 31.6329C12.562 32.406 12.787 32.8521 13.0217 33.1563C13.1391 33.3086 13.2622 33.4264 13.3982 33.5126C13.4523 33.5468 13.5092 33.5725 13.5654 33.5954C13.5666 33.5959 13.5673 33.5948 13.5685 33.5954C13.5755 33.5984 13.582 33.5987 13.5889 33.6016L13.5701 33.5969C13.5832 33.6022 13.5961 33.6111 13.6092 33.6157C13.6346 33.6246 13.6501 33.6243 13.6826 33.6313C14.4982 33.9161 15.1732 33.3876 15.1732 33.3876L15.2014 33.3657L19.5764 29.3079L26.6764 34.8438L26.7654 34.8844C28.0082 35.4362 29.1321 35.1284 29.7545 34.6219C30.3769 34.1155 30.6217 33.4626 30.6217 33.4626L30.6482 33.3938L35.8654 6.20162C35.9989 5.59327 36.0179 5.06742 35.892 4.59225C35.7661 4.11707 35.4602 3.70401 35.0764 3.47506C34.6925 3.24611 34.291 3.17203 33.9014 3.18912ZM33.9435 4.81568C34.1018 4.80836 34.2191 4.82645 34.256 4.8485C34.293 4.87055 34.3096 4.86764 34.3451 5.00162C34.3806 5.1356 34.3998 5.41779 34.3029 5.85943L34.2998 5.86881L29.1123 32.9032C29.1 32.9304 28.9919 33.1805 28.7451 33.3813C28.4933 33.5862 28.2133 33.7461 27.4701 33.4344L19.706 27.3797L19.4873 27.2079L19.4826 27.2126L17.1607 25.4704L30.2092 10.1188C30.3094 10.0012 30.3735 9.85697 30.3935 9.7037C30.4136 9.55042 30.3888 9.39462 30.3222 9.25513C30.2556 9.11563 30.15 8.99842 30.0182 8.91766C29.8864 8.8369 29.734 8.79605 29.5795 8.80006C29.4285 8.80398 29.2817 8.85057 29.156 8.93443L10.2748 21.5219L3.14198 19.0797C3.14198 19.0797 2.4337 18.6856 2.39979 18.411C2.39791 18.3958 2.38955 18.4096 2.42636 18.3547C2.46316 18.3 2.55568 18.2074 2.67167 18.1266C2.90365 17.965 3.16854 17.8672 3.16854 17.8672L3.19511 17.8579L3.22167 17.8469C3.22167 17.8469 10.5109 14.72 17.9279 11.5422C21.6364 9.95339 25.3771 8.35216 28.2545 7.12193C31.1311 5.89203 33.2097 5.00675 33.3857 4.936C33.5861 4.85576 33.7853 4.82301 33.9435 4.81568ZM25.2904 13.4344L15.3951 25.0766L15.3904 25.0813C15.375 25.0999 15.3604 25.1192 15.3467 25.1391C15.331 25.1608 15.3164 25.1832 15.3029 25.2063C15.2473 25.3007 15.2117 25.4054 15.1982 25.5141C15.1982 25.5162 15.1982 25.5183 15.1982 25.5204L13.9092 31.3172C13.8877 31.2546 13.8727 31.2317 13.8498 31.1579V31.1563C13.4404 29.8407 11.5737 23.6129 11.3154 22.7516L25.2904 13.4344ZM16.5123 26.9844L18.2904 28.3188L15.6779 30.7407L16.5123 26.9844Z" fill="white"/>
</g>
<defs>
<clipPath id="clip0_36_429">
<rect width="40" height="40" fill="white"/>
</clipPath>
</defs>
</svg>
