<svg xmlns="http://www.w3.org/2000/svg" xml:space="preserve" style="fill-rule:evenodd;clip-rule:evenodd;stroke-linejoin:round;stroke-miterlimit:2" viewBox="0 0 37 39"><path d="M36.359 3.051h8.463v13.547h-8.463z" style="fill:none" transform="matrix(4.25974 0 0 2.77919 -154.661 -7.852)"/><path d="M33.553 20.234c0 8.786-7.131 15.917-15.917 15.917S1.719 29.02 1.719 20.234 8.85 4.318 17.636 4.318a.75.75 0 0 0 0-1.5C8.022 2.818.219 10.62.219 20.234S8.022 37.65 17.636 37.65s17.417-7.803 17.417-17.417a.75.75 0 0 0-1.5 0Zm-16.667-6.6h-.983c-1.736 0-3.167 1.478-3.167 3.3 0 .986.244 1.642.616 2.116.375.477.896.78 1.532 1.008l2.002.698v4.562h-.633c-1.131 0-2.034-.976-2.034-2.167a.75.75 0 0 0-1.5 0c0 2.042 1.597 3.667 3.534 3.667h.633v.916a.75.75 0 0 0 1.5 0v-.916h1c1.736 0 3.167-1.456 3.167-3.3 0-.975-.243-1.631-.616-2.108-.374-.48-.897-.79-1.533-1.016l-2.018-.704v-4.556h.65c1.13 0 2.033.975 2.033 2.167a.75.75 0 0 0 1.5 0c0-2.042-1.597-3.667-3.533-3.667h-.65v-.9a.75.75 0 0 0-1.5 0v.9Zm1.5 7.645v4.039h1c.931 0 1.667-.811 1.667-1.8 0-.542-.091-.92-.298-1.185-.204-.261-.506-.401-.852-.525l-1.517-.53Zm-1.5-6.145h-.983c-.932 0-1.667.823-1.667 1.8 0 .548.089.926.296 1.189.204.26.507.397.854.52l1.5.524v-4.033ZM32.492 4.318l-7.053 7.053a.749.749 0 1 0 1.06 1.06l7.054-7.053v4.856a.75.75 0 0 0 1.5 0V3.568a.748.748 0 0 0-.088-.353l-.001-.002a.805.805 0 0 0-.118-.163l-.024-.023-.002-.002a.734.734 0 0 0-.163-.118l-.002-.002a.746.746 0 0 0-.352-.087h-6.667a.75.75 0 0 0 0 1.5h4.856Z"/></svg>