<svg xmlns="http://www.w3.org/2000/svg" xml:space="preserve" style="fill-rule:evenodd;clip-rule:evenodd;stroke-linejoin:round;stroke-miterlimit:2" viewBox="0 0 37 38"><path d="M36.359 3.051h8.463v13.547h-8.463z" style="fill:none" transform="matrix(4.25974 0 0 2.77919 -154.832 -8.48)"/><path d="m13.89 29.78-.523 2.307c-.372 1.61.97 3.18 2.831 3.18h3.78c1.983 0 3.205-1.459 2.833-3.174l-.522-2.302 2.268-2.019c.916-.812 1.34-1.535 1.407-2.25.066-.724-.224-1.496-.959-2.42l-4.573-5.804c-.64-.81-1.493-1.197-2.337-1.197-.843 0-1.696.387-2.335 1.196l-4.576 5.806c-.728.917-1.037 1.7-.98 2.424.057.732.484 1.467 1.45 2.261-.008-.005 1.534 1.367 2.235 1.992Zm2.308 3.987c-.839 0-1.537-.619-1.369-1.346l.483-2.134 5.552.001.481 2.125c.167.775-.47 1.354-1.367 1.354h-3.78Zm2.64-15.93v3.405a.75.75 0 0 1-1.5 0v-3.395a1.81 1.81 0 0 0-.4.38l-4.578 5.806c-.425.537-.694.954-.66 1.377.032.415.361.772.91 1.223l2.421 2.154h6.13l2.4-2.136c.538-.478.87-.848.91-1.268.037-.415-.219-.819-.64-1.35l-4.577-5.806a1.832 1.832 0 0 0-.416-.39Zm-3.686-9.87L8.09 15.03a2.525 2.525 0 0 0-1.192-.298h-1.65a2.557 2.557 0 0 0-2.55 2.55v1.65a2.558 2.558 0 0 0 2.55 2.55h1.65a2.558 2.558 0 0 0 2.55-2.55v-1.65c0-.43-.108-.836-.297-1.192l7.062-7.062.055.054a2.549 2.549 0 0 0 3.61 0l.055-.054 7.062 7.062a2.536 2.536 0 0 0-.297 1.192v1.65a2.558 2.558 0 0 0 2.55 2.55h1.65a2.558 2.558 0 0 0 2.55-2.55v-1.65a2.557 2.557 0 0 0-2.55-2.55h-1.65c-.43 0-.836.108-1.192.298l-7.062-7.063.054-.055a2.549 2.549 0 0 0 0-3.61l-1.17-1.17a2.549 2.549 0 0 0-3.61 0l-1.17 1.17a2.549 2.549 0 0 0 0 3.61l.054.055Zm14.096 8.265h1.65c.578 0 1.05.472 1.05 1.05v1.65c0 .577-.472 1.05-1.05 1.05h-1.65c-.578 0-1.05-.473-1.05-1.05v-1.65c0-.578.472-1.05 1.05-1.05Zm-22.35 0c.578 0 1.05.472 1.05 1.05v1.65c0 .577-.472 1.05-1.05 1.05h-1.65c-.578 0-1.05-.473-1.05-1.05v-1.65c0-.578.472-1.05 1.05-1.05h1.65Zm10.43-8.21-1.17-1.17a1.054 1.054 0 0 1 0-1.49l1.17-1.17a1.054 1.054 0 0 1 1.49 0l1.17 1.17a1.054 1.054 0 0 1 0 1.49l-1.17 1.17a1.054 1.054 0 0 1-1.49 0Z"/></svg>