<?xml version="1.0" encoding="UTF-8" standalone="no"?>
<svg width="100%" height="100%" viewBox="0 0 37 38" version="1.1" xmlns="http://www.w3.org/2000/svg" xmlns:xlink="http://www.w3.org/1999/xlink" xml:space="preserve" xmlns:serif="http://www.serif.com/" style="fill-rule:evenodd;clip-rule:evenodd;stroke-linejoin:round;stroke-miterlimit:2;">
    <g transform="matrix(1,0,0,1,-191,-106)">
        <g id="icon-tick" transform="matrix(4.25974,0,0,2.77919,36.2539,97.6657)">
            <rect x="36.359" y="3.051" width="8.463" height="13.547" style="fill:none;"/>
            <g transform="matrix(0.324118,0,0,0.559851,-85.506,11.9233)">
                <path d="M381.431,-3.218L386.148,1.498C386.441,1.791 386.915,1.791 387.208,1.499L396.658,-7.935C396.951,-8.227 396.951,-8.702 396.659,-8.995C396.367,-9.288 395.891,-9.289 395.598,-8.996L386.679,-0.092C386.679,-0.092 382.492,-4.279 382.492,-4.279C382.199,-4.572 381.724,-4.572 381.431,-4.279C381.139,-3.986 381.139,-3.511 381.431,-3.218Z"/>
            </g>
        </g>
    </g>
</svg>
