<svg width="100%" height="100%" viewBox="0 0 23 21" fill="none" xmlns="http://www.w3.org/2000/svg">
<path d="M2.88 0C2.07005 0 1.36103 0.230359 0.841875 0.649687C0.32272 1.06902 0.005625 1.69032 0.005625 2.36906C0.005625 3.68598 1.18498 4.70532 2.74406 4.76625C2.78804 4.78033 2.83383 4.78791 2.88 4.78875C3.72171 4.78875 4.43817 4.54202 4.95 4.10531C5.46183 3.6686 5.75437 3.03898 5.75437 2.36906C5.7543 2.36031 5.75399 2.35155 5.75344 2.34281C5.67951 1.01758 4.49989 -4.8e-08 2.88 0ZM2.88 0.94875C4.13235 0.94875 4.75002 1.56366 4.80281 2.38125C4.7994 2.78074 4.64475 3.12009 4.335 3.38437C4.02183 3.65158 3.53829 3.84 2.88 3.84C1.63107 3.84 0.954375 3.16198 0.954375 2.36906C0.954375 1.97261 1.11728 1.64665 1.43812 1.3875C1.75897 1.12835 2.24995 0.94875 2.88 0.94875ZM0.48 5.75437C0.3527 5.75439 0.230617 5.80496 0.140603 5.89498C0.0505881 5.98499 1.27281e-05 6.10707 0 6.23437V20.1544C1.27281e-05 20.2817 0.0505881 20.4038 0.140603 20.4938C0.230617 20.5838 0.3527 20.6344 0.48 20.6344H5.28C5.4073 20.6344 5.52938 20.5838 5.6194 20.4938C5.70941 20.4038 5.75999 20.2817 5.76 20.1544V15.6731V6.23437C5.75999 6.10707 5.70941 5.98499 5.6194 5.89498C5.52938 5.80496 5.4073 5.75439 5.28 5.75437H0.48ZM7.68 5.75437C7.5527 5.75439 7.43062 5.80496 7.3406 5.89498C7.25059 5.98499 7.20001 6.10707 7.2 6.23437V20.1544C7.20001 20.2817 7.25059 20.4038 7.3406 20.4938C7.43062 20.5838 7.5527 20.6344 7.68 20.6344H12.48C12.6073 20.6344 12.7294 20.5838 12.8194 20.4938C12.9094 20.4038 12.96 20.2817 12.96 20.1544V12.4744V12.3544V12.2344C12.96 11.3011 13.7067 10.5544 14.64 10.5544C15.5733 10.5544 16.32 11.3011 16.32 12.2344V20.1544C16.32 20.2817 16.3706 20.4038 16.4606 20.4938C16.5506 20.5838 16.6727 20.6344 16.8 20.6344H21.6C21.7273 20.6344 21.8494 20.5838 21.9394 20.4938C22.0294 20.4038 22.08 20.2817 22.08 20.1544V11.9944C22.08 10.0136 21.4982 8.44451 20.5172 7.37437C19.5362 6.30424 18.1676 5.75437 16.6978 5.75437C14.8238 5.75437 13.6904 6.43889 12.96 7.00312V6.23437C12.96 6.10707 12.9094 5.98499 12.8194 5.89498C12.7294 5.80496 12.6073 5.75439 12.48 5.75437H7.68ZM0.96 6.71437H4.8V15.6731V19.6744H0.96V6.71437ZM8.16 6.71437H12V7.98094C12 8.07806 12.0295 8.17289 12.0846 8.2529C12.1396 8.33292 12.2177 8.39435 12.3084 8.42908C12.3991 8.46382 12.4982 8.47023 12.5926 8.44746C12.687 8.42469 12.7723 8.37382 12.8372 8.30156C12.8372 8.30156 14.2607 6.71437 16.6978 6.71437C17.9328 6.71437 19.0155 7.15706 19.8094 8.02312C20.6033 8.88919 21.12 10.1999 21.12 11.9944V19.6744H17.28V12.2344C17.2806 12.1666 17.2669 12.0995 17.2397 12.0375C17.1331 10.6811 16.0226 9.59437 14.64 9.59437C13.1877 9.59437 12 10.7821 12 12.2344V12.3544V12.4744V19.6744H8.16V6.71437Z" fill="black"/>
</svg>
