<svg width="24" height="24" viewBox="0 0 24 24" fill="none" xmlns="http://www.w3.org/2000/svg">
<path d="M18.125 10.25H14.625C14.1418 10.25 13.75 9.85825 13.75 9.375V5.875C13.75 5.39175 14.1418 5 14.625 5H18.125C18.6082 5 19 5.39175 19 5.875V9.375C19 9.85825 18.6082 10.25 18.125 10.25Z" stroke="#3E90FF" stroke-linecap="round"/>
<path d="M10.25 13.75H13.75C14.5749 13.75 14.9874 13.75 15.2437 14.0063C15.5 14.2626 15.5 14.6751 15.5 15.5V17.25C15.5 18.0749 15.5 18.4874 15.2437 18.7437C14.9874 19 14.5749 19 13.75 19H10.25V13.75Z" stroke="white" stroke-linecap="round"/>
<path d="M10.25 10.25C10.25 9.42504 10.25 9.01257 9.99372 8.75628C9.73743 8.5 9.32496 8.5 8.5 8.5H6.75C5.92504 8.5 5.51257 8.5 5.25628 8.75628C5 9.01257 5 9.42504 5 10.25V13.75H10.25V10.25Z" stroke="white" stroke-linecap="round"/>
<path d="M10.25 19H6.75C5.92504 19 5.51257 19 5.25628 18.7437C5 18.4874 5 18.0749 5 17.25V13.75H10.25V19Z" stroke="white" stroke-linecap="round"/>
</svg>
