<svg xmlns="http://www.w3.org/2000/svg" xml:space="preserve" style="fill-rule:evenodd;clip-rule:evenodd;stroke-linejoin:round;stroke-miterlimit:2" viewBox="0 0 37 39"><g transform="matrix(4.25974 0 0 2.77919 -154.735 -7.875)"><path d="M36.359 3.051h8.463v13.547h-8.463z" style="fill:none"/><clipPath id="a"><path d="M36.359 3.051h8.463v13.547h-8.463z"/></clipPath><g clip-path="url(#a)"><path d="M42.905 8.648v1.8c0 .478.255.87.567.87h.998v1.528c0 .847-.446 1.53-.998 1.53h-.231c-.083-.683-.473-1.2-.943-1.2-.469 0-.86.517-.942 1.2H40.11c-.083-.683-.473-1.2-.943-1.2-.469 0-.86.517-.942 1.2h-.231c-.553 0-.998-.683-.998-1.53 0-.149-.079-.27-.176-.27-.097 0-.176.121-.176.27 0 1.145.603 2.07 1.35 2.07h.23c.083.682.474 1.199.943 1.199.47 0 .86-.517.943-1.2h1.245c.082.683.473 1.2.942 1.2.47 0 .86-.517.943-1.2h.231c.747 0 1.35-.924 1.35-2.069V9.848a.39.39 0 0 0-.023-.134l-.67-1.799v-.004l-.669-1.79c-.172-.456-.488-.74-.833-.74h-.544V3.85c0-.15-.079-.27-.176-.27h-3.521c-.653 0-1.223.554-1.52 1.368-.047.13-.016.294.069.367.084.072.192.026.24-.104.235-.65.69-1.091 1.21-1.091h3.346v5.727c0 .511-.273.93-.606.93h-.392c-.089 0-.163.101-.174.233a.453.453 0 0 0-.002.036c0 .148.079.27.175.27h.393c.425 0 .788-.43.912-1.02.03-.142.046-.293.046-.449V5.92h.544c.219 0 .419.182.528.47l.518 1.389h-.2c-.313 0-.568.391-.568.87Zm-3.13 6.001v-.004c0-.51-.273-.929-.607-.929-.327 0-.596.404-.606.902v.027c0 .514.271.93.606.93.334 0 .605-.414.607-.926Zm3.13-.004c0-.51-.273-.929-.607-.929-.333 0-.606.418-.606.93 0 .513.271.929.606.929.335 0 .607-.416.607-.93Zm-6.084-3.328h.782c.097 0 .176-.12.176-.27 0-.149-.079-.27-.176-.27h-.782c-.097 0-.176.121-.176.27 0 .15.079.27.176.27Zm7.053-2.998h-.402c-.118 0-.215.148-.215.33v1.798c0 .182.097.33.215.33h.998V9.92l-.596-1.6Zm-7.053 1.199h1.565c.097 0 .176-.12.176-.27 0-.149-.08-.27-.176-.27H36.82c-.097 0-.176.121-.176.27 0 .15.079.27.176.27Zm0-1.8h2.347c.098 0 .176-.12.176-.269 0-.149-.078-.27-.176-.27h-2.347c-.097 0-.176.121-.176.27 0 .149.079.27.176.27Z"/></g></g></svg>