<svg xmlns="http://www.w3.org/2000/svg" xml:space="preserve" style="fill-rule:evenodd;clip-rule:evenodd;stroke-linejoin:round;stroke-miterlimit:2" viewBox="0 0 37 39"><path d="M36.359 3.051h8.463v13.547h-8.463z" style="fill:none" transform="matrix(4.25974 0 0 2.77919 -154.536 -7.522)"/><path d="m16.394 3.28-2.637 2.253c-.383.332-1.111.6-1.61.6H9.266A3.982 3.982 0 0 0 5.298 10.1v2.867c0 .499-.271 1.216-.592 1.601l-2.25 2.649c-1.19 1.417-1.19 3.716 0 5.132l2.25 2.649c.32.385.592 1.102.592 1.602v2.85a3.983 3.983 0 0 0 3.967 3.967h2.883c.51 0 1.226.268 1.609.6l2.64 2.273c1.437 1.211 3.756 1.207 5.172-.003l2.637-2.27c.383-.332 1.11-.6 1.609-.6h2.833a3.983 3.983 0 0 0 3.967-3.967v-2.833c0-.511.268-1.226.6-1.609l2.273-2.642c1.21-1.436 1.207-3.754-.003-5.17l-2.27-2.637c-.332-.383-.6-1.111-.6-1.609v-2.833a3.982 3.982 0 0 0-3.967-3.967h-2.833c-.511 0-1.226-.268-1.61-.6l-2.64-2.274c-1.437-1.21-3.755-1.207-5.171.004Zm.975 1.14c.883-.756 2.33-.753 3.227.002l2.629 2.263c.615.533 1.767.965 2.59.965h2.833a2.477 2.477 0 0 1 2.467 2.467v2.833c0 .802.43 1.974.966 2.591l2.264 2.63c.755.883.752 2.33-.002 3.227l-2.264 2.629c-.533.615-.964 1.767-.964 2.59v2.833a2.477 2.477 0 0 1-2.467 2.467h-2.833c-.802 0-1.975.431-2.592.966l-2.63 2.264c-.883.755-2.33.752-3.226-.002l-2.63-2.264c-.615-.533-1.766-.964-2.59-.964H9.266a2.477 2.477 0 0 1-2.467-2.467V26.6c0-.8-.428-1.949-.941-2.564l-2.252-2.653c-.742-.883-.742-2.316 0-3.2l2.252-2.653c.513-.615.94-1.764.94-2.563V10.1a2.477 2.477 0 0 1 2.468-2.467h2.883c.802 0 1.974-.432 2.59-.966l2.63-2.247Zm-4.97 15.876 4.017 4.033a.748.748 0 0 0 1.063.001l8.05-8.067a.75.75 0 0 0-1.062-1.059l-7.52 7.534-3.484-3.5a.75.75 0 1 0-1.063 1.058Z"/></svg>