<svg width="100%" height="100%" viewBox="0 0 23 23" fill="none" xmlns="http://www.w3.org/2000/svg">
<path d="M11.04 0C4.94858 0 0 4.94858 0 11.04C0 12.998 0.53697 14.8252 1.4325 16.4203L0.0178125 21.4706C-0.00478845 21.5514 -0.00580964 21.6368 0.0148508 21.7181C0.0355112 21.7994 0.0771314 21.8739 0.135561 21.9342C0.193992 21.9944 0.26719 22.0383 0.347859 22.0614C0.428527 22.0845 0.513848 22.0861 0.595312 22.0659L5.86125 20.7609C7.40862 21.587 9.16444 22.08 11.04 22.08C17.1314 22.08 22.08 17.1314 22.08 11.04C22.08 4.94858 17.1314 0 11.04 0ZM11.04 0.96C16.6126 0.96 21.12 5.46742 21.12 11.04C21.12 16.6126 16.6126 21.12 11.04 21.12C9.25345 21.12 7.58022 20.6542 6.12562 19.8403C6.01924 19.7809 5.89422 19.7641 5.77594 19.7934L1.16437 20.9362L2.40094 16.5244C2.41863 16.462 2.42352 16.3967 2.4153 16.3325C2.40708 16.2682 2.38593 16.2062 2.35312 16.1503C1.46913 14.6513 0.96 12.9073 0.96 11.04C0.96 5.46742 5.46742 0.96 11.04 0.96ZM7.02844 5.28C6.72074 5.28 6.2813 5.39448 5.92031 5.78344C5.70349 6.01706 4.8 6.89737 4.8 8.445C4.8 10.0585 5.91907 11.4508 6.05437 11.6297H6.05531V11.6306C6.04248 11.6138 6.22705 11.8811 6.47344 12.2016C6.71982 12.5221 7.06435 12.943 7.49719 13.3987C8.36285 14.3102 9.57998 15.3636 11.0906 16.0078C11.7863 16.3041 12.3351 16.4829 12.7509 16.6134C13.5215 16.8554 14.2234 16.8186 14.7506 16.7409C15.1453 16.6828 15.5793 16.4933 16.0087 16.2216C16.4382 15.9498 16.8591 15.6119 17.0447 15.0984C17.1776 14.7304 17.2452 14.3902 17.2697 14.1103C17.2819 13.9704 17.2835 13.8468 17.2744 13.7325C17.2653 13.6182 17.275 13.5306 17.1684 13.3556C16.945 12.9887 16.6919 12.9791 16.4278 12.8484C16.2811 12.7758 15.8634 12.5718 15.4444 12.3722C15.0259 12.1728 14.6635 11.9961 14.4403 11.9166C14.2993 11.8658 14.1271 11.7928 13.8787 11.8209C13.6304 11.8491 13.385 12.0283 13.2422 12.24C13.1068 12.4407 12.5618 13.084 12.3956 13.2731C12.3934 13.2718 12.4078 13.2784 12.3422 13.2459C12.1367 13.1442 11.8854 13.0578 11.5134 12.8616C11.1415 12.6654 10.6763 12.3757 10.1672 11.9269V11.9259C9.40945 11.2589 8.87869 10.4213 8.71125 10.14C8.72253 10.1266 8.70991 10.1428 8.73375 10.1194L8.73469 10.1184C8.90581 9.94988 9.05747 9.74857 9.18562 9.60094C9.36732 9.39162 9.44751 9.20709 9.53437 9.03469C9.7075 8.69109 9.6111 8.313 9.51094 8.11406V8.11312C9.51785 8.12689 9.45675 7.99208 9.39094 7.83656C9.32493 7.68061 9.2408 7.47842 9.15094 7.26281C8.97122 6.8316 8.77057 6.34796 8.65125 6.06469V6.06375C8.51068 5.73009 8.32051 5.48972 8.07187 5.37375C7.82324 5.25778 7.60357 5.29075 7.59469 5.29031H7.59375C7.41632 5.28213 7.22162 5.28 7.02844 5.28ZM7.02844 6.24C7.2135 6.24 7.39594 6.24226 7.54875 6.24937C7.70595 6.25721 7.69617 6.25785 7.66594 6.24375C7.63522 6.22943 7.6769 6.22478 7.76625 6.43687C7.88309 6.71424 8.08472 7.19964 8.265 7.63219C8.35514 7.84846 8.4395 8.05143 8.50687 8.21062C8.57425 8.36982 8.61076 8.4587 8.65312 8.54344V8.54437L8.65406 8.54531C8.6956 8.62727 8.69193 8.5748 8.6775 8.60344C8.57621 8.80447 8.56246 8.85384 8.46 8.97187C8.30399 9.1516 8.14486 9.35203 8.06062 9.435C7.98693 9.50739 7.85396 9.62018 7.77094 9.84094C7.68779 10.062 7.72659 10.3654 7.86 10.5919C8.03762 10.8934 8.62291 11.8461 9.5325 12.6469C10.1053 13.1518 10.639 13.486 11.0653 13.7109C11.4916 13.9358 11.8389 14.0672 11.9166 14.1056C12.1011 14.1969 12.3027 14.2678 12.5372 14.2397C12.7717 14.2115 12.9738 14.0693 13.1025 13.9237L13.1034 13.9228C13.2747 13.7286 13.7836 13.1475 14.0278 12.7894C14.0382 12.793 14.0348 12.7902 14.1159 12.8194V12.8203H14.1169C14.1539 12.8335 14.6181 13.0412 15.0319 13.2384C15.4457 13.4356 15.8657 13.6406 16.0022 13.7081C16.1991 13.8056 16.2922 13.8691 16.3162 13.8694C16.3179 13.9116 16.3195 13.9574 16.3134 14.0269C16.2966 14.2197 16.2451 14.4865 16.1419 14.7722C16.0913 14.912 15.828 15.2005 15.4959 15.4106C15.1639 15.6208 14.7597 15.7692 14.61 15.7912C14.1599 15.8576 13.6256 15.8818 13.0387 15.6975C12.6318 15.5698 12.1245 15.4044 11.4675 15.1247C10.1351 14.5565 9.00268 13.5895 8.19375 12.7378C7.78928 12.312 7.46523 11.9155 7.23469 11.6156C7.00458 11.3163 6.90409 11.1605 6.82031 11.0503L6.81937 11.0494C6.67066 10.8527 5.76 9.58601 5.76 8.445C5.76 7.23743 6.32088 6.76389 6.62437 6.43687C6.78371 6.2652 6.9579 6.24 7.02844 6.24Z" fill="black"/>
</svg>
