<svg xmlns="http://www.w3.org/2000/svg" xml:space="preserve" style="fill-rule:evenodd;clip-rule:evenodd;stroke-linejoin:round;stroke-miterlimit:2" viewBox="0 0 37 39"><g transform="matrix(4.25974 0 0 2.77919 -154.245 -7.808)"><path d="M36.359 3.051h8.463v13.547h-8.463z" style="fill:none"/><clipPath id="a"><path d="M36.359 3.051h8.463v13.547h-8.463z"/></clipPath><g clip-path="url(#a)"><path d="M40.255 16.038c.174.035.352.053.533.053.097 0 .176-.12.176-.27 0-.148-.079-.27-.176-.27-.165 0-.328-.016-.488-.048-.096-.019-.184.085-.197.233-.013.148.055.283.152.302Zm-3.203-9.694V4.428c0-.15-.08-.27-.176-.27-.097 0-.177.12-.177.27v2.741c.001.038.007.074.017.107l.014.037a.24.24 0 0 0 .051.077l.028.022.034.015.033.005h1.737c.097 0 .176-.12.176-.27 0-.149-.08-.27-.176-.27h-1.398c.435-.863 1.625-2.794 3.573-2.794 2.078 0 3.737 2.565 3.737 5.727 0 2.657-1.181 4.89-2.784 5.538-.094.038-.15.185-.125.33.024.144.12.23.215.192 1.754-.708 3.046-3.153 3.046-6.06 0-3.46-1.815-6.267-4.089-6.267-1.941 0-3.186 1.777-3.736 2.786Zm1.809 9.008c.214.177.44.324.676.44.093.046.192-.032.222-.174s-.021-.294-.114-.34a3.218 3.218 0 0 1-.618-.402c-.086-.07-.192-.02-.238.11-.046.132-.014.296.072.366Zm-1.146-1.396c.162.283.34.543.532.777.076.093.187.073.247-.044.06-.116.048-.286-.028-.379a5.164 5.164 0 0 1-.487-.71c-.064-.112-.175-.123-.248-.024a.378.378 0 0 0-.016.38Zm-.754-1.923c.087.354.195.693.32 1.014.05.127.158.169.242.092.083-.077.11-.243.06-.37a7.343 7.343 0 0 1-.293-.927c-.034-.139-.136-.21-.226-.157-.091.053-.137.208-.103.348Zm-.262-2.208c0 .383.023.758.066 1.121.017.147.109.245.205.218.095-.027.159-.167.141-.314a8.768 8.768 0 0 1-.06-1.025c0-.15-.078-.27-.175-.27-.097 0-.177.12-.177.27Z"/></g></g></svg>