<?xml version="1.0" encoding="UTF-8" standalone="no"?>
<svg width="100%" height="100%" viewBox="0 0 37 39" version="1.1" xmlns="http://www.w3.org/2000/svg" xmlns:xlink="http://www.w3.org/1999/xlink" xml:space="preserve" xmlns:serif="http://www.serif.com/" style="fill-rule:evenodd;clip-rule:evenodd;stroke-linejoin:round;stroke-miterlimit:2;">
    <g transform="matrix(1,0,0,1,0,-156)">
        <g id="icon-info-circle" transform="matrix(4.25974,0,0,2.77919,-154.881,148.276)">
            <rect x="36.359" y="3.051" width="8.463" height="13.547" style="fill:none;"/>
            <g transform="matrix(0.37983,0,0,0.582176,37.5519,5.16719)">
                <path d="M8,15.417C12.079,15.417 15.417,12.079 15.417,8C15.417,3.921 12.079,0.583 8,0.583C3.921,0.583 0.583,3.921 0.583,8C0.583,12.079 3.921,15.417 8,15.417ZM8,13.917C4.746,13.917 2.083,11.254 2.083,8C2.083,4.746 4.746,2.084 8,2.084C11.254,2.084 13.917,4.746 13.917,8C13.917,11.254 11.254,13.917 8,13.917ZM8,9.671C8.552,9.671 9,10.125 9,10.684C9,11.244 8.552,11.698 8,11.698C7.448,11.698 7,11.244 7,10.684C7,10.125 7.448,9.671 8,9.671ZM7.25,5.334L7.25,8.667C7.25,9.081 7.586,9.417 8,9.417C8.414,9.417 8.75,9.081 8.75,8.667L8.75,5.334C8.75,4.92 8.414,4.583 8,4.584C7.586,4.584 7.25,4.92 7.25,5.334Z" />
            </g>
        </g>
    </g>
</svg>
