<svg xmlns="http://www.w3.org/2000/svg" xml:space="preserve" style="fill-rule:evenodd;clip-rule:evenodd;stroke-linejoin:round;stroke-miterlimit:2" viewBox="0 0 37 38"><path d="M36.359 3.051h8.463v13.547h-8.463z" style="fill:none" transform="matrix(4.25974 0 0 2.77919 -154.444 -8.398)"/><path d="M13.961 34.657h9c4.004 0 6.791-.855 8.593-2.657 1.802-1.802 2.657-4.589 2.657-8.593v-9c0-4.004-.855-6.79-2.657-8.593-1.802-1.802-4.589-2.657-8.593-2.657h-9c-4.005 0-6.79.855-8.593 2.657-1.802 1.802-2.657 4.59-2.657 8.593v9c0 4.004.855 6.791 2.657 8.593 1.802 1.802 4.588 2.657 8.593 2.657Zm0-1.5c-3.496 0-5.959-.645-7.532-2.218-1.574-1.573-2.218-4.036-2.218-7.532v-9c0-3.496.644-5.959 2.218-7.532 1.573-1.573 4.036-2.218 7.532-2.218h9c3.496 0 5.96.645 7.532 2.218 1.573 1.573 2.218 4.036 2.218 7.532v9c0 3.496-.645 5.96-2.218 7.532-1.573 1.573-4.036 2.218-7.532 2.218h-9Zm-3.5-18.079a8.694 8.694 0 0 1 3.355 2.968l.003.005a1.54 1.54 0 0 1 0 1.727v.001a8.77 8.77 0 0 1-3.359 2.957.75.75 0 0 0 .671 1.342 10.274 10.274 0 0 0 3.932-3.462 3.034 3.034 0 0 0 0-3.403 10.193 10.193 0 0 0-3.932-3.477.75.75 0 0 0-.67 1.342Zm9.5 9.08h6a.75.75 0 0 0 0-1.5h-6a.75.75 0 0 0 0 1.5Z"/></svg>
