<?xml version="1.0" encoding="UTF-8" standalone="no"?>
<!DOCTYPE svg PUBLIC "-//W3C//DTD SVG 1.1//EN" "http://www.w3.org/Graphics/SVG/1.1/DTD/svg11.dtd">
<svg width="100%" height="100%" viewBox="0 0 42 41" version="1.1" xmlns="http://www.w3.org/2000/svg" xmlns:xlink="http://www.w3.org/1999/xlink" xml:space="preserve" xmlns:serif="http://www.serif.com/" style="fill-rule:evenodd;clip-rule:evenodd;stroke-linejoin:round;stroke-miterlimit:2;">
    <g transform="matrix(1,0,0,1,-2875,-546)">
        <g id="icon-stack" transform="matrix(0.878747,0,0,0.837757,471.518,92.9707)">
            <rect x="2735.76" y="540.825" width="46.305" height="48.57" style="fill:none;"/>
            <clipPath id="_clip1">
                <rect x="2735.76" y="540.825" width="46.305" height="48.57"/>
            </clipPath>
            <g clip-path="url(#_clip1)">
                <g id="icon-stack1" serif:id="icon-stack" transform="matrix(2.67761,5.13475e-17,9.79047e-17,2.80862,-1754.02,127.78)">
                    <g transform="matrix(1,0,0,1,1673.27,143.464)">
                        <path d="M12.197,3.54C12.071,3.487 11.929,3.487 11.803,3.54L4.803,6.54C4.619,6.619 4.5,6.8 4.5,7C4.5,7.2 4.619,7.381 4.803,7.46L11.803,10.46C11.929,10.513 12.071,10.513 12.197,10.46L19.197,7.46C19.381,7.381 19.5,7.2 19.5,7C19.5,6.8 19.381,6.619 19.197,6.54L12.197,3.54ZM12,4.544L17.731,7L12,9.456C12,9.456 6.269,7 6.269,7L12,4.544Z"/>
                    </g>
                    <g transform="matrix(1,0,0,1,1673.27,143.464)">
                        <path d="M7.66,10.316L4.803,11.54C4.619,11.619 4.5,11.8 4.5,12C4.5,12.2 4.619,12.381 4.803,12.46L11.803,15.46C11.929,15.514 12.071,15.514 12.197,15.46L19.197,12.46C19.381,12.381 19.5,12.2 19.5,12C19.5,11.8 19.381,11.619 19.197,11.54L16.34,10.316L15.071,10.86L17.731,12L12,14.456L6.269,12L8.929,10.86L7.66,10.316Z"/>
                    </g>
                    <g transform="matrix(1,0,0,1,1673.27,143.464)">
                        <path d="M7.66,15.316L4.803,16.54C4.619,16.619 4.5,16.8 4.5,17C4.5,17.2 4.619,17.381 4.803,17.46L11.803,20.46C11.929,20.514 12.071,20.514 12.197,20.46L19.197,17.46C19.381,17.381 19.5,17.2 19.5,17C19.5,16.8 19.381,16.619 19.197,16.54L16.34,15.316L15.071,15.86L17.731,17L12,19.456L6.269,17L8.929,15.86L7.66,15.316Z"/>
                    </g>
                </g>
            </g>
        </g>
    </g>
</svg>
