<?xml version="1.0" encoding="UTF-8" standalone="no"?>
<!DOCTYPE svg PUBLIC "-//W3C//DTD SVG 1.1//EN" "http://www.w3.org/Graphics/SVG/1.1/DTD/svg11.dtd">
<svg width="100%" height="100%" viewBox="0 0 24 24" version="1.1" xmlns="http://www.w3.org/2000/svg" xmlns:xlink="http://www.w3.org/1999/xlink" xml:space="preserve" xmlns:serif="http://www.serif.com/" style="fill-rule:evenodd;clip-rule:evenodd;stroke-linejoin:round;">
    <g transform="matrix(1.18236,0,0,1.18236,-2.50686,-2.61309)">
        <path d="M9.941,18.551C9.941,18.255 9.995,17.963 10.098,17.69C10.202,17.417 10.353,17.169 10.544,16.96C10.736,16.751 10.963,16.585 11.212,16.472C11.462,16.359 11.73,16.301 12,16.301C12.271,16.301 12.538,16.359 12.788,16.472C13.038,16.585 13.265,16.751 13.456,16.96C13.647,17.169 13.799,17.417 13.902,17.69C14.006,17.963 14.059,18.255 14.059,18.551" style="fill:none;fill-rule:nonzero;stroke:rgb(62,144,255);stroke-width:1px;"/>
        <path d="M13.235,16.3L14.882,13.6" style="fill:none;fill-rule:nonzero;stroke:rgb(62,144,255);stroke-width:1px;stroke-linecap:round;"/>
        <path d="M4.5,17.65L4.5,17.65L4.5,18.1C4.5,18.885 5.105,19.5 5.824,19.5L18.176,19.5C18.895,19.5 19.5,18.885 19.5,18.1L19.5,17.663C19.5,17.659 19.5,17.654 19.5,17.65L19.5,17.65C19.5,16.585 19.308,15.53 18.935,14.545C18.935,14.545 18.935,14.545 18.935,14.545C18.56,13.557 18.011,12.659 17.319,11.903C16.622,11.142 15.795,10.539 14.885,10.127C14.885,10.127 14.885,10.127 14.885,10.127C13.97,9.713 12.99,9.5 12,9.5C11.01,9.5 10.03,9.713 9.115,10.127C9.115,10.127 9.115,10.127 9.115,10.127C8.205,10.539 7.378,11.142 6.681,11.903C6.681,11.903 6.681,11.903 6.681,11.903C5.989,12.659 5.44,13.557 5.065,14.545C4.692,15.53 4.5,16.585 4.5,17.65L4.5,17.65ZM18.5,17.65L18.5,17.65C18.5,16.706 18.33,15.772 18,14.9C17.671,14.032 17.189,13.243 16.581,12.578C16.581,12.578 16.581,12.578 16.581,12.578C15.977,11.919 15.261,11.395 14.473,11.038C13.689,10.683 12.848,10.5 12,10.5C11.152,10.5 10.311,10.683 9.527,11.038C8.739,11.395 8.023,11.919 7.419,12.578C6.811,13.243 6.329,14.032 6,14.9C6,14.9 6,14.9 6,14.9C5.67,15.772 5.5,16.706 5.5,17.65L5.5,17.65C5.5,17.654 5.5,17.659 5.5,17.663L5.5,18.116C5.507,18.319 5.636,18.5 5.824,18.5C5.824,18.5 18.177,18.5 18.177,18.5C18.368,18.5 18.499,18.311 18.5,18.103L18.5,17.663L18.5,17.65Z" style="fill:white;"/>
    </g>
</svg>
