<?xml version="1.0" encoding="UTF-8" standalone="no"?>
<!DOCTYPE svg PUBLIC "-//W3C//DTD SVG 1.1//EN" "http://www.w3.org/Graphics/SVG/1.1/DTD/svg11.dtd">
<svg width="100%" height="100%" viewBox="0 0 41 41" version="1.1" xmlns="http://www.w3.org/2000/svg" xmlns:xlink="http://www.w3.org/1999/xlink" xml:space="preserve" xmlns:serif="http://www.serif.com/" style="fill-rule:evenodd;clip-rule:evenodd;stroke-linejoin:round;stroke-miterlimit:2;">
    <g transform="matrix(1,0,0,1,-1480,0)">
        <g id="icon-chat" transform="matrix(0.293498,0,0,0.339301,1073.38,24.342)">
            <rect x="1388.4" y="-71.724" width="136.287" height="117.889" style="fill:none;"/>
            <g transform="matrix(2.99167,0,0,2.58782,1454.73,-15.0806)">
                <g transform="matrix(1,0,0,1,-20.5,-20.5)">
                    <g transform="matrix(0.878747,0,0,0.81379,-2404.04,-439.157)">
                        <g id="icon-chat1" serif:id="icon-chat">
                            <rect x="2735.76" y="540.825" width="46.305" height="48.57" style="fill:none;"/>
                            <g transform="matrix(1.13798,1.51464e-32,0,1.22882,-380.041,-131.29)">
                                <g id="icon-chat2" serif:id="icon-chat">
                                    <path d="M2762.35,578.399C2762.29,578.528 2762.38,578.348 2762.38,578.348L2762.35,578.399ZM2775.99,575.039L2775.01,574.448L2775.99,575.039ZM2741.45,575.039L2742.43,574.448L2741.45,575.039ZM2749.29,561.79C2750.59,561.79 2751.65,562.744 2751.65,563.919C2751.65,565.095 2750.59,566.049 2749.29,566.049C2747.99,566.049 2746.93,565.095 2746.93,563.919C2746.93,562.744 2747.99,561.79 2749.29,561.79ZM2768.15,561.79C2769.45,561.79 2770.51,562.744 2770.51,563.919C2770.51,565.095 2769.45,566.049 2768.15,566.049C2766.85,566.049 2765.79,565.095 2765.79,563.919C2765.79,562.744 2766.85,561.79 2768.15,561.79ZM2758.72,561.79C2760.02,561.79 2761.08,562.744 2761.08,563.919C2761.08,565.095 2760.02,566.049 2758.72,566.049C2757.42,566.049 2756.36,565.095 2756.36,563.919C2756.36,562.744 2757.42,561.79 2758.72,561.79ZM2741.45,552.799L2742.43,553.391L2741.45,552.799ZM2775.99,552.799L2775.01,553.391L2775.99,552.799ZM2772.71,551.321C2771.75,550.748 2770.55,550.422 2768.71,550.253C2766.83,550.08 2764.41,550.079 2761.08,550.079L2755.75,550.079C2752.73,550.08 2750.5,550.091 2748.73,550.253C2746.89,550.422 2745.69,550.748 2744.73,551.321L2744.7,551.335L2744.68,551.348C2743.79,551.889 2743.03,552.584 2742.43,553.391L2742.41,553.411C2741.78,554.278 2741.42,555.363 2741.23,557.03C2741.04,558.727 2741.04,560.907 2741.04,563.919L2741.04,564.475C2741.04,567.203 2741.05,569.217 2741.23,570.809C2741.42,572.475 2741.78,573.561 2742.41,574.427L2742.43,574.448C2743.03,575.255 2743.79,575.949 2744.68,576.491L2744.7,576.504L2744.05,577.389L2744.7,576.504L2744.72,576.516C2745.56,577.017 2746.59,577.329 2748.06,577.513C2749.52,577.695 2751.34,577.744 2753.77,577.756L2754.01,577.757L2754.03,577.757C2754.5,577.764 2754.9,578.041 2755.08,578.413L2757.67,583.056C2757.91,583.492 2758.4,583.686 2758.86,583.638C2759.23,583.6 2759.58,583.406 2759.78,583.056L2762.35,578.399C2762.53,578.022 2762.95,577.759 2763.43,577.757L2763.67,577.756C2766.1,577.744 2767.92,577.695 2769.38,577.513C2770.87,577.328 2771.89,577.012 2772.74,576.504L2772.76,576.491C2773.65,575.949 2774.42,575.255 2775.01,574.448L2775.03,574.427C2775.66,573.561 2776.02,572.475 2776.21,570.809C2776.4,569.111 2776.4,566.932 2776.4,563.919L2776.4,563.364C2776.4,560.636 2776.39,558.621 2776.21,557.03C2776.02,555.35 2775.66,554.261 2775.01,553.391L2775,553.372C2774.4,552.566 2773.63,551.874 2772.74,551.335L2774.05,549.564L2774.07,549.581C2775.21,550.272 2776.19,551.156 2776.95,552.183L2776.97,552.208C2777.92,553.486 2778.35,554.966 2778.56,556.814C2778.76,558.645 2778.76,560.951 2778.76,563.919L2778.76,564.468C2778.76,567.174 2778.75,569.308 2778.56,571.024C2778.35,572.872 2777.92,574.352 2776.97,575.631L2776.95,575.655C2776.18,576.691 2775.2,577.581 2774.05,578.274L2774.02,578.292C2772.79,579.026 2771.39,579.412 2769.7,579.623C2768.19,579.812 2766.37,579.866 2764.17,579.882L2761.88,584.009L2761.88,584.023C2760.57,586.363 2756.86,586.358 2755.56,584.009L2753.27,579.868C2751.07,579.852 2749.26,579.812 2747.74,579.623C2746.04,579.41 2744.63,579.02 2743.39,578.274L2743.37,578.258C2742.22,577.561 2741.24,576.669 2740.47,575.631L2740.45,575.601C2739.51,574.329 2739.09,572.858 2738.88,571.024C2738.68,569.194 2738.68,566.888 2738.68,563.919L2738.68,563.37C2738.68,560.664 2738.69,558.53 2738.88,556.814C2739.09,554.966 2739.52,553.486 2740.47,552.208L2740.49,552.183C2741.26,551.148 2742.24,550.258 2743.39,549.564L2743.43,549.544C2744.84,548.704 2746.47,548.321 2748.49,548.134C2750.52,547.948 2753.08,547.95 2756.36,547.95L2761.69,547.95C2764.68,547.95 2767.05,547.96 2768.95,548.134C2770.98,548.321 2772.61,548.704 2774.01,549.544L2774.05,549.564L2772.74,551.335L2772.71,551.321Z" style="fill-rule:nonzero;"/>
                                </g>
                            </g>
                        </g>
                    </g>
                </g>
            </g>
        </g>
    </g>
</svg>
