<?xml version="1.0" encoding="UTF-8" standalone="no"?>
<!DOCTYPE svg PUBLIC "-//W3C//DTD SVG 1.1//EN" "http://www.w3.org/Graphics/SVG/1.1/DTD/svg11.dtd">
<svg width="100%" height="100%" viewBox="0 0 42 41" version="1.1" xmlns="http://www.w3.org/2000/svg" xmlns:xlink="http://www.w3.org/1999/xlink" xml:space="preserve" xmlns:serif="http://www.serif.com/" style="fill-rule:evenodd;clip-rule:evenodd;stroke-linejoin:round;stroke-miterlimit:2;">
    <g transform="matrix(1,0,0,1,-2811,-546)">
        <g id="icon-diamond" transform="matrix(0.878747,0,0,0.81379,407.581,106.393)">
            <rect x="2735.76" y="540.825" width="46.305" height="48.57" style="fill:none;"/>
            <clipPath id="_clip1">
                <rect x="2735.76" y="540.825" width="46.305" height="48.57"/>
            </clipPath>
            <g clip-path="url(#_clip1)">
                <g id="icon-diamond1" serif:id="icon-diamond" transform="matrix(2.71796,-2.37117e-16,0,2.78181,2733.88,540.015)">
                    <path d="M1.289,8.162L9,17.8L16.711,8.162C17.122,7.647 17.301,7.373 17.356,7.063C17.411,6.753 17.339,6.435 17.13,5.81C17.13,5.81 16.386,3.577 16.386,3.577C15.895,2.105 15.604,1.393 15.02,0.972C14.436,0.551 13.668,0.5 12.117,0.5C12.117,0.5 5.883,0.5 5.883,0.5C4.332,0.5 3.564,0.551 2.98,0.972C2.396,1.393 2.105,2.105 1.614,3.577C1.614,3.577 0.87,5.81 0.87,5.81C0.661,6.435 0.589,6.753 0.644,7.063L0.644,7.063C0.699,7.374 0.878,7.647 1.289,8.162ZM6.184,6.5L9,15.351L11.816,6.5L6.184,6.5ZM7.706,14.582L2.07,7.537C2.031,7.488 1.993,7.442 1.959,7.401L5.166,6.599L7.706,14.582ZM16.041,7.401C16.007,7.443 15.969,7.488 15.93,7.537L10.294,14.582L12.834,6.599L16.041,7.401ZM11,1.5C11.203,1.5 11.393,1.624 11.468,1.824L12.876,5.579L16.288,6.432C16.258,6.345 16.221,6.245 16.182,6.126C16.182,6.126 15.437,3.893 15.437,3.893C15.225,3.256 15.067,2.778 14.898,2.414C14.765,2.129 14.634,1.926 14.436,1.783L14.436,1.783C14.238,1.64 14.004,1.58 13.691,1.544C13.292,1.498 12.788,1.5 12.117,1.5L11,1.5ZM7,1.5L5.883,1.5C5.212,1.5 4.708,1.498 4.309,1.544C3.996,1.58 3.762,1.64 3.564,1.783L3.564,1.783C3.366,1.926 3.235,2.129 3.102,2.414C2.933,2.778 2.775,3.256 2.563,3.893C2.563,3.893 1.818,6.126 1.818,6.126C1.779,6.245 1.742,6.345 1.712,6.432L5.124,5.579L6.532,1.824C6.608,1.636 6.776,1.514 6.98,1.5L7,1.5ZM10.994,1.5L7.006,1.5C7.063,1.501 7.12,1.511 7.176,1.532C7.434,1.629 7.565,1.917 7.468,2.176L6.222,5.5L11.778,5.5L10.532,2.176C10.435,1.917 10.566,1.629 10.824,1.532C10.88,1.511 10.937,1.501 10.994,1.5Z"/>
                </g>
            </g>
        </g>
    </g>
</svg>
