<svg xmlns="http://www.w3.org/2000/svg" xml:space="preserve" style="fill-rule:evenodd;clip-rule:evenodd;stroke-linejoin:round;stroke-miterlimit:2" viewBox="0 0 37 39"><path d="M36.359 3.051h8.463v13.547h-8.463z" style="fill:none" transform="matrix(4.25974 0 0 2.77919 -154.588 -7.81)"/><path d="M34.06 22.659a.731.731 0 0 0 0-.3v-7.365c0-4.004-.856-6.79-2.658-8.592C29.6 4.6 26.814 3.744 22.81 3.744h-9c-4.004 0-6.79.856-8.592 2.658C3.415 8.204 2.56 10.99 2.56 14.994v9c0 4.005.856 6.79 2.658 8.593 1.802 1.802 4.588 2.657 8.592 2.657h9c4.005 0 6.791-.855 8.593-2.657 1.802-1.802 2.657-4.588 2.657-8.593v-1.335Zm-1.5.6h-5.326c-1.237 0-2.737-.9-3.318-2.004l-1.562-2.96-3.438 8.723c-.355.888-.936 1.203-1.394 1.203-.458 0-1.039-.315-1.394-1.203l-1.71-4.32c-.316-.79-1.262-1.433-2.108-1.433l-8.25.027v2.702c0 3.496.644 5.96 2.217 7.533 1.573 1.573 4.037 2.217 7.532 2.217h9c3.496 0 5.96-.644 7.533-2.217 1.573-1.573 2.217-4.037 2.217-7.533v-.734Zm0-1.5v-6.765c0-3.495-.645-5.96-2.218-7.532-1.573-1.573-4.037-2.218-7.533-2.218h-9c-3.495 0-5.959.645-7.532 2.218-1.573 1.573-2.218 4.037-2.218 7.532v4.798l8.25-.027c1.404 0 2.978 1.066 3.502 2.376l1.711 4.323 3.434-8.714c.31-.788.843-1.1 1.308-1.125.463-.024 1.025.23 1.42.974l1.56 2.957c.348.664 1.248 1.204 1.99 1.204h5.325Z"/></svg>