<?xml version="1.0" encoding="UTF-8" standalone="no"?>
<!DOCTYPE svg PUBLIC "-//W3C//DTD SVG 1.1//EN" "http://www.w3.org/Graphics/SVG/1.1/DTD/svg11.dtd">
<svg width="100%" height="100%" viewBox="0 0 41 41" version="1.1" xmlns="http://www.w3.org/2000/svg" xmlns:xlink="http://www.w3.org/1999/xlink" xml:space="preserve" xmlns:serif="http://www.serif.com/" style="fill-rule:evenodd;clip-rule:evenodd;stroke-linejoin:round;stroke-miterlimit:2;">
    <g transform="matrix(1,0,0,1,-1386,-54)">
        <g id="icon-code" transform="matrix(0.293498,0,0,0.339301,978.594,78.3673)">
            <rect x="1388.4" y="-71.724" width="136.287" height="117.889" style="fill:none;"/>
            <g transform="matrix(5.67863,0,0,4.91206,1462.03,-16.4106)">
                <g transform="matrix(1,0,0,1,-12,-12)">
                    <path d="M20.65,7C20.65,5.537 19.463,4.35 18,4.35C18,4.35 5,4.35 5,4.35C3.537,4.35 2.35,5.537 2.35,7L2.35,17C2.35,18.463 3.537,19.65 5,19.65L18,19.65C19.463,19.65 20.65,18.463 20.65,17L20.65,7ZM19.35,7L19.35,17C19.35,17.745 18.745,18.35 18,18.35C18,18.35 5,18.35 5,18.35C4.255,18.35 3.65,17.745 3.65,17C3.65,17 3.65,7 3.65,7C3.65,6.255 4.255,5.65 5,5.65L18,5.65C18.745,5.65 19.35,6.255 19.35,7ZM6.298,10.118L8.082,11.94C8.082,11.94 6.075,13.921 6.075,13.921C5.82,14.173 5.817,14.585 6.069,14.84C6.321,15.096 6.733,15.098 6.988,14.846L9.455,12.411C9.71,12.16 9.714,11.75 9.463,11.494L7.228,9.208C6.977,8.952 6.565,8.948 6.308,9.198C6.052,9.449 6.047,9.861 6.298,10.118ZM12,14.65L16,14.65C16.359,14.65 16.65,14.359 16.65,14C16.65,13.641 16.359,13.35 16,13.35L12,13.35C11.641,13.35 11.35,13.641 11.35,14C11.35,14.359 11.641,14.65 12,14.65Z"/>
                </g>
            </g>
        </g>
    </g>
</svg>
