<svg xmlns="http://www.w3.org/2000/svg" xml:space="preserve" style="fill-rule:evenodd;clip-rule:evenodd;stroke-linejoin:round;stroke-miterlimit:2" viewBox="0 0 37 38"><path d="M36.359 3.051h8.463v13.547h-8.463z" style="fill:none" transform="matrix(4.25974 0 0 2.77919 -154.881 -8.438)"/><path d="M7.36 20.38a12.36 12.36 0 0 1-1.752-6.388A12.408 12.408 0 0 1 18.025 1.575a12.408 12.408 0 0 1 12.417 12.417 12.37 12.37 0 0 1-1.752 6.387l6.082 6.082c1.326 1.31.68 3.608-1.157 4.044l-2.747.65c-.335.081-.604.327-.676.662l-.587 2.465c-.46 1.93-2.916 2.513-4.198 1l-7.381-8.48-7.382 8.496c-1.282 1.514-3.74.931-4.2-.999l-.581-2.447a.907.907 0 0 0-.667-.678l-2.76-.652c-1.837-.435-2.487-2.73-1.158-4.06l6.083-6.083Zm9.102 5.935L9.5 34.326c-.486.577-1.422.36-1.596-.374l-.584-2.454a2.418 2.418 0 0 0-1.792-1.787l-2.748-.649c-.697-.165-.947-1.035-.442-1.54l5.88-5.88a12.371 12.371 0 0 0 7.937 4.624c.1.018.203.034.306.05Zm3.128 0c.102-.015.204-.032.305-.049a12.371 12.371 0 0 0 7.936-4.624l5.885 5.885c.5.492.245 1.354-.447 1.518l-2.755.651c-.894.218-1.59.901-1.787 1.794l-.582 2.445c-.174.734-1.11.952-1.596.374l-6.96-7.995Zm-1.558-1.406h-.014a9.396 9.396 0 0 1-1.635-.143c-3.102-.452-5.768-2.214-7.452-4.709a10.869 10.869 0 0 1-1.823-6.065A10.91 10.91 0 0 1 18.025 3.075a10.91 10.91 0 0 1 10.917 10.917c0 2.261-.67 4.335-1.823 6.065-1.684 2.495-4.35 4.257-7.452 4.71l-.022.003a9.387 9.387 0 0 1-1.613.14Zm1.63-16.286c-.433-.868-1.071-1.215-1.631-1.215-.57 0-1.203.354-1.604 1.238l-.973 1.943a.37.37 0 0 1-.236.18l-1.79.301c-.921.162-1.434.656-1.607 1.195-.173.54-.043 1.24.624 1.907l1.383 1.383c.072.072.099.215.083.317l-.4 1.716c-.253 1.078.058 1.793.52 2.13.46.333 1.236.41 2.189-.145l1.679-.99a.338.338 0 0 1 .318 0l1.677.988c.953.57 1.732.49 2.194.15.46-.338.77-1.058.517-2.134l-.4-1.716-.002-.01a.355.355 0 0 1 .086-.306l1.383-1.383c.665-.665.797-1.369.624-1.912-.174-.546-.691-1.042-1.618-1.192L20.9 10.77c-.003 0-.005 0-.008-.002a.37.37 0 0 1-.246-.177l-.983-1.967Zm-1.625.3a.527.527 0 0 1 .087.072c.072.077.136.178.197.3l.983 1.965c.226.452.818.904 1.354.99l1.776.298.005.001c.199.032.358.065.429.17.026.038-.021.076-.05.127a1.141 1.141 0 0 1-.207.265l-1.383 1.384c-.397.397-.622 1.162-.48 1.73l.397 1.703v.002c.049.208.039.453.03.558a.59.59 0 0 1-.101-.018 1.721 1.721 0 0 1-.414-.189l-1.668-.984c-.512-.307-1.355-.307-1.867 0l-1.662.98c-.188.11-.428.173-.532.197a.81.81 0 0 1-.014-.097 1.73 1.73 0 0 1 .055-.447l.404-1.734c.11-.53-.096-1.31-.487-1.7l-1.384-1.385c-.145-.145-.257-.266-.254-.394 0-.045.062-.047.113-.072.09-.044.198-.076.323-.098l1.779-.299c.508-.085 1.104-.535 1.33-.987l.996-1.993c.067-.149.199-.297.245-.346Z"/></svg>