<svg width="24" height="24" viewBox="0 0 24 24" fill="none" xmlns="http://www.w3.org/2000/svg">
<circle cx="11.7002" cy="7.59961" r="2" fill="#3E90FF"/>
<circle cx="11.7197" cy="7.55566" r="3.05566" stroke="white" stroke-linecap="round"/>
<path d="M13.7353 5.73153C13.9788 5.30964 14.342 4.96947 14.7789 4.75401C15.2159 4.53855 15.7068 4.45749 16.1898 4.52107C16.6728 4.58466 17.1261 4.79003 17.4923 5.11123C17.8586 5.43243 18.1214 5.85502 18.2474 6.32557C18.3735 6.79611 18.3572 7.29348 18.2007 7.75477C18.0441 8.21606 17.7542 8.62056 17.3677 8.91712C16.9813 9.21367 16.5155 9.38897 16.0294 9.42083C15.5433 9.45269 15.0587 9.33969 14.6368 9.09611" stroke="white"/>
<path d="M9.70468 5.73153C9.46111 5.30964 9.0979 4.96947 8.661 4.75401C8.22409 4.53855 7.7331 4.45749 7.25013 4.52107C6.76715 4.58466 6.31387 4.79003 5.94762 5.11123C5.58136 5.43243 5.31858 5.85502 5.19249 6.32557C5.06641 6.79611 5.08269 7.29348 5.23928 7.75477C5.39587 8.21606 5.68573 8.62056 6.07221 8.91712C6.45869 9.21367 6.92442 9.38897 7.41053 9.42083C7.89663 9.45269 8.38126 9.33969 8.80314 9.09611" stroke="white"/>
<path d="M11.7194 12.8887C16.7068 12.8887 17.8784 17.0513 18.1536 19.0071C18.2306 19.554 17.7904 20 17.2381 20H6.20068C5.6484 20 5.20823 19.554 5.28519 19.0071C5.56042 17.0513 6.73202 12.8887 11.7194 12.8887Z" stroke="white" stroke-linecap="round"/>
<path d="M20.4156 16.5435L20.9027 16.4307L20.9027 16.4307L20.4156 16.5435ZM13.0083 12.99L12.6391 12.6529L12.0186 13.3324L12.9263 13.4833L13.0083 12.99ZM17.8609 17.6292L17.3806 17.7682L17.4851 18.1292H17.8609V17.6292ZM15.868 12.2031C17.1699 12.2031 18.0713 12.8672 18.7167 13.7722C19.372 14.691 19.7366 15.8278 19.9285 16.6563L20.9027 16.4307C20.6985 15.5487 20.2966 14.2653 19.5308 13.1915C18.7552 12.1039 17.5808 11.2031 15.868 11.2031V12.2031ZM13.3775 13.3272C13.9849 12.662 14.7836 12.2031 15.868 12.2031V11.2031C14.4558 11.2031 13.4018 11.8175 12.6391 12.6529L13.3775 13.3272ZM12.9263 13.4833C15.7039 13.9448 16.8759 16.0234 17.3806 17.7682L18.3412 17.4903C17.7874 15.5759 16.4173 13.0496 13.0903 12.4968L12.9263 13.4833ZM19.5039 17.1292H17.8609V18.1292H19.5039V17.1292ZM19.9285 16.6563C19.9808 16.8819 19.8133 17.1292 19.5039 17.1292V18.1292C20.3776 18.1292 21.1175 17.3579 20.9027 16.4307L19.9285 16.6563Z" fill="white"/>
<path d="M10.4309 12.9901L10.5129 13.4833L11.4205 13.3324L10.8001 12.6529L10.4309 12.9901ZM3.02347 16.5435L3.51058 16.6563L3.02347 16.5435ZM5.57858 17.6292V18.1292H5.95444L6.05889 17.7682L5.57858 17.6292ZM7.57113 12.2031C8.65551 12.2031 9.45422 12.662 10.0616 13.3272L10.8001 12.6529C10.0374 11.8176 8.98341 11.2031 7.57113 11.2031V12.2031ZM3.51058 16.6563C3.70248 15.8278 4.06712 14.691 4.72243 13.7722C5.36786 12.8672 6.26919 12.2031 7.57113 12.2031V11.2031C5.85837 11.2031 4.68396 12.1039 3.90828 13.1915C3.14247 14.2653 2.74063 15.5487 2.53636 16.4307L3.51058 16.6563ZM3.93524 17.1292C3.62579 17.1292 3.45834 16.8819 3.51058 16.6563L2.53636 16.4307C2.32162 17.3579 3.06145 18.1292 3.93524 18.1292V17.1292ZM5.57858 17.1292H3.93524V18.1292H5.57858V17.1292ZM6.05889 17.7682C6.56363 16.0234 7.73551 13.945 10.5129 13.4833L10.3489 12.4969C7.02213 13.0498 5.65207 15.576 5.09828 17.4903L6.05889 17.7682Z" fill="white"/>
</svg>
