<?xml version="1.0" encoding="UTF-8" standalone="no"?>
<!DOCTYPE svg PUBLIC "-//W3C//DTD SVG 1.1//EN" "http://www.w3.org/Graphics/SVG/1.1/DTD/svg11.dtd">
<svg width="100%" height="100%" viewBox="0 0 24 24" version="1.1" xmlns="http://www.w3.org/2000/svg" xmlns:xlink="http://www.w3.org/1999/xlink" xml:space="preserve" xmlns:serif="http://www.serif.com/" style="fill-rule:evenodd;clip-rule:evenodd;stroke-linejoin:round;stroke-miterlimit:2;">
    <g transform="matrix(0.897688,0,0,0.897688,0.90884,2.80466)">
        <path d="M19.818,17.5L17.649,19.644L18.351,20.356L21.711,17.035L21.34,16.66L21.354,16.646L18.354,13.646L17.646,14.354L19.793,16.5L18.22,16.5C17.083,16.5 16.252,16.501 15.594,16.431C15.496,16.421 15.402,16.409 15.312,16.395C14.941,16.337 14.634,16.248 14.353,16.101L14.353,16.101C14.027,15.93 13.73,15.709 13.473,15.446C12.825,14.783 12.562,13.799 11.979,11.856C11.325,9.677 10.97,8.599 10.243,7.855C9.912,7.517 9.53,7.233 9.111,7.013C8.189,6.531 7.055,6.5 4.78,6.5L3,6.5L3,7.5L4.78,7.5C6.808,7.5 7.826,7.469 8.647,7.899C8.973,8.07 9.27,8.291 9.527,8.554C10.175,9.217 10.438,10.201 11.021,12.144C11.675,14.323 12.03,15.401 12.757,16.145L12.757,16.145C13.088,16.483 13.47,16.767 13.889,16.987C14.262,17.182 14.667,17.307 15.159,17.383C15.264,17.399 15.374,17.413 15.488,17.426C16.172,17.499 17.037,17.5 18.22,17.5L19.818,17.5Z" style="fill:white;"/>
        <path d="M21.354,6.646L18.354,3.646L17.646,4.354L19.793,6.5L18.196,6.5C17.141,6.5 16.315,6.5 15.646,6.559C14.964,6.619 14.405,6.743 13.889,7.013C13.47,7.233 13.088,7.517 12.757,7.855C12.739,7.874 12.72,7.894 12.702,7.913C12.829,8.162 12.94,8.415 13.041,8.667C13.078,8.762 13.115,8.859 13.152,8.959C13.252,8.804 13.357,8.672 13.473,8.554C13.73,8.291 14.027,8.07 14.353,7.899C14.708,7.713 15.123,7.609 15.734,7.555C16.354,7.5 17.136,7.5 18.22,7.5L19.793,7.5L17.646,9.646L18.354,10.354L21.354,7.354L21.707,7L21.354,6.646ZM10.298,16.087C10.171,15.838 10.06,15.585 9.959,15.333C9.922,15.238 9.885,15.141 9.848,15.042C9.748,15.196 9.643,15.328 9.527,15.446C9.27,15.709 8.973,15.93 8.647,16.101C8.292,16.287 7.877,16.391 7.266,16.445C6.646,16.5 5.865,16.5 4.78,16.5L3,16.5L3,17.5L4.804,17.5C5.859,17.5 6.685,17.5 7.354,17.441C8.036,17.381 8.595,17.257 9.111,16.987C9.53,16.767 9.912,16.483 10.243,16.145C10.261,16.126 10.28,16.106 10.298,16.087Z" style="fill:rgb(62,144,255);"/>
    </g>
</svg>
