<svg width="25" height="24" viewBox="0 0 25 24" fill="none" xmlns="http://www.w3.org/2000/svg">
<path d="M16 9L20 10V9.5L18.5 5L17.5 4H14L16 9Z" fill="#3E90FF"/>
<path d="M13.5 4H11.5L9.5 8.5H15.5L13.5 4Z" fill="#3E90FF"/>
<path d="M9 9L5 10V9.5L6.5 5L7.5 4H11L9 9Z" fill="#3E90FF"/>
<path d="M12.5 20L5.1797 10.8496C4.84718 10.434 4.68092 10.2262 4.63625 9.9757C4.59159 9.72524 4.67575 9.47276 4.84407 8.96778L5.5883 6.73509C6.02832 5.41505 6.24832 4.75503 6.7721 4.37752C7.29587 4 7.99159 4 9.38304 4H15.617C17.0084 4 17.7041 4 18.2279 4.37752C18.7517 4.75503 18.9717 5.41505 19.4117 6.73509L20.1559 8.96778C20.3243 9.47276 20.4084 9.72524 20.3637 9.9757C20.3191 10.2262 20.1528 10.434 19.8203 10.8496L12.5 20ZM12.5 20L16 9M12.5 20L9 9M20 10L16 9M16 9L14 4M16 9H9M11 4L9 9M9 9L5 10" stroke="white" stroke-linecap="round"/>
</svg>
