<?xml version="1.0" encoding="UTF-8" standalone="no"?>
<!DOCTYPE svg PUBLIC "-//W3C//DTD SVG 1.1//EN" "http://www.w3.org/Graphics/SVG/1.1/DTD/svg11.dtd">
<svg width="100%" height="100%" viewBox="0 0 24 24" version="1.1" xmlns="http://www.w3.org/2000/svg" xmlns:xlink="http://www.w3.org/1999/xlink" xml:space="preserve" xmlns:serif="http://www.serif.com/" style="fill-rule:evenodd;clip-rule:evenodd;">
    <path d="M13.768,6.5C13.966,6.157 14.261,5.881 14.615,5.706C14.97,5.531 15.369,5.465 15.761,5.517C16.153,5.569 16.521,5.736 16.819,5.996C17.116,6.257 17.33,6.6 17.432,6.982C17.534,7.364 17.521,7.768 17.394,8.143C17.267,8.517 17.031,8.846 16.718,9.087C16.404,9.328 16.026,9.47 15.631,9.496C15.236,9.522 14.843,9.43 14.5,9.232" style="fill:none;fill-rule:nonzero;stroke:white;stroke-width:1px;"/>
    <path d="M10.232,6.5C10.034,6.157 9.739,5.881 9.385,5.706C9.03,5.531 8.631,5.465 8.239,5.517C7.847,5.569 7.479,5.736 7.181,5.996C6.884,6.257 6.671,6.6 6.568,6.982C6.466,7.364 6.479,7.768 6.606,8.143C6.733,8.517 6.969,8.846 7.282,9.087C7.596,9.328 7.974,9.47 8.369,9.496C8.764,9.522 9.157,9.43 9.5,9.232" style="fill:none;fill-rule:nonzero;stroke:white;stroke-width:1px;"/>
    <circle cx="12" cy="8" r="2.5" style="fill:none;stroke:white;stroke-width:1px;stroke-linecap:round;"/>
    <path d="M12,12.5C16.08,12.5 17.134,15.802 17.405,17.507C17.492,18.052 17.052,18.5 16.5,18.5L7.5,18.5C6.948,18.5 6.508,18.052 6.595,17.507C6.866,15.802 7.92,12.5 12,12.5Z" style="fill:none;fill-rule:nonzero;stroke:white;stroke-width:1px;stroke-linecap:round;"/>
    <path d="M19.296,15.416L18.811,15.538L19.296,15.416ZM13.087,12.586L12.718,12.249L12.097,12.928L13.005,13.079L13.087,12.586ZM17.181,16.5L16.701,16.639L16.805,17L17.181,17L17.181,16.5ZM15.5,12C16.528,12 17.249,12.503 17.778,13.207C18.318,13.925 18.634,14.831 18.811,15.538L19.781,15.295C19.59,14.532 19.233,13.479 18.578,12.607C17.912,11.72 16.92,11 15.5,11L15.5,12ZM13.456,12.923C13.957,12.375 14.611,12 15.5,12L15.5,11C14.283,11 13.373,11.531 12.718,12.249L13.456,12.923ZM13.005,13.079C15.306,13.461 16.279,15.18 16.701,16.639L17.661,16.361C17.19,14.733 16.019,12.566 13.169,12.093L13.005,13.079ZM18.395,16L17.181,16L17.181,17L18.395,17L18.395,16ZM18.811,15.538C18.865,15.753 18.707,16 18.395,16L18.395,17C19.266,17 20.015,16.228 19.781,15.295L18.811,15.538Z" style="fill:white;fill-rule:nonzero;"/>
    <path d="M10.913,12.586L10.995,13.079L11.903,12.928L11.282,12.249L10.913,12.586ZM4.704,15.416L5.189,15.538L4.704,15.416ZM6.819,16.5L6.819,17L7.195,17L7.299,16.639L6.819,16.5ZM8.5,12C9.389,12 10.043,12.375 10.544,12.923L11.282,12.249C10.627,11.531 9.717,11 8.5,11L8.5,12ZM5.189,15.538C5.366,14.831 5.682,13.925 6.222,13.207C6.751,12.503 7.472,12 8.5,12L8.5,11C7.08,11 6.088,11.72 5.422,12.607C4.767,13.479 4.41,14.532 4.219,15.295L5.189,15.538ZM5.605,16C5.293,16 5.135,15.753 5.189,15.538L4.219,15.295C3.985,16.228 4.734,17 5.605,17L5.605,16ZM6.819,16L5.605,16L5.605,17L6.819,17L6.819,16ZM7.299,16.639C7.721,15.18 8.694,13.461 10.995,13.079L10.831,12.093C7.981,12.566 6.81,14.733 6.339,16.361L7.299,16.639Z" style="fill:white;fill-rule:nonzero;"/>
    <g transform="matrix(1.29936,0,0,1.19385,-4.02946,-1.4661)">
        <ellipse cx="12.336" cy="7.929" rx="0.77" ry="0.838" style="fill:rgb(62,144,255);"/>
    </g>
</svg>
