<svg xmlns="http://www.w3.org/2000/svg" xml:space="preserve" style="fill-rule:evenodd;clip-rule:evenodd;stroke-linejoin:round;stroke-miterlimit:2" viewBox="0 0 37 38"><path d="M36.359 3.051h8.463v13.547h-8.463z" style="fill:none" transform="matrix(4.25974 0 0 2.77919 -154.39 -8.22)"/><path d="M34.83 30.573V7.239c0-1.908-.516-3.326-1.47-4.28-.955-.954-2.373-1.47-4.28-1.47h-6.667c-1.909 0-3.327.516-4.28 1.47-.955.954-1.47 2.372-1.47 4.28v23.334c0 1.908.515 3.326 1.47 4.28.953.954 2.371 1.47 4.28 1.47h6.666c1.908 0 3.326-.516 4.281-1.47.954-.954 1.47-2.372 1.47-4.28ZM7.445 1.489c-3.13 0-5.683 2.556-5.683 5.667v21.6c0 .863.363 2.167.804 2.914l1.37 2.273c.95 1.585 2.242 2.326 3.501 2.326 1.258 0 2.551-.741 3.501-2.328 0 .002 1.368-2.267 1.368-2.267.443-.751.806-2.055.806-2.918v-21.6c0-3.112-2.555-5.667-5.667-5.667Zm10.717 28.167v.917c0 1.425.317 2.507 1.03 3.219.713.713 1.794 1.03 3.22 1.03h6.666c1.426 0 2.507-.317 3.22-1.03.713-.712 1.03-1.794 1.03-3.22V7.24c0-1.425-.317-2.507-1.03-3.22-.713-.712-1.794-1.03-3.22-1.03h-6.666c-1.426 0-2.507.318-3.22 1.03-.713.713-1.03 1.795-1.03 3.22v.917h7.583a.75.75 0 0 1 0 1.5h-7.583v5.167h4.25a.75.75 0 0 1 0 1.5h-4.25v5.09l7.59.076a.75.75 0 1 1-.015 1.5l-7.575-.075v5.242h5.916a.75.75 0 0 1 0 1.5h-5.916Zm-6.55-18.333v17.433c0 .637-.27 1.598-.595 2.15L9.653 33.17c-.618 1.03-1.398 1.599-2.215 1.599-.818 0-1.598-.568-2.215-1.598l-1.365-2.265c-.326-.552-.595-1.513-.595-2.15V11.323h8.35Zm0-1.5h-8.35V7.156c0-2.29 1.88-4.167 4.183-4.167a4.184 4.184 0 0 1 4.167 4.167v2.667Z"/></svg>